<svg width="223" height="48" viewBox="0 0 223 48" fill="none" xmlns="http://www.w3.org/2000/svg">
<path d="M7.42596 45.1007L7.49297 37.7811L17.4526 37.8722C19.2925 37.8891 20.7374 37.3623 21.7872 36.2918C22.837 35.2214 23.3691 33.9062 23.3834 32.3463C23.3933 31.2663 23.1621 30.3042 22.6898 29.4598C22.2175 28.6155 21.5436 27.9493 20.668 27.4612C19.8324 26.9736 18.7947 26.724 17.5547 26.7127L7.59513 26.6215L7.66049 19.4818L16.8401 19.5659C18.4 19.5801 19.6635 19.2117 20.6304 18.4605C21.5977 17.6693 22.0886 16.4738 22.1033 14.8738C22.1176 13.3139 21.6482 12.1496 20.6952 11.3808C19.7426 10.572 18.4863 10.1605 16.9263 10.1462L7.74672 10.0622L7.81373 2.74252L18.7933 2.84303C21.5132 2.86793 23.8085 3.38896 25.6793 4.40613C27.59 5.42366 29.0377 6.77697 30.0223 8.46606C31.0068 10.1551 31.4898 12.0196 31.4711 14.0596C31.4473 16.6594 30.5872 18.8517 28.8908 20.6362C27.1944 22.4208 24.7032 23.638 21.4171 24.2879L21.6862 21.1103C25.2398 21.8228 27.9671 23.2279 29.8679 25.3254C31.8088 27.4232 32.7653 29.9921 32.7375 33.0319C32.7163 35.3518 32.1171 37.4465 30.9399 39.3158C29.8031 41.1454 28.1498 42.5903 25.98 43.6505C23.8502 44.7111 21.2854 45.2276 18.2855 45.2002L7.42596 45.1007ZM0.226264 45.0348L0.614031 2.67661L9.91364 2.76174L9.52588 45.12L0.226264 45.0348ZM52.2155 46.1708C49.0557 46.1419 46.2417 45.4761 43.7735 44.1734C41.3457 42.8312 39.4424 40.9937 38.0637 38.6609C36.685 36.3282 36.009 33.7019 36.0357 30.782C36.0625 27.8622 36.7662 25.2685 38.1471 23.001C39.5682 20.694 41.4648 18.8912 43.8368 17.5929C46.2088 16.2946 48.8747 15.6589 51.8346 15.686C54.7145 15.7124 57.2487 16.3556 59.4372 17.6157C61.6258 18.8758 63.33 20.6115 64.5498 22.8227C65.8096 25.0344 66.4265 27.5601 66.4005 30.4C66.3957 30.92 66.3506 31.4796 66.2651 32.0788C66.22 32.6384 66.114 33.2975 65.947 34.056L40.8075 33.8859L40.8652 27.5861L62.1049 27.7206L58.1209 30.3242C58.0962 28.6439 57.8489 27.2616 57.3788 26.1772C56.9091 25.0529 56.1968 24.2063 55.2419 23.6376C54.3275 23.0292 53.1903 22.7187 51.8303 22.7063C50.3904 22.6931 49.1273 23.0216 48.0411 23.6916C46.9953 24.3221 46.1669 25.2346 45.556 26.429C44.985 27.6238 44.6917 29.0812 44.6759 30.8011C44.6602 32.5211 44.9466 34.0037 45.5352 35.2492C46.1642 36.455 47.0356 37.403 48.1493 38.0932C49.3034 38.7438 50.6604 39.0763 52.2204 39.0905C53.6603 39.1037 54.9624 38.8756 56.1268 38.4063C57.2915 37.8969 58.3184 37.1463 59.2075 36.1544L64.2012 41.2403C62.7459 42.9071 60.9944 44.1511 58.9468 44.9724C56.8992 45.7937 54.6554 46.1931 52.2155 46.1708ZM89.9511 45.8562L90.1032 29.2369C90.1172 27.717 89.6483 26.4926 88.6968 25.5639C87.7856 24.5955 86.6101 24.1047 85.1701 24.0915C84.1702 24.0824 83.2882 24.2943 82.5242 24.7273C81.7606 25.1204 81.1551 25.7149 80.7078 26.5108C80.2609 27.2667 80.0328 28.1447 80.0237 29.1446L76.4997 27.3723C76.5206 25.0924 77.0389 23.0971 78.0546 21.3863C79.0703 19.6755 80.4623 18.3682 82.2307 17.4644C84.0394 16.5209 86.0637 16.0594 88.3036 16.0799C90.4635 16.0997 92.3587 16.637 93.9891 17.692C95.6599 18.7073 96.9675 20.0594 97.9121 21.7481C98.8567 23.4368 99.3198 25.2811 99.3015 27.281L99.1307 45.9403L89.9511 45.8562ZM70.6919 45.6799L70.9588 16.5211L80.1385 16.6052L79.8715 45.7639L70.6919 45.6799ZM119.42 46.786C116.26 46.7571 113.446 46.0913 110.978 44.7887C108.55 43.4464 106.647 41.6089 105.268 39.2762C103.889 36.9434 103.213 34.3171 103.24 31.3973C103.267 28.4774 103.97 25.8837 105.351 23.6163C106.772 21.3092 108.669 19.5065 111.041 18.2081C113.413 16.9098 116.079 16.2742 119.039 16.3012C121.919 16.3276 124.453 16.9708 126.641 18.2309C128.83 19.491 130.534 21.2267 131.754 23.4379C133.014 25.6496 133.631 28.1753 133.605 31.0152C133.6 31.5352 133.555 32.0948 133.469 32.694C133.424 33.2536 133.318 33.9127 133.151 34.6712L108.012 34.5011L108.069 28.2013L129.309 28.3358L125.325 30.9394C125.3 29.2591 125.053 27.8768 124.583 26.7924C124.113 25.6681 123.401 24.8215 122.446 24.2528C121.532 23.6444 120.394 23.334 119.035 23.3215C117.595 23.3083 116.332 23.6368 115.245 24.3069C114.2 24.9373 113.371 25.8498 112.76 27.0442C112.189 28.239 111.896 29.6964 111.88 31.4164C111.864 33.1363 112.151 34.619 112.739 35.8644C113.368 37.0702 114.24 38.0182 115.354 38.7085C116.508 39.359 117.865 39.6915 119.425 39.7058C120.865 39.7189 122.167 39.4909 123.331 39.0215C124.496 38.5121 125.523 37.7615 126.412 36.7696L131.405 41.8555C129.95 43.5223 128.199 44.7663 126.151 45.5876C124.103 46.4089 121.86 46.8084 119.42 46.786ZM140.971 46.3233L141.267 14.0446C141.287 11.8047 141.806 9.78939 142.822 7.99861C143.839 6.20785 145.252 4.80072 147.061 3.77724C148.911 2.71413 151.096 2.19411 153.616 2.21718C154.976 2.22963 156.214 2.42097 157.331 2.79121C158.447 3.16144 159.522 3.75131 160.555 4.56079L155.933 11.2388C155.536 10.9551 155.138 10.7515 154.739 10.6278C154.38 10.5045 153.98 10.4409 153.541 10.4368C152.541 10.4277 151.778 10.7207 151.252 11.3159C150.727 11.8711 150.46 12.6487 150.451 13.6487L150.151 46.4073L140.971 46.3233ZM134.747 24.9054L134.819 17.1057L164.157 17.3743L164.086 25.174L134.747 24.9054ZM160.051 46.4979L160.318 17.3392L169.497 17.4232L169.23 46.582L160.051 46.4979ZM164.957 15.2815C163.597 15.2691 162.461 14.7987 161.549 13.8703C160.678 12.9023 160.249 11.7383 160.261 10.3784C160.274 9.01841 160.724 7.88249 161.613 6.97058C162.541 6.05904 163.685 5.60949 165.045 5.62194C166.445 5.63476 167.581 6.10518 168.452 7.03319C169.324 7.96121 169.753 9.10519 169.741 10.4651C169.728 11.8251 169.278 12.981 168.389 13.9329C167.501 14.8448 166.357 15.2944 164.957 15.2815ZM179.769 46.6785L180.146 5.46017L189.326 5.54421L188.948 46.7625L179.769 46.6785ZM173.365 25.2589L173.436 17.4593L195.815 17.6641L195.744 25.4638L173.365 25.2589ZM209.62 47.6718C207.9 47.656 206.202 47.4205 204.526 46.9651C202.89 46.5101 201.356 45.876 199.923 45.0629C198.531 44.2101 197.34 43.2392 196.35 42.15L201.618 36.918C202.568 37.9668 203.701 38.7972 205.015 39.4093C206.33 39.9813 207.767 40.2745 209.327 40.2888C210.407 40.2986 211.229 40.1462 211.792 39.8313C212.395 39.5168 212.699 39.0796 212.704 38.5196C212.71 37.7996 212.355 37.2564 211.639 36.8898C210.962 36.4836 210.085 36.1355 209.008 35.8457C207.931 35.5158 206.794 35.1654 205.598 34.7944C204.401 34.4234 203.265 33.913 202.191 33.2631C201.117 32.6133 200.245 31.7253 199.576 30.5991C198.906 29.4329 198.58 27.9699 198.596 26.2099C198.613 24.33 199.108 22.7145 200.08 21.3633C201.053 19.9722 202.423 18.8847 204.19 18.1008C205.958 17.317 208.021 16.9358 210.381 16.9574C212.861 16.9801 215.137 17.441 217.209 18.34C219.321 19.1994 221.029 20.4751 222.334 22.1671L217.066 27.3991C216.156 26.3107 215.123 25.5412 213.967 25.0906C212.851 24.6404 211.753 24.4103 210.673 24.4004C209.633 24.3909 208.852 24.5437 208.329 24.859C207.806 25.1342 207.542 25.5518 207.537 26.1118C207.532 26.7118 207.867 27.1948 208.544 27.5611C209.221 27.9273 210.098 28.2553 211.175 28.5452C212.252 28.8351 213.389 29.1855 214.585 29.5964C215.782 30.0074 216.917 30.5578 217.991 31.2477C219.064 31.9375 219.936 32.8656 220.605 34.0317C221.275 35.1579 221.601 36.641 221.584 38.4809C221.558 41.3208 220.458 43.5708 218.283 45.2309C216.147 46.8915 213.26 47.7051 209.62 47.6718Z" fill="#F2F2F2"/>
</svg>
