<svg width="616" height="545" viewBox="0 0 616 545" fill="none" xmlns="http://www.w3.org/2000/svg">
<g clip-path="url(#clip0_369_154)">
<path d="M1 1H615V544H1V1Z" fill="white"/>
<line x1="-19" y1="543.75" x2="698" y2="543.75" stroke="black" stroke-opacity="0.29" stroke-width="0.5"/>
<g filter="url(#filter0_b_369_154)">
<rect width="659" height="65" transform="translate(-22 1)" fill="#2CCBBB"/>
<path d="M248.792 34.2881H246.201V32.9277H248.792C249.243 32.9277 249.608 32.8548 249.886 32.709C250.164 32.5632 250.367 32.3626 250.494 32.1074C250.626 31.8477 250.692 31.5514 250.692 31.2188C250.692 30.9043 250.626 30.6104 250.494 30.3369C250.367 30.0589 250.164 29.8356 249.886 29.667C249.608 29.4984 249.243 29.4141 248.792 29.4141H246.728V38H245.012V28.0469H248.792C249.562 28.0469 250.216 28.1836 250.754 28.457C251.296 28.7259 251.709 29.0996 251.991 29.5781C252.274 30.0521 252.415 30.5944 252.415 31.2051C252.415 31.8477 252.274 32.3991 251.991 32.8594C251.709 33.3197 251.296 33.6729 250.754 33.9189C250.216 34.165 249.562 34.2881 248.792 34.2881ZM255.553 30.6035V38H253.898V30.6035H255.553ZM253.789 28.6621C253.789 28.4115 253.871 28.2041 254.035 28.04C254.204 27.8714 254.436 27.7871 254.732 27.7871C255.024 27.7871 255.254 27.8714 255.423 28.04C255.591 28.2041 255.676 28.4115 255.676 28.6621C255.676 28.9082 255.591 29.1133 255.423 29.2773C255.254 29.4414 255.024 29.5234 254.732 29.5234C254.436 29.5234 254.204 29.4414 254.035 29.2773C253.871 29.1133 253.789 28.9082 253.789 28.6621ZM260.379 36.8242C260.648 36.8242 260.889 36.7718 261.104 36.667C261.322 36.5576 261.498 36.4072 261.63 36.2158C261.767 36.0244 261.842 35.8034 261.855 35.5527H263.407C263.398 36.0312 263.257 36.4665 262.983 36.8584C262.71 37.2503 262.348 37.5625 261.896 37.7949C261.445 38.0228 260.946 38.1367 260.399 38.1367C259.834 38.1367 259.342 38.041 258.923 37.8496C258.504 37.6536 258.155 37.3848 257.877 37.043C257.599 36.7012 257.389 36.307 257.248 35.8604C257.111 35.4137 257.043 34.9352 257.043 34.4248V34.1855C257.043 33.6751 257.111 33.1966 257.248 32.75C257.389 32.2988 257.599 31.9023 257.877 31.5605C258.155 31.2188 258.504 30.9521 258.923 30.7607C259.342 30.5648 259.832 30.4668 260.393 30.4668C260.985 30.4668 261.505 30.5853 261.951 30.8223C262.398 31.0547 262.749 31.3805 263.004 31.7998C263.264 32.2145 263.398 32.6976 263.407 33.249H261.855C261.842 32.9756 261.773 32.7295 261.65 32.5107C261.532 32.2874 261.363 32.1097 261.145 31.9775C260.93 31.8454 260.673 31.7793 260.372 31.7793C260.039 31.7793 259.764 31.8477 259.545 31.9844C259.326 32.1165 259.155 32.2988 259.032 32.5312C258.909 32.7591 258.82 33.0166 258.766 33.3037C258.715 33.5863 258.69 33.8802 258.69 34.1855V34.4248C258.69 34.7301 258.715 35.0264 258.766 35.3135C258.816 35.6006 258.902 35.8581 259.025 36.0859C259.153 36.3092 259.326 36.4893 259.545 36.626C259.764 36.7581 260.042 36.8242 260.379 36.8242ZM266.333 27.5V38H264.679V27.5H266.333ZM270.927 30.6035L267.707 34.1719L265.943 35.9766L265.513 34.582L266.846 32.9346L268.938 30.6035H270.927ZM269.293 38L266.894 34.5273L267.933 33.3721L271.2 38H269.293ZM276.423 36.2568V30.6035H278.077V38H276.519L276.423 36.2568ZM276.655 34.7188L277.209 34.7051C277.209 35.2018 277.154 35.6598 277.045 36.0791C276.936 36.4938 276.767 36.8561 276.539 37.166C276.311 37.4714 276.02 37.7106 275.664 37.8838C275.309 38.0524 274.882 38.1367 274.386 38.1367C274.026 38.1367 273.695 38.0843 273.395 37.9795C273.094 37.8747 272.834 37.7129 272.615 37.4941C272.401 37.2754 272.235 36.9906 272.116 36.6396C271.998 36.2887 271.938 35.8695 271.938 35.3818V30.6035H273.586V35.3955C273.586 35.6644 273.618 35.89 273.682 36.0723C273.745 36.25 273.832 36.3936 273.941 36.5029C274.051 36.6123 274.178 36.6898 274.324 36.7354C274.47 36.7809 274.625 36.8037 274.789 36.8037C275.258 36.8037 275.628 36.7126 275.896 36.5303C276.17 36.3434 276.364 36.0928 276.478 35.7783C276.596 35.4639 276.655 35.1107 276.655 34.7188ZM281.42 32.0254V40.8438H279.772V30.6035H281.29L281.42 32.0254ZM286.239 34.2334V34.377C286.239 34.9147 286.175 35.4137 286.048 35.874C285.925 36.3298 285.74 36.7285 285.494 37.0703C285.253 37.4076 284.954 37.6696 284.599 37.8564C284.243 38.0433 283.833 38.1367 283.368 38.1367C282.908 38.1367 282.505 38.0524 282.158 37.8838C281.816 37.7106 281.527 37.4668 281.29 37.1523C281.053 36.8379 280.862 36.4688 280.716 36.0449C280.575 35.6165 280.474 35.1471 280.415 34.6367V34.083C280.474 33.5407 280.575 33.0485 280.716 32.6064C280.862 32.1644 281.053 31.7839 281.29 31.4648C281.527 31.1458 281.816 30.8997 282.158 30.7266C282.5 30.5534 282.899 30.4668 283.354 30.4668C283.819 30.4668 284.232 30.5579 284.592 30.7402C284.952 30.918 285.255 31.1732 285.501 31.5059C285.747 31.834 285.932 32.2305 286.055 32.6953C286.178 33.1556 286.239 33.6683 286.239 34.2334ZM284.592 34.377V34.2334C284.592 33.8916 284.56 33.5749 284.496 33.2832C284.432 32.987 284.332 32.7272 284.195 32.5039C284.059 32.2806 283.883 32.1074 283.669 31.9844C283.459 31.8568 283.206 31.793 282.91 31.793C282.618 31.793 282.368 31.8431 282.158 31.9434C281.949 32.0391 281.773 32.1735 281.632 32.3467C281.491 32.5199 281.381 32.7227 281.304 32.9551C281.226 33.1829 281.172 33.4313 281.14 33.7002V35.0264C281.194 35.3545 281.288 35.6553 281.42 35.9287C281.552 36.2021 281.739 36.4209 281.98 36.585C282.227 36.7445 282.541 36.8242 282.924 36.8242C283.22 36.8242 283.473 36.7604 283.683 36.6328C283.892 36.5052 284.063 36.3298 284.195 36.1064C284.332 35.8786 284.432 35.6165 284.496 35.3203C284.56 35.0241 284.592 34.7096 284.592 34.377ZM297.525 36.6396V38H292.528V36.6396H297.525ZM293.007 28.0469V38H291.291V28.0469H293.007ZM298.373 34.3838V34.2266C298.373 33.6934 298.451 33.1989 298.605 32.7432C298.76 32.2829 298.984 31.8841 299.275 31.5469C299.572 31.2051 299.932 30.9408 300.355 30.7539C300.784 30.5625 301.267 30.4668 301.805 30.4668C302.347 30.4668 302.83 30.5625 303.254 30.7539C303.682 30.9408 304.045 31.2051 304.341 31.5469C304.637 31.8841 304.863 32.2829 305.018 32.7432C305.173 33.1989 305.25 33.6934 305.25 34.2266V34.3838C305.25 34.917 305.173 35.4115 305.018 35.8672C304.863 36.3229 304.637 36.7217 304.341 37.0635C304.045 37.4007 303.685 37.665 303.261 37.8564C302.837 38.0433 302.356 38.1367 301.818 38.1367C301.276 38.1367 300.791 38.0433 300.362 37.8564C299.938 37.665 299.578 37.4007 299.282 37.0635C298.986 36.7217 298.76 36.3229 298.605 35.8672C298.451 35.4115 298.373 34.917 298.373 34.3838ZM300.021 34.2266V34.3838C300.021 34.7165 300.055 35.0309 300.123 35.3271C300.191 35.6234 300.299 35.8831 300.444 36.1064C300.59 36.3298 300.777 36.5052 301.005 36.6328C301.233 36.7604 301.504 36.8242 301.818 36.8242C302.124 36.8242 302.388 36.7604 302.611 36.6328C302.839 36.5052 303.026 36.3298 303.172 36.1064C303.318 35.8831 303.425 35.6234 303.493 35.3271C303.566 35.0309 303.603 34.7165 303.603 34.3838V34.2266C303.603 33.8984 303.566 33.5885 303.493 33.2969C303.425 33.0007 303.315 32.7386 303.165 32.5107C303.019 32.2829 302.832 32.1051 302.604 31.9775C302.381 31.8454 302.115 31.7793 301.805 31.7793C301.495 31.7793 301.226 31.8454 300.998 31.9775C300.775 32.1051 300.59 32.2829 300.444 32.5107C300.299 32.7386 300.191 33.0007 300.123 33.2969C300.055 33.5885 300.021 33.8984 300.021 34.2266ZM309.652 36.8242C309.921 36.8242 310.163 36.7718 310.377 36.667C310.596 36.5576 310.771 36.4072 310.903 36.2158C311.04 36.0244 311.115 35.8034 311.129 35.5527H312.681C312.672 36.0312 312.53 36.4665 312.257 36.8584C311.983 37.2503 311.621 37.5625 311.17 37.7949C310.719 38.0228 310.22 38.1367 309.673 38.1367C309.108 38.1367 308.616 38.041 308.196 37.8496C307.777 37.6536 307.428 37.3848 307.15 37.043C306.872 36.7012 306.663 36.307 306.521 35.8604C306.385 35.4137 306.316 34.9352 306.316 34.4248V34.1855C306.316 33.6751 306.385 33.1966 306.521 32.75C306.663 32.2988 306.872 31.9023 307.15 31.5605C307.428 31.2188 307.777 30.9521 308.196 30.7607C308.616 30.5648 309.105 30.4668 309.666 30.4668C310.258 30.4668 310.778 30.5853 311.225 30.8223C311.671 31.0547 312.022 31.3805 312.277 31.7998C312.537 32.2145 312.672 32.6976 312.681 33.249H311.129C311.115 32.9756 311.047 32.7295 310.924 32.5107C310.805 32.2874 310.637 32.1097 310.418 31.9775C310.204 31.8454 309.946 31.7793 309.646 31.7793C309.313 31.7793 309.037 31.8477 308.818 31.9844C308.6 32.1165 308.429 32.2988 308.306 32.5312C308.183 32.7591 308.094 33.0166 308.039 33.3037C307.989 33.5863 307.964 33.8802 307.964 34.1855V34.4248C307.964 34.7301 307.989 35.0264 308.039 35.3135C308.089 35.6006 308.176 35.8581 308.299 36.0859C308.426 36.3092 308.6 36.4893 308.818 36.626C309.037 36.7581 309.315 36.8242 309.652 36.8242ZM318.115 36.5166V32.9893C318.115 32.7249 318.067 32.4971 317.972 32.3057C317.876 32.1143 317.73 31.9661 317.534 31.8613C317.343 31.7565 317.101 31.7041 316.81 31.7041C316.541 31.7041 316.308 31.7497 316.112 31.8408C315.916 31.932 315.764 32.055 315.654 32.21C315.545 32.3649 315.49 32.5404 315.49 32.7363H313.85C313.85 32.4447 313.92 32.1621 314.062 31.8887C314.203 31.6152 314.408 31.3714 314.677 31.1572C314.946 30.943 315.267 30.7744 315.641 30.6514C316.014 30.5283 316.434 30.4668 316.898 30.4668C317.454 30.4668 317.947 30.5602 318.375 30.7471C318.808 30.9339 319.147 31.2165 319.394 31.5947C319.644 31.9684 319.77 32.4378 319.77 33.0029V36.291C319.77 36.6283 319.792 36.9313 319.838 37.2002C319.888 37.4645 319.959 37.6947 320.05 37.8906V38H318.361C318.284 37.8223 318.222 37.5967 318.177 37.3232C318.136 37.0452 318.115 36.7764 318.115 36.5166ZM318.354 33.502L318.368 34.5205H317.186C316.88 34.5205 316.611 34.5501 316.379 34.6094C316.146 34.6641 315.953 34.7461 315.798 34.8555C315.643 34.9648 315.527 35.097 315.449 35.252C315.372 35.4069 315.333 35.5824 315.333 35.7783C315.333 35.9743 315.379 36.1543 315.47 36.3184C315.561 36.4779 315.693 36.6032 315.866 36.6943C316.044 36.7855 316.258 36.8311 316.509 36.8311C316.846 36.8311 317.14 36.7627 317.391 36.626C317.646 36.4847 317.846 36.3138 317.992 36.1133C318.138 35.9082 318.215 35.7145 318.225 35.5322L318.758 36.2637C318.703 36.4505 318.61 36.651 318.478 36.8652C318.345 37.0794 318.172 37.2845 317.958 37.4805C317.748 37.6719 317.495 37.8291 317.199 37.9521C316.908 38.0752 316.57 38.1367 316.188 38.1367C315.704 38.1367 315.274 38.041 314.896 37.8496C314.517 37.6536 314.221 37.3916 314.007 37.0635C313.793 36.7308 313.686 36.3548 313.686 35.9355C313.686 35.5436 313.758 35.1973 313.904 34.8965C314.055 34.5911 314.273 34.3359 314.561 34.1309C314.852 33.9258 315.208 33.7708 315.627 33.666C316.046 33.5566 316.525 33.502 317.062 33.502H318.354ZM324.883 30.6035V31.8066H320.713V30.6035H324.883ZM321.916 28.792H323.563V35.9561C323.563 36.1839 323.595 36.3594 323.659 36.4824C323.728 36.6009 323.821 36.6807 323.939 36.7217C324.058 36.7627 324.197 36.7832 324.356 36.7832C324.47 36.7832 324.58 36.7764 324.685 36.7627C324.789 36.749 324.874 36.7354 324.938 36.7217L324.944 37.9795C324.808 38.0205 324.648 38.057 324.466 38.0889C324.288 38.1208 324.083 38.1367 323.851 38.1367C323.472 38.1367 323.137 38.0706 322.846 37.9385C322.554 37.8018 322.326 37.5807 322.162 37.2754C321.998 36.9701 321.916 36.5645 321.916 36.0586V28.792ZM327.918 30.6035V38H326.264V30.6035H327.918ZM326.154 28.6621C326.154 28.4115 326.236 28.2041 326.4 28.04C326.569 27.8714 326.801 27.7871 327.098 27.7871C327.389 27.7871 327.619 27.8714 327.788 28.04C327.957 28.2041 328.041 28.4115 328.041 28.6621C328.041 28.9082 327.957 29.1133 327.788 29.2773C327.619 29.4414 327.389 29.5234 327.098 29.5234C326.801 29.5234 326.569 29.4414 326.4 29.2773C326.236 29.1133 326.154 28.9082 326.154 28.6621ZM329.408 34.3838V34.2266C329.408 33.6934 329.486 33.1989 329.641 32.7432C329.796 32.2829 330.019 31.8841 330.311 31.5469C330.607 31.2051 330.967 30.9408 331.391 30.7539C331.819 30.5625 332.302 30.4668 332.84 30.4668C333.382 30.4668 333.865 30.5625 334.289 30.7539C334.717 30.9408 335.08 31.2051 335.376 31.5469C335.672 31.8841 335.898 32.2829 336.053 32.7432C336.208 33.1989 336.285 33.6934 336.285 34.2266V34.3838C336.285 34.917 336.208 35.4115 336.053 35.8672C335.898 36.3229 335.672 36.7217 335.376 37.0635C335.08 37.4007 334.72 37.665 334.296 37.8564C333.872 38.0433 333.391 38.1367 332.854 38.1367C332.311 38.1367 331.826 38.0433 331.397 37.8564C330.974 37.665 330.614 37.4007 330.317 37.0635C330.021 36.7217 329.796 36.3229 329.641 35.8672C329.486 35.4115 329.408 34.917 329.408 34.3838ZM331.056 34.2266V34.3838C331.056 34.7165 331.09 35.0309 331.158 35.3271C331.227 35.6234 331.334 35.8831 331.479 36.1064C331.625 36.3298 331.812 36.5052 332.04 36.6328C332.268 36.7604 332.539 36.8242 332.854 36.8242C333.159 36.8242 333.423 36.7604 333.646 36.6328C333.874 36.5052 334.061 36.3298 334.207 36.1064C334.353 35.8831 334.46 35.6234 334.528 35.3271C334.601 35.0309 334.638 34.7165 334.638 34.3838V34.2266C334.638 33.8984 334.601 33.5885 334.528 33.2969C334.46 33.0007 334.351 32.7386 334.2 32.5107C334.054 32.2829 333.868 32.1051 333.64 31.9775C333.416 31.8454 333.15 31.7793 332.84 31.7793C332.53 31.7793 332.261 31.8454 332.033 31.9775C331.81 32.1051 331.625 32.2829 331.479 32.5107C331.334 32.7386 331.227 33.0007 331.158 33.2969C331.09 33.5885 331.056 33.8984 331.056 34.2266ZM339.3 32.1826V38H337.652V30.6035H339.204L339.3 32.1826ZM339.006 34.0283L338.473 34.0215C338.477 33.4974 338.55 33.0166 338.691 32.5791C338.837 32.1416 339.038 31.7656 339.293 31.4512C339.553 31.1367 339.863 30.8952 340.223 30.7266C340.583 30.5534 340.984 30.4668 341.426 30.4668C341.781 30.4668 342.103 30.5169 342.39 30.6172C342.681 30.7129 342.93 30.8701 343.135 31.0889C343.344 31.3076 343.504 31.5924 343.613 31.9434C343.723 32.2897 343.777 32.7158 343.777 33.2217V38H342.123V33.2148C342.123 32.8594 342.071 32.5791 341.966 32.374C341.866 32.1644 341.717 32.0163 341.521 31.9297C341.33 31.8385 341.091 31.793 340.804 31.793C340.521 31.793 340.268 31.8522 340.045 31.9707C339.822 32.0892 339.632 32.251 339.478 32.4561C339.327 32.6611 339.211 32.8981 339.129 33.167C339.047 33.4359 339.006 33.723 339.006 34.0283Z" fill="white"/>
</g>
<g filter="url(#filter1_b_369_154)">
<rect x="161" y="135" width="155" height="38" rx="5" fill="#2CCBBB"/>
<path d="M210.064 159V149.2H211.184L211.674 151.048V159H210.064ZM216.854 159L210.988 151.342L211.184 149.2L217.05 156.858L216.854 159ZM216.854 159L216.364 157.278V149.2H217.974V159H216.854ZM222.703 159.14C222.096 159.14 221.546 158.986 221.051 158.678C220.566 158.37 220.178 157.955 219.889 157.432C219.609 156.9 219.469 156.307 219.469 155.654C219.469 154.991 219.609 154.399 219.889 153.876C220.178 153.344 220.566 152.924 221.051 152.616C221.546 152.299 222.096 152.14 222.703 152.14C223.216 152.14 223.669 152.252 224.061 152.476C224.462 152.691 224.78 152.989 225.013 153.372C225.246 153.755 225.363 154.189 225.363 154.674V156.606C225.363 157.091 225.246 157.525 225.013 157.908C224.789 158.291 224.476 158.594 224.075 158.818C223.674 159.033 223.216 159.14 222.703 159.14ZM222.955 157.684C223.524 157.684 223.982 157.493 224.327 157.11C224.682 156.727 224.859 156.237 224.859 155.64C224.859 155.239 224.78 154.884 224.621 154.576C224.462 154.268 224.238 154.03 223.949 153.862C223.669 153.685 223.338 153.596 222.955 153.596C222.582 153.596 222.25 153.685 221.961 153.862C221.681 154.03 221.457 154.268 221.289 154.576C221.13 154.884 221.051 155.239 221.051 155.64C221.051 156.041 221.13 156.396 221.289 156.704C221.457 157.012 221.681 157.255 221.961 157.432C222.25 157.6 222.582 157.684 222.955 157.684ZM224.761 159V157.194L225.027 155.556L224.761 153.932V152.28H226.301V159H224.761ZM228.024 159V152.28H229.564V159H228.024ZM228.794 151.048C228.533 151.048 228.314 150.959 228.136 150.782C227.968 150.605 227.884 150.385 227.884 150.124C227.884 149.863 227.968 149.643 228.136 149.466C228.314 149.289 228.533 149.2 228.794 149.2C229.065 149.2 229.284 149.289 229.452 149.466C229.62 149.643 229.704 149.863 229.704 150.124C229.704 150.385 229.62 150.605 229.452 150.782C229.284 150.959 229.065 151.048 228.794 151.048ZM231.292 159V152.28H232.832V159H231.292ZM232.832 155.262L232.3 154.996C232.3 154.147 232.486 153.461 232.86 152.938C233.242 152.406 233.816 152.14 234.582 152.14C234.918 152.14 235.221 152.201 235.492 152.322C235.762 152.443 236.014 152.639 236.248 152.91L235.24 153.946C235.118 153.815 234.983 153.722 234.834 153.666C234.684 153.61 234.512 153.582 234.316 153.582C233.886 153.582 233.532 153.717 233.252 153.988C232.972 154.259 232.832 154.683 232.832 155.262ZM239.868 159.14C239.214 159.14 238.622 158.986 238.09 158.678C237.558 158.361 237.133 157.936 236.816 157.404C236.508 156.872 236.354 156.279 236.354 155.626C236.354 154.973 236.508 154.385 236.816 153.862C237.133 153.339 237.558 152.924 238.09 152.616C238.622 152.299 239.214 152.14 239.868 152.14C240.53 152.14 241.128 152.294 241.66 152.602C242.192 152.91 242.612 153.33 242.92 153.862C243.237 154.385 243.396 154.973 243.396 155.626C243.396 156.279 243.237 156.872 242.92 157.404C242.612 157.936 242.192 158.361 241.66 158.678C241.128 158.986 240.53 159.14 239.868 159.14ZM239.868 157.656C240.25 157.656 240.586 157.572 240.876 157.404C241.174 157.227 241.403 156.984 241.562 156.676C241.73 156.368 241.814 156.018 241.814 155.626C241.814 155.234 241.73 154.889 241.562 154.59C241.394 154.291 241.165 154.058 240.876 153.89C240.586 153.713 240.25 153.624 239.868 153.624C239.494 153.624 239.158 153.713 238.86 153.89C238.57 154.058 238.342 154.291 238.174 154.59C238.015 154.889 237.936 155.234 237.936 155.626C237.936 156.018 238.015 156.368 238.174 156.676C238.342 156.984 238.57 157.227 238.86 157.404C239.158 157.572 239.494 157.656 239.868 157.656ZM248.274 159.14C247.761 159.14 247.304 159.033 246.902 158.818C246.501 158.594 246.184 158.291 245.95 157.908C245.726 157.525 245.614 157.091 245.614 156.606V154.674C245.614 154.189 245.731 153.755 245.964 153.372C246.198 152.989 246.515 152.691 246.916 152.476C247.318 152.252 247.77 152.14 248.274 152.14C248.881 152.14 249.427 152.299 249.912 152.616C250.407 152.924 250.794 153.344 251.074 153.876C251.364 154.399 251.508 154.991 251.508 155.654C251.508 156.307 251.364 156.9 251.074 157.432C250.794 157.955 250.407 158.37 249.912 158.678C249.427 158.986 248.881 159.14 248.274 159.14ZM248.022 157.684C248.396 157.684 248.722 157.6 249.002 157.432C249.292 157.255 249.516 157.012 249.674 156.704C249.842 156.396 249.926 156.041 249.926 155.64C249.926 155.239 249.842 154.884 249.674 154.576C249.516 154.268 249.292 154.03 249.002 153.862C248.722 153.685 248.396 153.596 248.022 153.596C247.649 153.596 247.318 153.685 247.028 153.862C246.739 154.03 246.515 154.268 246.356 154.576C246.198 154.884 246.118 155.239 246.118 155.64C246.118 156.041 246.198 156.396 246.356 156.704C246.515 157.012 246.739 157.255 247.028 157.432C247.318 157.6 247.649 157.684 248.022 157.684ZM244.676 159V148.92H246.216V153.932L245.95 155.556L246.216 157.194V159H244.676ZM252.811 159V152.28H254.351V159H252.811ZM253.581 151.048C253.32 151.048 253.101 150.959 252.923 150.782C252.755 150.605 252.671 150.385 252.671 150.124C252.671 149.863 252.755 149.643 252.923 149.466C253.101 149.289 253.32 149.2 253.581 149.2C253.852 149.2 254.071 149.289 254.239 149.466C254.407 149.643 254.491 149.863 254.491 150.124C254.491 150.385 254.407 150.605 254.239 150.782C254.071 150.959 253.852 151.048 253.581 151.048Z" fill="white"/>
<path d="M50.8906 150.76H52.5996C52.5449 151.411 52.3626 151.993 52.0527 152.503C51.7428 153.009 51.3076 153.408 50.7471 153.699C50.1865 153.991 49.5052 154.137 48.7031 154.137C48.0879 154.137 47.5342 154.027 47.042 153.809C46.5498 153.585 46.1283 153.271 45.7773 152.865C45.4264 152.455 45.1576 151.961 44.9707 151.382C44.7884 150.803 44.6973 150.156 44.6973 149.44V148.613C44.6973 147.898 44.7907 147.251 44.9775 146.672C45.1689 146.093 45.4424 145.599 45.7979 145.188C46.1533 144.774 46.5794 144.457 47.0762 144.238C47.5775 144.02 48.1403 143.91 48.7646 143.91C49.5576 143.91 50.2275 144.056 50.7744 144.348C51.3213 144.639 51.7451 145.043 52.0459 145.558C52.3512 146.073 52.5381 146.663 52.6064 147.328H50.8975C50.8519 146.9 50.7516 146.533 50.5967 146.228C50.4463 145.922 50.223 145.69 49.9268 145.53C49.6305 145.366 49.2432 145.284 48.7646 145.284C48.3727 145.284 48.0309 145.357 47.7393 145.503C47.4476 145.649 47.2038 145.863 47.0078 146.146C46.8118 146.428 46.6637 146.777 46.5635 147.191C46.4678 147.602 46.4199 148.071 46.4199 148.6V149.44C46.4199 149.942 46.4632 150.397 46.5498 150.808C46.641 151.213 46.7777 151.562 46.96 151.854C47.1468 152.145 47.3838 152.371 47.6709 152.53C47.958 152.69 48.3021 152.77 48.7031 152.77C49.1908 152.77 49.585 152.692 49.8857 152.537C50.1911 152.382 50.4212 152.157 50.5762 151.86C50.7357 151.56 50.8405 151.193 50.8906 150.76ZM55.7578 146.604V154H54.1035V146.604H55.7578ZM53.9941 144.662C53.9941 144.411 54.0762 144.204 54.2402 144.04C54.4089 143.871 54.6413 143.787 54.9375 143.787C55.2292 143.787 55.4593 143.871 55.6279 144.04C55.7965 144.204 55.8809 144.411 55.8809 144.662C55.8809 144.908 55.7965 145.113 55.6279 145.277C55.4593 145.441 55.2292 145.523 54.9375 145.523C54.6413 145.523 54.4089 145.441 54.2402 145.277C54.0762 145.113 53.9941 144.908 53.9941 144.662ZM60.9531 146.604V147.807H56.7832V146.604H60.9531ZM57.9863 144.792H59.6338V151.956C59.6338 152.184 59.6657 152.359 59.7295 152.482C59.7979 152.601 59.8913 152.681 60.0098 152.722C60.1283 152.763 60.2673 152.783 60.4268 152.783C60.5407 152.783 60.6501 152.776 60.7549 152.763C60.8597 152.749 60.944 152.735 61.0078 152.722L61.0146 153.979C60.8779 154.021 60.7184 154.057 60.5361 154.089C60.3584 154.121 60.1533 154.137 59.9209 154.137C59.5426 154.137 59.2077 154.071 58.916 153.938C58.6243 153.802 58.3965 153.581 58.2324 153.275C58.0684 152.97 57.9863 152.564 57.9863 152.059V144.792ZM64.3711 153.193L66.3809 146.604H68.1445L65.1777 155.128C65.1094 155.31 65.0205 155.508 64.9111 155.723C64.8018 155.937 64.6582 156.14 64.4805 156.331C64.3073 156.527 64.0908 156.684 63.8311 156.803C63.5713 156.926 63.2568 156.987 62.8877 156.987C62.7419 156.987 62.6006 156.974 62.4639 156.946C62.3317 156.924 62.2064 156.898 62.0879 156.871L62.0811 155.613C62.1266 155.618 62.1813 155.622 62.2451 155.627C62.3135 155.632 62.3682 155.634 62.4092 155.634C62.6826 155.634 62.9105 155.6 63.0928 155.531C63.2751 155.467 63.4232 155.363 63.5371 155.217C63.6556 155.071 63.7559 154.875 63.8379 154.629L64.3711 153.193ZM63.2363 146.604L64.9932 152.141L65.2871 153.877L64.1455 154.171L61.459 146.604H63.2363ZM73.415 144.047L69.5391 154.854H68.2471L72.1299 144.047H73.415ZM78.8154 144.047V154H77.1133V144.047H78.8154ZM81.9395 144.047V145.414H74.0166V144.047H81.9395ZM81.8164 150.384V150.227C81.8164 149.693 81.8939 149.199 82.0488 148.743C82.2038 148.283 82.4271 147.884 82.7188 147.547C83.015 147.205 83.375 146.941 83.7988 146.754C84.2272 146.562 84.7103 146.467 85.248 146.467C85.7904 146.467 86.2734 146.562 86.6973 146.754C87.1257 146.941 87.488 147.205 87.7842 147.547C88.0804 147.884 88.306 148.283 88.4609 148.743C88.6159 149.199 88.6934 149.693 88.6934 150.227V150.384C88.6934 150.917 88.6159 151.411 88.4609 151.867C88.306 152.323 88.0804 152.722 87.7842 153.063C87.488 153.401 87.1279 153.665 86.7041 153.856C86.2803 154.043 85.7995 154.137 85.2617 154.137C84.7194 154.137 84.234 154.043 83.8057 153.856C83.3818 153.665 83.0218 153.401 82.7256 153.063C82.4294 152.722 82.2038 152.323 82.0488 151.867C81.8939 151.411 81.8164 150.917 81.8164 150.384ZM83.4639 150.227V150.384C83.4639 150.716 83.498 151.031 83.5664 151.327C83.6348 151.623 83.7419 151.883 83.8877 152.106C84.0335 152.33 84.2204 152.505 84.4482 152.633C84.6761 152.76 84.9473 152.824 85.2617 152.824C85.5671 152.824 85.8314 152.76 86.0547 152.633C86.2826 152.505 86.4694 152.33 86.6152 152.106C86.7611 151.883 86.8682 151.623 86.9365 151.327C87.0094 151.031 87.0459 150.716 87.0459 150.384V150.227C87.0459 149.898 87.0094 149.589 86.9365 149.297C86.8682 149.001 86.7588 148.739 86.6084 148.511C86.4626 148.283 86.2757 148.105 86.0479 147.978C85.8245 147.845 85.5579 147.779 85.248 147.779C84.9382 147.779 84.6693 147.845 84.4414 147.978C84.2181 148.105 84.0335 148.283 83.8877 148.511C83.7419 148.739 83.6348 149.001 83.5664 149.297C83.498 149.589 83.4639 149.898 83.4639 150.227ZM92.084 152.359L93.793 146.604H94.8457L94.5586 148.326L92.8359 154H91.8926L92.084 152.359ZM91.0791 146.604L92.4121 152.387L92.5215 154H91.4688L89.4658 146.604H91.0791ZM96.4453 152.318L97.7373 146.604H99.3438L97.3477 154H96.2949L96.4453 152.318ZM95.0234 146.604L96.7119 152.291L96.9238 154H95.9805L94.2373 148.319L93.9502 146.604H95.0234ZM102.099 148.183V154H100.451V146.604H102.003L102.099 148.183ZM101.805 150.028L101.271 150.021C101.276 149.497 101.349 149.017 101.49 148.579C101.636 148.142 101.837 147.766 102.092 147.451C102.352 147.137 102.661 146.895 103.021 146.727C103.382 146.553 103.783 146.467 104.225 146.467C104.58 146.467 104.901 146.517 105.188 146.617C105.48 146.713 105.729 146.87 105.934 147.089C106.143 147.308 106.303 147.592 106.412 147.943C106.521 148.29 106.576 148.716 106.576 149.222V154H104.922V149.215C104.922 148.859 104.869 148.579 104.765 148.374C104.664 148.164 104.516 148.016 104.32 147.93C104.129 147.839 103.89 147.793 103.603 147.793C103.32 147.793 103.067 147.852 102.844 147.971C102.62 148.089 102.431 148.251 102.276 148.456C102.126 148.661 102.01 148.898 101.928 149.167C101.846 149.436 101.805 149.723 101.805 150.028Z" fill="black"/>
</g>
<g filter="url(#filter2_b_369_154)">
<rect x="210" y="313" width="155" height="38" rx="5" fill="#2CCBBB"/>
<path d="M258.392 333.5L261.878 327.2H263.698L260.128 333.5H258.392ZM258.392 334.48V333.5L259.078 333.038H265.994V334.48H258.392ZM263.04 337V330.588H264.622V337H263.04ZM268.271 337.14C267.972 337.14 267.725 337.042 267.529 336.846C267.342 336.641 267.249 336.393 267.249 336.104C267.249 335.805 267.342 335.558 267.529 335.362C267.725 335.166 267.972 335.068 268.271 335.068C268.57 335.068 268.812 335.166 268.999 335.362C269.195 335.558 269.293 335.805 269.293 336.104C269.293 336.393 269.195 336.641 268.999 336.846C268.812 337.042 268.57 337.14 268.271 337.14ZM268.271 332.814C267.972 332.814 267.725 332.716 267.529 332.52C267.342 332.315 267.249 332.067 267.249 331.778C267.249 331.479 267.342 331.232 267.529 331.036C267.725 330.84 267.972 330.742 268.271 330.742C268.57 330.742 268.812 330.84 268.999 331.036C269.195 331.232 269.293 331.479 269.293 331.778C269.293 332.067 269.195 332.315 268.999 332.52C268.812 332.716 268.57 332.814 268.271 332.814ZM274.634 337.14C274.12 337.14 273.663 337.033 273.262 336.818C272.86 336.594 272.543 336.291 272.31 335.908C272.086 335.525 271.974 335.091 271.974 334.606V332.674C271.974 332.189 272.09 331.755 272.324 331.372C272.557 330.989 272.874 330.691 273.276 330.476C273.677 330.252 274.13 330.14 274.634 330.14C275.24 330.14 275.786 330.299 276.272 330.616C276.766 330.924 277.154 331.344 277.434 331.876C277.723 332.399 277.868 332.991 277.868 333.654C277.868 334.307 277.723 334.9 277.434 335.432C277.154 335.955 276.766 336.37 276.272 336.678C275.786 336.986 275.24 337.14 274.634 337.14ZM274.382 335.684C274.755 335.684 275.082 335.6 275.362 335.432C275.651 335.255 275.875 335.012 276.034 334.704C276.202 334.396 276.286 334.041 276.286 333.64C276.286 333.239 276.202 332.884 276.034 332.576C275.875 332.268 275.651 332.03 275.362 331.862C275.082 331.685 274.755 331.596 274.382 331.596C274.008 331.596 273.677 331.685 273.388 331.862C273.098 332.03 272.874 332.268 272.716 332.576C272.557 332.884 272.478 333.239 272.478 333.64C272.478 334.041 272.557 334.396 272.716 334.704C272.874 335.012 273.098 335.255 273.388 335.432C273.677 335.6 274.008 335.684 274.382 335.684ZM271.036 339.8V330.28H272.576V332.086L272.31 333.724L272.576 335.348V339.8H271.036ZM279.157 337V330.28H280.697V337H279.157ZM283.623 337V332.996C283.623 332.548 283.483 332.203 283.203 331.96C282.923 331.708 282.577 331.582 282.167 331.582C281.887 331.582 281.635 331.638 281.411 331.75C281.196 331.862 281.023 332.025 280.893 332.24C280.762 332.445 280.697 332.697 280.697 332.996L280.095 332.66C280.095 332.147 280.207 331.703 280.431 331.33C280.655 330.957 280.958 330.667 281.341 330.462C281.723 330.247 282.153 330.14 282.629 330.14C283.105 330.14 283.534 330.243 283.917 330.448C284.299 330.653 284.603 330.943 284.827 331.316C285.051 331.689 285.163 332.137 285.163 332.66V337H283.623ZM288.089 337V332.996C288.089 332.548 287.949 332.203 287.669 331.96C287.389 331.708 287.043 331.582 286.633 331.582C286.362 331.582 286.115 331.638 285.891 331.75C285.667 331.862 285.489 332.025 285.359 332.24C285.228 332.445 285.163 332.697 285.163 332.996L284.295 332.66C284.341 332.147 284.491 331.703 284.743 331.33C284.995 330.957 285.317 330.667 285.709 330.462C286.11 330.247 286.549 330.14 287.025 330.14C287.51 330.14 287.949 330.243 288.341 330.448C288.733 330.653 289.045 330.943 289.279 331.316C289.512 331.689 289.629 332.137 289.629 332.66V337H288.089Z" fill="white"/>
<path d="M57.792 328.288H55.2012V326.928H57.792C58.2432 326.928 58.6077 326.855 58.8857 326.709C59.1637 326.563 59.3665 326.363 59.4941 326.107C59.6263 325.848 59.6924 325.551 59.6924 325.219C59.6924 324.904 59.6263 324.61 59.4941 324.337C59.3665 324.059 59.1637 323.836 58.8857 323.667C58.6077 323.498 58.2432 323.414 57.792 323.414H55.7275V332H54.0117V322.047H57.792C58.5622 322.047 59.2161 322.184 59.7539 322.457C60.2962 322.726 60.7087 323.1 60.9912 323.578C61.2738 324.052 61.415 324.594 61.415 325.205C61.415 325.848 61.2738 326.399 60.9912 326.859C60.7087 327.32 60.2962 327.673 59.7539 327.919C59.2161 328.165 58.5622 328.288 57.792 328.288ZM64.5527 324.604V332H62.8984V324.604H64.5527ZM62.7891 322.662C62.7891 322.411 62.8711 322.204 63.0352 322.04C63.2038 321.871 63.4362 321.787 63.7324 321.787C64.0241 321.787 64.2542 321.871 64.4229 322.04C64.5915 322.204 64.6758 322.411 64.6758 322.662C64.6758 322.908 64.5915 323.113 64.4229 323.277C64.2542 323.441 64.0241 323.523 63.7324 323.523C63.4362 323.523 63.2038 323.441 63.0352 323.277C62.8711 323.113 62.7891 322.908 62.7891 322.662ZM69.3789 330.824C69.6478 330.824 69.8893 330.772 70.1035 330.667C70.3223 330.558 70.4977 330.407 70.6299 330.216C70.7666 330.024 70.8418 329.803 70.8555 329.553H72.4072C72.3981 330.031 72.2568 330.466 71.9834 330.858C71.71 331.25 71.3477 331.562 70.8965 331.795C70.4453 332.023 69.9463 332.137 69.3994 332.137C68.8343 332.137 68.3421 332.041 67.9229 331.85C67.5036 331.654 67.1549 331.385 66.877 331.043C66.599 330.701 66.3893 330.307 66.248 329.86C66.1113 329.414 66.043 328.935 66.043 328.425V328.186C66.043 327.675 66.1113 327.197 66.248 326.75C66.3893 326.299 66.599 325.902 66.877 325.561C67.1549 325.219 67.5036 324.952 67.9229 324.761C68.3421 324.565 68.832 324.467 69.3926 324.467C69.985 324.467 70.5046 324.585 70.9512 324.822C71.3978 325.055 71.7487 325.381 72.0039 325.8C72.2637 326.215 72.3981 326.698 72.4072 327.249H70.8555C70.8418 326.976 70.7734 326.729 70.6504 326.511C70.5319 326.287 70.3633 326.11 70.1445 325.978C69.9303 325.845 69.6729 325.779 69.3721 325.779C69.0394 325.779 68.7637 325.848 68.5449 325.984C68.3262 326.117 68.1553 326.299 68.0322 326.531C67.9092 326.759 67.8203 327.017 67.7656 327.304C67.7155 327.586 67.6904 327.88 67.6904 328.186V328.425C67.6904 328.73 67.7155 329.026 67.7656 329.313C67.8158 329.601 67.9023 329.858 68.0254 330.086C68.153 330.309 68.3262 330.489 68.5449 330.626C68.7637 330.758 69.0417 330.824 69.3789 330.824ZM75.333 321.5V332H73.6787V321.5H75.333ZM79.9268 324.604L76.707 328.172L74.9434 329.977L74.5127 328.582L75.8457 326.935L77.9375 324.604H79.9268ZM78.293 332L75.8936 328.527L76.9326 327.372L80.2002 332H78.293ZM85.4229 330.257V324.604H87.0771V332H85.5186L85.4229 330.257ZM85.6553 328.719L86.209 328.705C86.209 329.202 86.1543 329.66 86.0449 330.079C85.9355 330.494 85.7669 330.856 85.5391 331.166C85.3112 331.471 85.0195 331.711 84.6641 331.884C84.3086 332.052 83.8825 332.137 83.3857 332.137C83.0257 332.137 82.6953 332.084 82.3945 331.979C82.0938 331.875 81.834 331.713 81.6152 331.494C81.401 331.275 81.2347 330.991 81.1162 330.64C80.9977 330.289 80.9385 329.869 80.9385 329.382V324.604H82.5859V329.396C82.5859 329.664 82.6178 329.89 82.6816 330.072C82.7454 330.25 82.832 330.394 82.9414 330.503C83.0508 330.612 83.1784 330.69 83.3242 330.735C83.4701 330.781 83.625 330.804 83.7891 330.804C84.2585 330.804 84.6276 330.713 84.8965 330.53C85.1699 330.343 85.3636 330.093 85.4775 329.778C85.596 329.464 85.6553 329.111 85.6553 328.719ZM90.4199 326.025V334.844H88.7725V324.604H90.29L90.4199 326.025ZM95.2393 328.233V328.377C95.2393 328.915 95.1755 329.414 95.0479 329.874C94.9248 330.33 94.7402 330.729 94.4941 331.07C94.2526 331.408 93.9541 331.67 93.5986 331.856C93.2432 332.043 92.833 332.137 92.3682 332.137C91.9079 332.137 91.5046 332.052 91.1582 331.884C90.8164 331.711 90.527 331.467 90.29 331.152C90.0531 330.838 89.8617 330.469 89.7158 330.045C89.5745 329.617 89.4743 329.147 89.415 328.637V328.083C89.4743 327.541 89.5745 327.049 89.7158 326.606C89.8617 326.164 90.0531 325.784 90.29 325.465C90.527 325.146 90.8164 324.9 91.1582 324.727C91.5 324.553 91.8988 324.467 92.3545 324.467C92.8193 324.467 93.2318 324.558 93.5918 324.74C93.9518 324.918 94.2549 325.173 94.501 325.506C94.7471 325.834 94.9316 326.23 95.0547 326.695C95.1777 327.156 95.2393 327.668 95.2393 328.233ZM93.5918 328.377V328.233C93.5918 327.892 93.5599 327.575 93.4961 327.283C93.4323 326.987 93.332 326.727 93.1953 326.504C93.0586 326.281 92.8831 326.107 92.6689 325.984C92.4593 325.857 92.2064 325.793 91.9102 325.793C91.6185 325.793 91.3678 325.843 91.1582 325.943C90.9486 326.039 90.7731 326.174 90.6318 326.347C90.4906 326.52 90.3812 326.723 90.3037 326.955C90.2262 327.183 90.1715 327.431 90.1396 327.7V329.026C90.1943 329.354 90.2878 329.655 90.4199 329.929C90.5521 330.202 90.7389 330.421 90.9805 330.585C91.2266 330.744 91.541 330.824 91.9238 330.824C92.2201 330.824 92.473 330.76 92.6826 330.633C92.8923 330.505 93.0632 330.33 93.1953 330.106C93.332 329.879 93.4323 329.617 93.4961 329.32C93.5599 329.024 93.5918 328.71 93.5918 328.377ZM105.876 322.047H107.585V328.698C107.585 329.455 107.421 330.088 107.093 330.599C106.765 331.109 106.318 331.494 105.753 331.754C105.192 332.009 104.566 332.137 103.873 332.137C103.158 332.137 102.52 332.009 101.959 331.754C101.398 331.494 100.956 331.109 100.633 330.599C100.314 330.088 100.154 329.455 100.154 328.698V322.047H101.863V328.698C101.863 329.177 101.945 329.571 102.109 329.881C102.273 330.186 102.506 330.412 102.807 330.558C103.107 330.703 103.463 330.776 103.873 330.776C104.283 330.776 104.636 330.703 104.933 330.558C105.233 330.412 105.466 330.186 105.63 329.881C105.794 329.571 105.876 329.177 105.876 328.698V322.047ZM110.941 326.025V334.844H109.294V324.604H110.812L110.941 326.025ZM115.761 328.233V328.377C115.761 328.915 115.697 329.414 115.569 329.874C115.446 330.33 115.262 330.729 115.016 331.07C114.774 331.408 114.476 331.67 114.12 331.856C113.765 332.043 113.354 332.137 112.89 332.137C112.429 332.137 112.026 332.052 111.68 331.884C111.338 331.711 111.049 331.467 110.812 331.152C110.575 330.838 110.383 330.469 110.237 330.045C110.096 329.617 109.996 329.147 109.937 328.637V328.083C109.996 327.541 110.096 327.049 110.237 326.606C110.383 326.164 110.575 325.784 110.812 325.465C111.049 325.146 111.338 324.9 111.68 324.727C112.021 324.553 112.42 324.467 112.876 324.467C113.341 324.467 113.753 324.558 114.113 324.74C114.473 324.918 114.776 325.173 115.022 325.506C115.269 325.834 115.453 326.23 115.576 326.695C115.699 327.156 115.761 327.668 115.761 328.233ZM114.113 328.377V328.233C114.113 327.892 114.081 327.575 114.018 327.283C113.954 326.987 113.854 326.727 113.717 326.504C113.58 326.281 113.405 326.107 113.19 325.984C112.981 325.857 112.728 325.793 112.432 325.793C112.14 325.793 111.889 325.843 111.68 325.943C111.47 326.039 111.295 326.174 111.153 326.347C111.012 326.52 110.903 326.723 110.825 326.955C110.748 327.183 110.693 327.431 110.661 327.7V329.026C110.716 329.354 110.809 329.655 110.941 329.929C111.074 330.202 111.26 330.421 111.502 330.585C111.748 330.744 112.062 330.824 112.445 330.824C112.742 330.824 112.994 330.76 113.204 330.633C113.414 330.505 113.585 330.33 113.717 330.106C113.854 329.879 113.954 329.617 114.018 329.32C114.081 329.024 114.113 328.71 114.113 328.377ZM124.579 322.047V332H122.877V322.047H124.579ZM127.703 322.047V323.414H119.78V322.047H127.703ZM130.615 324.604V332H128.961V324.604H130.615ZM128.852 322.662C128.852 322.411 128.934 322.204 129.098 322.04C129.266 321.871 129.499 321.787 129.795 321.787C130.087 321.787 130.317 321.871 130.485 322.04C130.654 322.204 130.738 322.411 130.738 322.662C130.738 322.908 130.654 323.113 130.485 323.277C130.317 323.441 130.087 323.523 129.795 323.523C129.499 323.523 129.266 323.441 129.098 323.277C128.934 323.113 128.852 322.908 128.852 322.662ZM134.067 326.107V332H132.42V324.604H133.972L134.067 326.107ZM133.801 328.028L133.24 328.021C133.24 327.511 133.304 327.039 133.432 326.606C133.559 326.174 133.746 325.798 133.992 325.479C134.238 325.155 134.544 324.907 134.908 324.733C135.277 324.556 135.703 324.467 136.187 324.467C136.524 324.467 136.831 324.517 137.109 324.617C137.392 324.713 137.636 324.866 137.841 325.075C138.05 325.285 138.21 325.554 138.319 325.882C138.433 326.21 138.49 326.606 138.49 327.071V332H136.843V327.215C136.843 326.855 136.788 326.572 136.679 326.367C136.574 326.162 136.421 326.016 136.221 325.93C136.025 325.839 135.79 325.793 135.517 325.793C135.207 325.793 134.942 325.852 134.724 325.971C134.509 326.089 134.334 326.251 134.197 326.456C134.061 326.661 133.96 326.898 133.896 327.167C133.833 327.436 133.801 327.723 133.801 328.028ZM138.388 327.591L137.615 327.762C137.615 327.315 137.677 326.894 137.8 326.497C137.927 326.096 138.112 325.745 138.354 325.444C138.6 325.139 138.903 324.9 139.263 324.727C139.623 324.553 140.035 324.467 140.5 324.467C140.878 324.467 141.215 324.519 141.512 324.624C141.812 324.724 142.068 324.884 142.277 325.103C142.487 325.321 142.646 325.606 142.756 325.957C142.865 326.303 142.92 326.723 142.92 327.215V332H141.266V327.208C141.266 326.834 141.211 326.545 141.102 326.34C140.997 326.135 140.846 325.993 140.65 325.916C140.454 325.834 140.22 325.793 139.946 325.793C139.691 325.793 139.465 325.841 139.27 325.937C139.078 326.028 138.916 326.158 138.784 326.326C138.652 326.49 138.552 326.679 138.483 326.894C138.42 327.108 138.388 327.34 138.388 327.591ZM147.876 332.137C147.329 332.137 146.835 332.048 146.393 331.87C145.955 331.688 145.581 331.435 145.271 331.111C144.966 330.788 144.731 330.407 144.567 329.97C144.403 329.532 144.321 329.061 144.321 328.555V328.281C144.321 327.702 144.406 327.178 144.574 326.709C144.743 326.24 144.978 325.839 145.278 325.506C145.579 325.169 145.935 324.911 146.345 324.733C146.755 324.556 147.199 324.467 147.678 324.467C148.206 324.467 148.669 324.556 149.065 324.733C149.462 324.911 149.79 325.162 150.05 325.485C150.314 325.804 150.51 326.185 150.638 326.627C150.77 327.069 150.836 327.557 150.836 328.09V328.794H145.121V327.611H149.209V327.481C149.2 327.185 149.141 326.907 149.031 326.647C148.926 326.388 148.765 326.178 148.546 326.019C148.327 325.859 148.035 325.779 147.671 325.779C147.397 325.779 147.154 325.839 146.939 325.957C146.73 326.071 146.554 326.237 146.413 326.456C146.272 326.675 146.162 326.939 146.085 327.249C146.012 327.554 145.976 327.898 145.976 328.281V328.555C145.976 328.878 146.019 329.179 146.105 329.457C146.197 329.73 146.329 329.97 146.502 330.175C146.675 330.38 146.885 330.542 147.131 330.66C147.377 330.774 147.657 330.831 147.972 330.831C148.368 330.831 148.721 330.751 149.031 330.592C149.341 330.432 149.61 330.207 149.838 329.915L150.706 330.756C150.547 330.988 150.339 331.212 150.084 331.426C149.829 331.635 149.517 331.806 149.147 331.938C148.783 332.071 148.359 332.137 147.876 332.137Z" fill="black"/>
</g>
<g filter="url(#filter3_b_369_154)">
<rect x="28" y="217" width="337" height="55" rx="5" fill="#D9D9D9"/>
<path d="M47.7441 244.502H45.208L45.1943 243.251H47.4092C47.7829 243.251 48.0996 243.196 48.3594 243.087C48.6237 242.973 48.8242 242.811 48.9609 242.602C49.0977 242.387 49.166 242.13 49.166 241.829C49.166 241.496 49.1022 241.225 48.9746 241.016C48.847 240.806 48.651 240.653 48.3867 240.558C48.127 240.462 47.7943 240.414 47.3887 240.414H45.7275V249H44.0117V239.047H47.3887C47.9355 239.047 48.4232 239.099 48.8516 239.204C49.2845 239.309 49.6514 239.473 49.9521 239.696C50.2575 239.915 50.4876 240.193 50.6426 240.53C50.8021 240.868 50.8818 241.269 50.8818 241.733C50.8818 242.144 50.7839 242.52 50.5879 242.861C50.3919 243.199 50.1025 243.474 49.7197 243.688C49.3369 243.903 48.8607 244.03 48.291 244.071L47.7441 244.502ZM47.6689 249H44.668L45.4404 247.64H47.6689C48.0563 247.64 48.3799 247.576 48.6396 247.448C48.8994 247.316 49.0931 247.136 49.2207 246.908C49.3529 246.676 49.4189 246.405 49.4189 246.095C49.4189 245.771 49.362 245.491 49.248 245.254C49.1341 245.012 48.9541 244.828 48.708 244.7C48.4619 244.568 48.1406 244.502 47.7441 244.502H45.8164L45.8301 243.251H48.3389L48.7285 243.723C49.2754 243.741 49.7243 243.862 50.0752 244.085C50.4307 244.308 50.695 244.598 50.8682 244.953C51.0413 245.309 51.1279 245.691 51.1279 246.102C51.1279 246.735 50.9889 247.266 50.7109 247.694C50.4375 248.123 50.0433 248.449 49.5283 248.672C49.0133 248.891 48.3936 249 47.6689 249ZM57.1436 247.257V241.604H58.7979V249H57.2393L57.1436 247.257ZM57.376 245.719L57.9297 245.705C57.9297 246.202 57.875 246.66 57.7656 247.079C57.6562 247.494 57.4876 247.856 57.2598 248.166C57.0319 248.471 56.7402 248.711 56.3848 248.884C56.0293 249.052 55.6032 249.137 55.1064 249.137C54.7464 249.137 54.416 249.084 54.1152 248.979C53.8145 248.875 53.5547 248.713 53.3359 248.494C53.1217 248.275 52.9554 247.991 52.8369 247.64C52.7184 247.289 52.6592 246.869 52.6592 246.382V241.604H54.3066V246.396C54.3066 246.664 54.3385 246.89 54.4023 247.072C54.4661 247.25 54.5527 247.394 54.6621 247.503C54.7715 247.612 54.8991 247.69 55.0449 247.735C55.1908 247.781 55.3457 247.804 55.5098 247.804C55.9792 247.804 56.3483 247.713 56.6172 247.53C56.8906 247.343 57.0843 247.093 57.1982 246.778C57.3167 246.464 57.376 246.111 57.376 245.719ZM62.25 241.604V249H60.5957V241.604H62.25ZM60.4863 239.662C60.4863 239.411 60.5684 239.204 60.7324 239.04C60.901 238.871 61.1335 238.787 61.4297 238.787C61.7214 238.787 61.9515 238.871 62.1201 239.04C62.2887 239.204 62.373 239.411 62.373 239.662C62.373 239.908 62.2887 240.113 62.1201 240.277C61.9515 240.441 61.7214 240.523 61.4297 240.523C61.1335 240.523 60.901 240.441 60.7324 240.277C60.5684 240.113 60.4863 239.908 60.4863 239.662ZM65.8184 238.5V249H64.1641V238.5H65.8184ZM72.1348 247.469V238.5H73.7891V249H72.292L72.1348 247.469ZM67.3223 245.384V245.24C67.3223 244.68 67.3883 244.169 67.5205 243.709C67.6527 243.244 67.8441 242.845 68.0947 242.513C68.3454 242.175 68.6507 241.918 69.0107 241.74C69.3708 241.558 69.7764 241.467 70.2275 241.467C70.6742 241.467 71.0661 241.553 71.4033 241.727C71.7406 241.9 72.0277 242.148 72.2646 242.472C72.5016 242.791 72.6908 243.174 72.832 243.62C72.9733 244.062 73.0736 244.554 73.1328 245.097V245.555C73.0736 246.083 72.9733 246.566 72.832 247.004C72.6908 247.441 72.5016 247.82 72.2646 248.139C72.0277 248.458 71.7383 248.704 71.3965 248.877C71.0592 249.05 70.665 249.137 70.2139 249.137C69.7673 249.137 69.3639 249.043 69.0039 248.856C68.6484 248.67 68.3454 248.408 68.0947 248.07C67.8441 247.733 67.6527 247.337 67.5205 246.881C67.3883 246.421 67.3223 245.922 67.3223 245.384ZM68.9697 245.24V245.384C68.9697 245.721 68.9993 246.035 69.0586 246.327C69.1224 246.619 69.2204 246.876 69.3525 247.1C69.4847 247.318 69.6556 247.492 69.8652 247.619C70.0794 247.742 70.3346 247.804 70.6309 247.804C71.0046 247.804 71.3122 247.722 71.5537 247.558C71.7952 247.394 71.9844 247.173 72.1211 246.895C72.2624 246.612 72.3581 246.298 72.4082 245.951V244.714C72.3809 244.445 72.3239 244.194 72.2373 243.962C72.1553 243.729 72.0436 243.527 71.9023 243.354C71.7611 243.176 71.5856 243.039 71.376 242.943C71.1709 242.843 70.9271 242.793 70.6445 242.793C70.3438 242.793 70.0885 242.857 69.8789 242.984C69.6693 243.112 69.4961 243.287 69.3594 243.511C69.2272 243.734 69.1292 243.994 69.0654 244.29C69.0016 244.586 68.9697 244.903 68.9697 245.24ZM77.2754 241.604V249H75.6211V241.604H77.2754ZM75.5117 239.662C75.5117 239.411 75.5938 239.204 75.7578 239.04C75.9264 238.871 76.1589 238.787 76.4551 238.787C76.7467 238.787 76.9769 238.871 77.1455 239.04C77.3141 239.204 77.3984 239.411 77.3984 239.662C77.3984 239.908 77.3141 240.113 77.1455 240.277C76.9769 240.441 76.7467 240.523 76.4551 240.523C76.1589 240.523 75.9264 240.441 75.7578 240.277C75.5938 240.113 75.5117 239.908 75.5117 239.662ZM80.7139 243.183V249H79.0664V241.604H80.6182L80.7139 243.183ZM80.4199 245.028L79.8867 245.021C79.8913 244.497 79.9642 244.017 80.1055 243.579C80.2513 243.142 80.4518 242.766 80.707 242.451C80.9668 242.137 81.2767 241.895 81.6367 241.727C81.9967 241.553 82.3978 241.467 82.8398 241.467C83.1953 241.467 83.5166 241.517 83.8037 241.617C84.0954 241.713 84.3438 241.87 84.5488 242.089C84.7585 242.308 84.918 242.592 85.0273 242.943C85.1367 243.29 85.1914 243.716 85.1914 244.222V249H83.5371V244.215C83.5371 243.859 83.4847 243.579 83.3799 243.374C83.2796 243.164 83.1315 243.016 82.9355 242.93C82.7441 242.839 82.5049 242.793 82.2178 242.793C81.9352 242.793 81.6823 242.852 81.459 242.971C81.2357 243.089 81.0465 243.251 80.8916 243.456C80.7412 243.661 80.625 243.898 80.543 244.167C80.4609 244.436 80.4199 244.723 80.4199 245.028ZM91.6104 241.604H93.1074V248.795C93.1074 249.46 92.9661 250.025 92.6836 250.49C92.401 250.955 92.0068 251.308 91.501 251.55C90.9951 251.796 90.4095 251.919 89.7441 251.919C89.4616 251.919 89.1471 251.878 88.8008 251.796C88.459 251.714 88.1263 251.582 87.8027 251.399C87.4837 251.222 87.2171 250.987 87.0029 250.695L87.7754 249.725C88.0397 250.039 88.3314 250.269 88.6504 250.415C88.9694 250.561 89.3044 250.634 89.6553 250.634C90.0335 250.634 90.3548 250.563 90.6191 250.422C90.888 250.285 91.0954 250.082 91.2412 249.813C91.387 249.545 91.46 249.216 91.46 248.829V243.278L91.6104 241.604ZM86.5859 245.384V245.24C86.5859 244.68 86.6543 244.169 86.791 243.709C86.9277 243.244 87.1237 242.845 87.3789 242.513C87.6341 242.175 87.944 241.918 88.3086 241.74C88.6732 241.558 89.0856 241.467 89.5459 241.467C90.0244 241.467 90.4323 241.553 90.7695 241.727C91.1113 241.9 91.3962 242.148 91.624 242.472C91.8519 242.791 92.0296 243.174 92.1572 243.62C92.2894 244.062 92.3874 244.554 92.4512 245.097V245.555C92.3919 246.083 92.2917 246.566 92.1504 247.004C92.0091 247.441 91.8223 247.82 91.5898 248.139C91.3574 248.458 91.0703 248.704 90.7285 248.877C90.3913 249.05 89.9925 249.137 89.5322 249.137C89.0811 249.137 88.6732 249.043 88.3086 248.856C87.9486 248.67 87.6387 248.408 87.3789 248.07C87.1237 247.733 86.9277 247.337 86.791 246.881C86.6543 246.421 86.5859 245.922 86.5859 245.384ZM88.2334 245.24V245.384C88.2334 245.721 88.2653 246.035 88.3291 246.327C88.3975 246.619 88.5 246.876 88.6367 247.1C88.778 247.318 88.9557 247.492 89.1699 247.619C89.3887 247.742 89.6462 247.804 89.9424 247.804C90.3298 247.804 90.6465 247.722 90.8926 247.558C91.1432 247.394 91.3346 247.173 91.4668 246.895C91.6035 246.612 91.6992 246.298 91.7539 245.951V244.714C91.7266 244.445 91.6696 244.194 91.583 243.962C91.501 243.729 91.3893 243.527 91.248 243.354C91.1068 243.176 90.929 243.039 90.7148 242.943C90.5007 242.843 90.2477 242.793 89.9561 242.793C89.6598 242.793 89.4023 242.857 89.1836 242.984C88.9648 243.112 88.7848 243.287 88.6436 243.511C88.5068 243.734 88.4043 243.994 88.3359 244.29C88.2676 244.586 88.2334 244.903 88.2334 245.24ZM102.343 240.373L99.3691 249H97.5713L101.317 239.047H102.466L102.343 240.373ZM104.831 249L101.851 240.373L101.721 239.047H102.876L106.636 249H104.831ZM104.688 245.309V246.669H99.2734V245.309H104.688ZM112.098 247.469V238.5H113.752V249H112.255L112.098 247.469ZM107.285 245.384V245.24C107.285 244.68 107.351 244.169 107.483 243.709C107.616 243.244 107.807 242.845 108.058 242.513C108.308 242.175 108.614 241.918 108.974 241.74C109.334 241.558 109.739 241.467 110.19 241.467C110.637 241.467 111.029 241.553 111.366 241.727C111.703 241.9 111.991 242.148 112.228 242.472C112.465 242.791 112.654 243.174 112.795 243.62C112.936 244.062 113.036 244.554 113.096 245.097V245.555C113.036 246.083 112.936 246.566 112.795 247.004C112.654 247.441 112.465 247.82 112.228 248.139C111.991 248.458 111.701 248.704 111.359 248.877C111.022 249.05 110.628 249.137 110.177 249.137C109.73 249.137 109.327 249.043 108.967 248.856C108.611 248.67 108.308 248.408 108.058 248.07C107.807 247.733 107.616 247.337 107.483 246.881C107.351 246.421 107.285 245.922 107.285 245.384ZM108.933 245.24V245.384C108.933 245.721 108.962 246.035 109.021 246.327C109.085 246.619 109.183 246.876 109.315 247.1C109.448 247.318 109.618 247.492 109.828 247.619C110.042 247.742 110.298 247.804 110.594 247.804C110.967 247.804 111.275 247.722 111.517 247.558C111.758 247.394 111.947 247.173 112.084 246.895C112.225 246.612 112.321 246.298 112.371 245.951V244.714C112.344 244.445 112.287 244.194 112.2 243.962C112.118 243.729 112.007 243.527 111.865 243.354C111.724 243.176 111.549 243.039 111.339 242.943C111.134 242.843 110.89 242.793 110.607 242.793C110.307 242.793 110.051 242.857 109.842 242.984C109.632 243.112 109.459 243.287 109.322 243.511C109.19 243.734 109.092 243.994 109.028 244.29C108.965 244.586 108.933 244.903 108.933 245.24ZM119.986 247.469V238.5H121.641V249H120.144L119.986 247.469ZM115.174 245.384V245.24C115.174 244.68 115.24 244.169 115.372 243.709C115.504 243.244 115.696 242.845 115.946 242.513C116.197 242.175 116.502 241.918 116.862 241.74C117.222 241.558 117.628 241.467 118.079 241.467C118.526 241.467 118.918 241.553 119.255 241.727C119.592 241.9 119.879 242.148 120.116 242.472C120.353 242.791 120.542 243.174 120.684 243.62C120.825 244.062 120.925 244.554 120.984 245.097V245.555C120.925 246.083 120.825 246.566 120.684 247.004C120.542 247.441 120.353 247.82 120.116 248.139C119.879 248.458 119.59 248.704 119.248 248.877C118.911 249.05 118.517 249.137 118.065 249.137C117.619 249.137 117.215 249.043 116.855 248.856C116.5 248.67 116.197 248.408 115.946 248.07C115.696 247.733 115.504 247.337 115.372 246.881C115.24 246.421 115.174 245.922 115.174 245.384ZM116.821 245.24V245.384C116.821 245.721 116.851 246.035 116.91 246.327C116.974 246.619 117.072 246.876 117.204 247.1C117.336 247.318 117.507 247.492 117.717 247.619C117.931 247.742 118.186 247.804 118.482 247.804C118.856 247.804 119.164 247.722 119.405 247.558C119.647 247.394 119.836 247.173 119.973 246.895C120.114 246.612 120.21 246.298 120.26 245.951V244.714C120.232 244.445 120.175 244.194 120.089 243.962C120.007 243.729 119.895 243.527 119.754 243.354C119.613 243.176 119.437 243.039 119.228 242.943C119.022 242.843 118.779 242.793 118.496 242.793C118.195 242.793 117.94 242.857 117.73 242.984C117.521 243.112 117.348 243.287 117.211 243.511C117.079 243.734 116.981 243.994 116.917 244.29C116.853 244.586 116.821 244.903 116.821 245.24ZM125.018 243.012V249H123.37V241.604H124.942L125.018 243.012ZM127.28 241.556L127.267 243.087C127.166 243.069 127.057 243.055 126.938 243.046C126.825 243.037 126.711 243.032 126.597 243.032C126.314 243.032 126.066 243.073 125.852 243.155C125.637 243.233 125.457 243.347 125.312 243.497C125.17 243.643 125.061 243.821 124.983 244.03C124.906 244.24 124.86 244.475 124.847 244.734L124.471 244.762C124.471 244.297 124.516 243.866 124.607 243.47C124.699 243.073 124.835 242.725 125.018 242.424C125.204 242.123 125.437 241.888 125.715 241.72C125.997 241.551 126.323 241.467 126.692 241.467C126.793 241.467 126.9 241.476 127.014 241.494C127.132 241.512 127.221 241.533 127.28 241.556ZM131.437 249.137C130.89 249.137 130.395 249.048 129.953 248.87C129.516 248.688 129.142 248.435 128.832 248.111C128.527 247.788 128.292 247.407 128.128 246.97C127.964 246.532 127.882 246.061 127.882 245.555V245.281C127.882 244.702 127.966 244.178 128.135 243.709C128.303 243.24 128.538 242.839 128.839 242.506C129.14 242.169 129.495 241.911 129.905 241.733C130.315 241.556 130.76 241.467 131.238 241.467C131.767 241.467 132.229 241.556 132.626 241.733C133.022 241.911 133.351 242.162 133.61 242.485C133.875 242.804 134.071 243.185 134.198 243.627C134.33 244.069 134.396 244.557 134.396 245.09V245.794H128.682V244.611H132.77V244.481C132.76 244.185 132.701 243.907 132.592 243.647C132.487 243.388 132.325 243.178 132.106 243.019C131.888 242.859 131.596 242.779 131.231 242.779C130.958 242.779 130.714 242.839 130.5 242.957C130.29 243.071 130.115 243.237 129.974 243.456C129.832 243.675 129.723 243.939 129.646 244.249C129.573 244.554 129.536 244.898 129.536 245.281V245.555C129.536 245.878 129.579 246.179 129.666 246.457C129.757 246.73 129.889 246.97 130.062 247.175C130.236 247.38 130.445 247.542 130.691 247.66C130.938 247.774 131.218 247.831 131.532 247.831C131.929 247.831 132.282 247.751 132.592 247.592C132.902 247.432 133.171 247.207 133.398 246.915L134.267 247.756C134.107 247.988 133.9 248.212 133.645 248.426C133.389 248.635 133.077 248.806 132.708 248.938C132.343 249.071 131.92 249.137 131.437 249.137ZM139.831 246.997C139.831 246.833 139.79 246.685 139.708 246.553C139.626 246.416 139.469 246.293 139.236 246.184C139.008 246.074 138.671 245.974 138.225 245.883C137.833 245.796 137.473 245.694 137.145 245.575C136.821 245.452 136.543 245.304 136.311 245.131C136.078 244.958 135.898 244.753 135.771 244.516C135.643 244.279 135.579 244.005 135.579 243.695C135.579 243.395 135.645 243.11 135.777 242.841C135.91 242.572 136.099 242.335 136.345 242.13C136.591 241.925 136.889 241.763 137.24 241.645C137.596 241.526 137.992 241.467 138.43 241.467C139.049 241.467 139.58 241.572 140.022 241.781C140.469 241.986 140.811 242.267 141.048 242.622C141.285 242.973 141.403 243.369 141.403 243.812H139.756C139.756 243.616 139.706 243.433 139.605 243.265C139.51 243.091 139.364 242.952 139.168 242.848C138.972 242.738 138.726 242.684 138.43 242.684C138.147 242.684 137.912 242.729 137.726 242.82C137.543 242.907 137.407 243.021 137.315 243.162C137.229 243.303 137.186 243.458 137.186 243.627C137.186 243.75 137.208 243.862 137.254 243.962C137.304 244.058 137.386 244.146 137.5 244.229C137.614 244.306 137.769 244.379 137.965 244.447C138.165 244.516 138.416 244.582 138.717 244.646C139.282 244.764 139.767 244.917 140.173 245.104C140.583 245.286 140.897 245.523 141.116 245.814C141.335 246.102 141.444 246.466 141.444 246.908C141.444 247.236 141.374 247.537 141.232 247.811C141.096 248.079 140.895 248.314 140.631 248.515C140.367 248.711 140.05 248.863 139.681 248.973C139.316 249.082 138.906 249.137 138.45 249.137C137.78 249.137 137.213 249.018 136.748 248.781C136.283 248.54 135.93 248.232 135.688 247.858C135.451 247.48 135.333 247.088 135.333 246.683H136.926C136.944 246.988 137.028 247.232 137.179 247.414C137.334 247.592 137.525 247.722 137.753 247.804C137.985 247.881 138.225 247.92 138.471 247.92C138.767 247.92 139.015 247.881 139.216 247.804C139.416 247.722 139.569 247.612 139.674 247.476C139.779 247.334 139.831 247.175 139.831 246.997ZM147.036 246.997C147.036 246.833 146.995 246.685 146.913 246.553C146.831 246.416 146.674 246.293 146.441 246.184C146.214 246.074 145.876 245.974 145.43 245.883C145.038 245.796 144.678 245.694 144.35 245.575C144.026 245.452 143.748 245.304 143.516 245.131C143.283 244.958 143.103 244.753 142.976 244.516C142.848 244.279 142.784 244.005 142.784 243.695C142.784 243.395 142.85 243.11 142.982 242.841C143.115 242.572 143.304 242.335 143.55 242.13C143.796 241.925 144.094 241.763 144.445 241.645C144.801 241.526 145.197 241.467 145.635 241.467C146.255 241.467 146.785 241.572 147.228 241.781C147.674 241.986 148.016 242.267 148.253 242.622C148.49 242.973 148.608 243.369 148.608 243.812H146.961C146.961 243.616 146.911 243.433 146.811 243.265C146.715 243.091 146.569 242.952 146.373 242.848C146.177 242.738 145.931 242.684 145.635 242.684C145.352 242.684 145.118 242.729 144.931 242.82C144.748 242.907 144.612 243.021 144.521 243.162C144.434 243.303 144.391 243.458 144.391 243.627C144.391 243.75 144.413 243.862 144.459 243.962C144.509 244.058 144.591 244.146 144.705 244.229C144.819 244.306 144.974 244.379 145.17 244.447C145.37 244.516 145.621 244.582 145.922 244.646C146.487 244.764 146.972 244.917 147.378 245.104C147.788 245.286 148.103 245.523 148.321 245.814C148.54 246.102 148.649 246.466 148.649 246.908C148.649 247.236 148.579 247.537 148.438 247.811C148.301 248.079 148.1 248.314 147.836 248.515C147.572 248.711 147.255 248.863 146.886 248.973C146.521 249.082 146.111 249.137 145.655 249.137C144.985 249.137 144.418 249.018 143.953 248.781C143.488 248.54 143.135 248.232 142.894 247.858C142.657 247.48 142.538 247.088 142.538 246.683H144.131C144.149 246.988 144.233 247.232 144.384 247.414C144.539 247.592 144.73 247.722 144.958 247.804C145.19 247.881 145.43 247.92 145.676 247.92C145.972 247.92 146.22 247.881 146.421 247.804C146.621 247.722 146.774 247.612 146.879 247.476C146.984 247.334 147.036 247.175 147.036 246.997Z" fill="black"/>
<path d="M201.13 246.08L197.308 240.2H199.17L202.152 244.89H201.284L204.266 240.2H206.1L202.25 246.08H201.13ZM200.906 250V245.072H202.516V250H200.906ZM208.023 250.14C207.417 250.14 206.866 249.986 206.371 249.678C205.886 249.37 205.499 248.955 205.209 248.432C204.929 247.9 204.789 247.307 204.789 246.654C204.789 245.991 204.929 245.399 205.209 244.876C205.499 244.344 205.886 243.924 206.371 243.616C206.866 243.299 207.417 243.14 208.023 243.14C208.537 243.14 208.989 243.252 209.381 243.476C209.783 243.691 210.1 243.989 210.333 244.372C210.567 244.755 210.683 245.189 210.683 245.674V247.606C210.683 248.091 210.567 248.525 210.333 248.908C210.109 249.291 209.797 249.594 209.395 249.818C208.994 250.033 208.537 250.14 208.023 250.14ZM208.275 248.684C208.845 248.684 209.302 248.493 209.647 248.11C210.002 247.727 210.179 247.237 210.179 246.64C210.179 246.239 210.1 245.884 209.941 245.576C209.783 245.268 209.559 245.03 209.269 244.862C208.989 244.685 208.658 244.596 208.275 244.596C207.902 244.596 207.571 244.685 207.281 244.862C207.001 245.03 206.777 245.268 206.609 245.576C206.451 245.884 206.371 246.239 206.371 246.64C206.371 247.041 206.451 247.396 206.609 247.704C206.777 248.012 207.001 248.255 207.281 248.432C207.571 248.6 207.902 248.684 208.275 248.684ZM210.081 250V248.194L210.347 246.556L210.081 244.932V243.28H211.621V250H210.081ZM215.501 250.07L212.631 243.28H214.325L216.285 248.264H215.795L217.867 243.28H219.575L216.453 250.07H215.501ZM213.499 252.8L215.585 248.502L216.453 250.07L215.207 252.8H213.499ZM223.049 250.14C222.442 250.14 221.892 249.986 221.397 249.678C220.912 249.37 220.524 248.955 220.235 248.432C219.955 247.9 219.815 247.307 219.815 246.654C219.815 245.991 219.955 245.399 220.235 244.876C220.524 244.344 220.912 243.924 221.397 243.616C221.892 243.299 222.442 243.14 223.049 243.14C223.562 243.14 224.015 243.252 224.407 243.476C224.808 243.691 225.126 243.989 225.359 244.372C225.592 244.755 225.709 245.189 225.709 245.674V247.606C225.709 248.091 225.592 248.525 225.359 248.908C225.135 249.291 224.822 249.594 224.421 249.818C224.02 250.033 223.562 250.14 223.049 250.14ZM223.301 248.684C223.87 248.684 224.328 248.493 224.673 248.11C225.028 247.727 225.205 247.237 225.205 246.64C225.205 246.239 225.126 245.884 224.967 245.576C224.808 245.268 224.584 245.03 224.295 244.862C224.015 244.685 223.684 244.596 223.301 244.596C222.928 244.596 222.596 244.685 222.307 244.862C222.027 245.03 221.803 245.268 221.635 245.576C221.476 245.884 221.397 246.239 221.397 246.64C221.397 247.041 221.476 247.396 221.635 247.704C221.803 248.012 222.027 248.255 222.307 248.432C222.596 248.6 222.928 248.684 223.301 248.684ZM225.107 250V248.194L225.373 246.556L225.107 244.932V243.28H226.647V250H225.107ZM235.821 250.14C235.111 250.14 234.453 250.014 233.847 249.762C233.249 249.501 232.727 249.141 232.279 248.684C231.831 248.217 231.485 247.681 231.243 247.074C231 246.458 230.879 245.8 230.879 245.1C230.879 244.4 231 243.747 231.243 243.14C231.485 242.524 231.831 241.987 232.279 241.53C232.727 241.073 233.249 240.713 233.847 240.452C234.453 240.191 235.111 240.06 235.821 240.06C236.614 240.06 237.3 240.191 237.879 240.452C238.457 240.713 238.971 241.068 239.419 241.516L238.327 242.608C238.037 242.291 237.683 242.043 237.263 241.866C236.852 241.689 236.371 241.6 235.821 241.6C235.335 241.6 234.892 241.684 234.491 241.852C234.089 242.02 233.739 242.263 233.441 242.58C233.151 242.888 232.927 243.257 232.769 243.686C232.61 244.115 232.531 244.587 232.531 245.1C232.531 245.613 232.61 246.085 232.769 246.514C232.927 246.943 233.151 247.317 233.441 247.634C233.739 247.942 234.089 248.18 234.491 248.348C234.892 248.516 235.335 248.6 235.821 248.6C236.418 248.6 236.922 248.511 237.333 248.334C237.753 248.147 238.107 247.895 238.397 247.578L239.489 248.67C239.041 249.127 238.513 249.487 237.907 249.748C237.3 250.009 236.605 250.14 235.821 250.14ZM243.632 250.14C242.96 250.14 242.354 249.991 241.812 249.692C241.28 249.384 240.856 248.964 240.538 248.432C240.23 247.9 240.076 247.303 240.076 246.64C240.076 245.977 240.23 245.385 240.538 244.862C240.846 244.33 241.262 243.91 241.784 243.602C242.316 243.294 242.904 243.14 243.548 243.14C244.174 243.14 244.724 243.285 245.2 243.574C245.686 243.863 246.064 244.26 246.334 244.764C246.614 245.268 246.754 245.842 246.754 246.486C246.754 246.598 246.745 246.715 246.726 246.836C246.717 246.948 246.698 247.074 246.67 247.214H241.154V245.954H245.872L245.298 246.458C245.28 246.047 245.2 245.702 245.06 245.422C244.92 245.142 244.72 244.927 244.458 244.778C244.206 244.629 243.894 244.554 243.52 244.554C243.128 244.554 242.788 244.638 242.498 244.806C242.209 244.974 241.985 245.212 241.826 245.52C241.668 245.819 241.588 246.178 241.588 246.598C241.588 247.018 241.672 247.387 241.84 247.704C242.008 248.021 242.246 248.269 242.554 248.446C242.862 248.614 243.217 248.698 243.618 248.698C243.964 248.698 244.281 248.637 244.57 248.516C244.869 248.395 245.121 248.217 245.326 247.984L246.306 248.978C245.98 249.361 245.583 249.65 245.116 249.846C244.65 250.042 244.155 250.14 243.632 250.14ZM252.595 250V246.122C252.595 245.674 252.45 245.305 252.161 245.016C251.881 244.727 251.517 244.582 251.069 244.582C250.77 244.582 250.504 244.647 250.271 244.778C250.037 244.909 249.855 245.091 249.725 245.324C249.594 245.557 249.529 245.823 249.529 246.122L248.927 245.786C248.927 245.273 249.039 244.82 249.263 244.428C249.487 244.027 249.795 243.714 250.187 243.49C250.588 243.257 251.036 243.14 251.531 243.14C252.035 243.14 252.483 243.271 252.875 243.532C253.267 243.784 253.575 244.115 253.799 244.526C254.023 244.927 254.135 245.347 254.135 245.786V250H252.595ZM247.989 250V243.28H249.529V250H247.989ZM256.64 250V240.48H258.18V250H256.64ZM255.03 244.68V243.28H259.79V244.68H255.03ZM263.839 250.14C263.167 250.14 262.561 249.991 262.019 249.692C261.487 249.384 261.063 248.964 260.745 248.432C260.437 247.9 260.283 247.303 260.283 246.64C260.283 245.977 260.437 245.385 260.745 244.862C261.053 244.33 261.469 243.91 261.991 243.602C262.523 243.294 263.111 243.14 263.755 243.14C264.381 243.14 264.931 243.285 265.407 243.574C265.893 243.863 266.271 244.26 266.541 244.764C266.821 245.268 266.961 245.842 266.961 246.486C266.961 246.598 266.952 246.715 266.933 246.836C266.924 246.948 266.905 247.074 266.877 247.214H261.361V245.954H266.079L265.505 246.458C265.487 246.047 265.407 245.702 265.267 245.422C265.127 245.142 264.927 244.927 264.665 244.778C264.413 244.629 264.101 244.554 263.727 244.554C263.335 244.554 262.995 244.638 262.705 244.806C262.416 244.974 262.192 245.212 262.033 245.52C261.875 245.819 261.795 246.178 261.795 246.598C261.795 247.018 261.879 247.387 262.047 247.704C262.215 248.021 262.453 248.269 262.761 248.446C263.069 248.614 263.424 248.698 263.825 248.698C264.171 248.698 264.488 248.637 264.777 248.516C265.076 248.395 265.328 248.217 265.533 247.984L266.513 248.978C266.187 249.361 265.79 249.65 265.323 249.846C264.857 250.042 264.362 250.14 263.839 250.14ZM268.196 250V243.28H269.736V250H268.196ZM269.736 246.262L269.204 245.996C269.204 245.147 269.39 244.461 269.764 243.938C270.146 243.406 270.72 243.14 271.486 243.14C271.822 243.14 272.125 243.201 272.396 243.322C272.666 243.443 272.918 243.639 273.152 243.91L272.144 244.946C272.022 244.815 271.887 244.722 271.738 244.666C271.588 244.61 271.416 244.582 271.22 244.582C270.79 244.582 270.436 244.717 270.156 244.988C269.876 245.259 269.736 245.683 269.736 246.262ZM273.049 251.638L274.001 249.86L274.519 249.72C274.463 249.832 274.398 249.925 274.323 250C274.249 250.075 274.16 250.112 274.057 250.112C273.843 250.112 273.642 250.023 273.455 249.846C273.278 249.659 273.189 249.426 273.189 249.146C273.189 248.847 273.287 248.595 273.483 248.39C273.689 248.175 273.941 248.068 274.239 248.068C274.519 248.068 274.762 248.175 274.967 248.39C275.182 248.595 275.289 248.847 275.289 249.146C275.289 249.267 275.261 249.412 275.205 249.58C275.159 249.739 275.07 249.944 274.939 250.196L273.903 252.1L273.049 251.638ZM282.451 250L279.231 240.2H280.813L283.235 247.746H282.815L285.181 240.2H286.301L288.667 247.746H288.247L290.669 240.2H292.251L289.031 250H287.911L285.531 242.468H285.951L283.571 250H282.451ZM295.613 250.14C294.941 250.14 294.334 249.991 293.793 249.692C293.261 249.384 292.836 248.964 292.519 248.432C292.211 247.9 292.057 247.303 292.057 246.64C292.057 245.977 292.211 245.385 292.519 244.862C292.827 244.33 293.242 243.91 293.765 243.602C294.297 243.294 294.885 243.14 295.529 243.14C296.154 243.14 296.705 243.285 297.181 243.574C297.666 243.863 298.044 244.26 298.315 244.764C298.595 245.268 298.735 245.842 298.735 246.486C298.735 246.598 298.725 246.715 298.707 246.836C298.697 246.948 298.679 247.074 298.651 247.214H293.135V245.954H297.853L297.279 246.458C297.26 246.047 297.181 245.702 297.041 245.422C296.901 245.142 296.7 244.927 296.439 244.778C296.187 244.629 295.874 244.554 295.501 244.554C295.109 244.554 294.768 244.638 294.479 244.806C294.189 244.974 293.965 245.212 293.807 245.52C293.648 245.819 293.569 246.178 293.569 246.598C293.569 247.018 293.653 247.387 293.821 247.704C293.989 248.021 294.227 248.269 294.535 248.446C294.843 248.614 295.197 248.698 295.599 248.698C295.944 248.698 296.261 248.637 296.551 248.516C296.849 248.395 297.101 248.217 297.307 247.984L298.287 248.978C297.96 249.361 297.563 249.65 297.097 249.846C296.63 250.042 296.135 250.14 295.613 250.14ZM302.167 250.14C301.794 250.14 301.435 250.093 301.089 250C300.744 249.897 300.427 249.757 300.137 249.58C299.848 249.393 299.596 249.169 299.381 248.908L300.361 247.928C300.595 248.199 300.861 248.404 301.159 248.544C301.467 248.675 301.813 248.74 302.195 248.74C302.541 248.74 302.802 248.689 302.979 248.586C303.157 248.483 303.245 248.334 303.245 248.138C303.245 247.933 303.161 247.774 302.993 247.662C302.825 247.55 302.606 247.457 302.335 247.382C302.074 247.298 301.794 247.214 301.495 247.13C301.206 247.046 300.926 246.934 300.655 246.794C300.394 246.645 300.179 246.444 300.011 246.192C299.843 245.94 299.759 245.613 299.759 245.212C299.759 244.783 299.857 244.414 300.053 244.106C300.259 243.798 300.543 243.56 300.907 243.392C301.281 243.224 301.724 243.14 302.237 243.14C302.779 243.14 303.255 243.238 303.665 243.434C304.085 243.621 304.435 243.905 304.715 244.288L303.735 245.268C303.539 245.025 303.315 244.843 303.063 244.722C302.811 244.601 302.522 244.54 302.195 244.54C301.887 244.54 301.649 244.587 301.481 244.68C301.313 244.773 301.229 244.909 301.229 245.086C301.229 245.273 301.313 245.417 301.481 245.52C301.649 245.623 301.864 245.711 302.125 245.786C302.396 245.861 302.676 245.945 302.965 246.038C303.264 246.122 303.544 246.243 303.805 246.402C304.076 246.551 304.295 246.757 304.463 247.018C304.631 247.27 304.715 247.601 304.715 248.012C304.715 248.665 304.487 249.183 304.029 249.566C303.572 249.949 302.951 250.14 302.167 250.14ZM307.007 250V240.48H308.547V250H307.007ZM305.397 244.68V243.28H310.157V244.68H305.397ZM311.276 250V239.92H312.816V250H311.276ZM317.344 250.14C316.737 250.14 316.186 249.986 315.692 249.678C315.206 249.37 314.819 248.955 314.53 248.432C314.25 247.9 314.11 247.307 314.11 246.654C314.11 245.991 314.25 245.399 314.53 244.876C314.819 244.344 315.206 243.924 315.692 243.616C316.186 243.299 316.737 243.14 317.344 243.14C317.857 243.14 318.31 243.252 318.702 243.476C319.103 243.691 319.42 243.989 319.654 244.372C319.887 244.755 320.004 245.189 320.004 245.674V247.606C320.004 248.091 319.887 248.525 319.654 248.908C319.43 249.291 319.117 249.594 318.716 249.818C318.314 250.033 317.857 250.14 317.344 250.14ZM317.596 248.684C318.165 248.684 318.622 248.493 318.968 248.11C319.322 247.727 319.5 247.237 319.5 246.64C319.5 246.239 319.42 245.884 319.262 245.576C319.103 245.268 318.879 245.03 318.59 244.862C318.31 244.685 317.978 244.596 317.596 244.596C317.222 244.596 316.891 244.685 316.602 244.862C316.322 245.03 316.098 245.268 315.93 245.576C315.771 245.884 315.692 246.239 315.692 246.64C315.692 247.041 315.771 247.396 315.93 247.704C316.098 248.012 316.322 248.255 316.602 248.432C316.891 248.6 317.222 248.684 317.596 248.684ZM319.402 250V248.194L319.668 246.556L319.402 244.932V243.28H320.942V250H319.402ZM327.257 250V246.122C327.257 245.674 327.112 245.305 326.823 245.016C326.543 244.727 326.179 244.582 325.731 244.582C325.432 244.582 325.166 244.647 324.933 244.778C324.7 244.909 324.518 245.091 324.387 245.324C324.256 245.557 324.191 245.823 324.191 246.122L323.589 245.786C323.589 245.273 323.701 244.82 323.925 244.428C324.149 244.027 324.457 243.714 324.849 243.49C325.25 243.257 325.698 243.14 326.193 243.14C326.697 243.14 327.145 243.271 327.537 243.532C327.929 243.784 328.237 244.115 328.461 244.526C328.685 244.927 328.797 245.347 328.797 245.786V250H327.257ZM322.651 250V243.28H324.191V250H322.651ZM333.176 250.14C332.569 250.14 332.018 249.986 331.524 249.678C331.038 249.37 330.651 248.955 330.362 248.432C330.082 247.9 329.942 247.307 329.942 246.654C329.942 245.991 330.082 245.399 330.362 244.876C330.651 244.344 331.038 243.924 331.524 243.616C332.018 243.299 332.569 243.14 333.176 243.14C333.689 243.14 334.142 243.252 334.534 243.476C334.935 243.691 335.252 243.989 335.486 244.372C335.719 244.755 335.836 245.189 335.836 245.674V247.606C335.836 248.091 335.719 248.525 335.486 248.908C335.262 249.291 334.949 249.594 334.548 249.818C334.146 250.033 333.689 250.14 333.176 250.14ZM333.428 248.684C333.81 248.684 334.142 248.6 334.422 248.432C334.711 248.255 334.935 248.012 335.094 247.704C335.252 247.396 335.332 247.041 335.332 246.64C335.332 246.239 335.252 245.884 335.094 245.576C334.935 245.268 334.711 245.03 334.422 244.862C334.142 244.685 333.81 244.596 333.428 244.596C333.054 244.596 332.723 244.685 332.434 244.862C332.154 245.03 331.93 245.268 331.762 245.576C331.603 245.884 331.524 246.239 331.524 246.64C331.524 247.041 331.603 247.396 331.762 247.704C331.93 248.012 332.154 248.255 332.434 248.432C332.723 248.6 333.054 248.684 333.428 248.684ZM336.774 250H335.234V248.194L335.5 246.556L335.234 244.932V239.92H336.774V250ZM340.681 250.14C340.308 250.14 339.948 250.093 339.603 250C339.258 249.897 338.94 249.757 338.651 249.58C338.362 249.393 338.11 249.169 337.895 248.908L338.875 247.928C339.108 248.199 339.374 248.404 339.673 248.544C339.981 248.675 340.326 248.74 340.709 248.74C341.054 248.74 341.316 248.689 341.493 248.586C341.67 248.483 341.759 248.334 341.759 248.138C341.759 247.933 341.675 247.774 341.507 247.662C341.339 247.55 341.12 247.457 340.849 247.382C340.588 247.298 340.308 247.214 340.009 247.13C339.72 247.046 339.44 246.934 339.169 246.794C338.908 246.645 338.693 246.444 338.525 246.192C338.357 245.94 338.273 245.613 338.273 245.212C338.273 244.783 338.371 244.414 338.567 244.106C338.772 243.798 339.057 243.56 339.421 243.392C339.794 243.224 340.238 243.14 340.751 243.14C341.292 243.14 341.768 243.238 342.179 243.434C342.599 243.621 342.949 243.905 343.229 244.288L342.249 245.268C342.053 245.025 341.829 244.843 341.577 244.722C341.325 244.601 341.036 244.54 340.709 244.54C340.401 244.54 340.163 244.587 339.995 244.68C339.827 244.773 339.743 244.909 339.743 245.086C339.743 245.273 339.827 245.417 339.995 245.52C340.163 245.623 340.378 245.711 340.639 245.786C340.91 245.861 341.19 245.945 341.479 246.038C341.778 246.122 342.058 246.243 342.319 246.402C342.59 246.551 342.809 246.757 342.977 247.018C343.145 247.27 343.229 247.601 343.229 248.012C343.229 248.665 343 249.183 342.543 249.566C342.086 249.949 341.465 250.14 340.681 250.14Z" fill="black"/>
</g>
</g>
<path d="M1 0.75H0.75V1V544V544.25H1H615H615.25V544V1V0.75H615H1Z" stroke="#B4A9A9" stroke-width="0.5"/>
<defs>
<filter id="filter0_b_369_154" x="-26" y="-3" width="667" height="73" filterUnits="userSpaceOnUse" color-interpolation-filters="sRGB">
<feFlood flood-opacity="0" result="BackgroundImageFix"/>
<feGaussianBlur in="BackgroundImageFix" stdDeviation="2"/>
<feComposite in2="SourceAlpha" operator="in" result="effect1_backgroundBlur_369_154"/>
<feBlend mode="normal" in="SourceGraphic" in2="effect1_backgroundBlur_369_154" result="shape"/>
</filter>
<filter id="filter1_b_369_154" x="16" y="123" width="353" height="65" filterUnits="userSpaceOnUse" color-interpolation-filters="sRGB">
<feFlood flood-opacity="0" result="BackgroundImageFix"/>
<feGaussianBlur in="BackgroundImageFix" stdDeviation="2"/>
<feComposite in2="SourceAlpha" operator="in" result="effect1_backgroundBlur_369_154"/>
<feBlend mode="normal" in="SourceGraphic" in2="effect1_backgroundBlur_369_154" result="shape"/>
</filter>
<filter id="filter2_b_369_154" x="25" y="301" width="417" height="65" filterUnits="userSpaceOnUse" color-interpolation-filters="sRGB">
<feFlood flood-opacity="0" result="BackgroundImageFix"/>
<feGaussianBlur in="BackgroundImageFix" stdDeviation="2"/>
<feComposite in2="SourceAlpha" operator="in" result="effect1_backgroundBlur_369_154"/>
<feBlend mode="normal" in="SourceGraphic" in2="effect1_backgroundBlur_369_154" result="shape"/>
</filter>
<filter id="filter3_b_369_154" x="24" y="213" width="345" height="63" filterUnits="userSpaceOnUse" color-interpolation-filters="sRGB">
<feFlood flood-opacity="0" result="BackgroundImageFix"/>
<feGaussianBlur in="BackgroundImageFix" stdDeviation="2"/>
<feComposite in2="SourceAlpha" operator="in" result="effect1_backgroundBlur_369_154"/>
<feBlend mode="normal" in="SourceGraphic" in2="effect1_backgroundBlur_369_154" result="shape"/>
</filter>
<clipPath id="clip0_369_154">
<path d="M1 1H615V544H1V1Z" fill="white"/>
</clipPath>
</defs>
</svg>
