<svg width="296" height="171" viewBox="0 0 296 171" fill="none" xmlns="http://www.w3.org/2000/svg">
<g clip-path="url(#clip0_158_307)">
<path d="M64.1351 151.789C72.6368 151.789 79.5288 144.859 79.5288 136.312C79.5288 127.764 72.6368 120.834 64.1351 120.834C55.6334 120.834 48.7415 127.764 48.7415 136.312C48.7415 144.859 55.6334 151.789 64.1351 151.789Z" fill="#F2F2F2"/>
<path d="M66.6381 149.524C75.1398 149.524 82.0317 142.594 82.0317 134.047C82.0317 125.499 75.1398 118.569 66.6381 118.569C58.1364 118.569 51.2444 125.499 51.2444 134.047C51.2444 142.594 58.1364 149.524 66.6381 149.524Z" fill="#00BFA6"/>
<path d="M269.497 116.921H79.0354V117.444H269.497V116.921Z" fill="#3F3D56"/>
<path d="M177.675 4.8729H110.073V3.47198H79.42V4.8729H11.5393C10.9388 4.8729 10.3442 4.99182 9.7894 5.22287C9.2346 5.45392 8.7305 5.79258 8.30588 6.21951C7.88126 6.64644 7.54444 7.15328 7.31463 7.71108C7.08483 8.2689 6.96655 8.86675 6.96655 9.47052V102.542C6.96655 103.761 7.44832 104.931 8.30588 105.793C9.16344 106.655 10.3265 107.139 11.5393 107.139H177.675C178.888 107.139 180.051 106.655 180.909 105.793C181.766 104.931 182.248 103.761 182.248 102.542V9.47052C182.248 8.86675 182.13 8.2689 181.9 7.71108C181.67 7.15328 181.333 6.64644 180.909 6.21951C180.484 5.79258 179.98 5.45392 179.425 5.22287C178.87 4.99182 178.276 4.8729 177.675 4.8729Z" fill="#3F3D56"/>
<path d="M176.118 12.9982H13.0974V105.458H176.118V12.9982Z" fill="#00BFA6"/>
<path d="M94.4681 10.4765C95.3916 10.4765 96.1401 9.72388 96.1401 8.79544C96.1401 7.867 95.3916 7.11435 94.4681 7.11435C93.5447 7.11435 92.7961 7.867 92.7961 8.79544C92.7961 9.72388 93.5447 10.4765 94.4681 10.4765Z" fill="#00BFA6"/>
<path opacity="0.1" d="M129.497 105.458H13.0974V12.9983L129.497 105.458Z" fill="black"/>
<path d="M38.6051 98.5395C47.2594 98.5395 54.2751 91.4856 54.2751 82.7843C54.2751 74.0829 47.2594 67.0291 38.6051 67.0291C29.9508 67.0291 22.9351 74.0829 22.9351 82.7843C22.9351 91.4856 29.9508 98.5395 38.6051 98.5395Z" fill="#F2F2F2"/>
<path d="M147.733 62.8626H132.505V66.0619H147.733V62.8626Z" fill="#3F3D56"/>
<path d="M166.143 37.9543H114.095V39.3254H166.143V37.9543Z" fill="#3F3D56"/>
<path d="M166.143 42.2961H114.095V43.6672H166.143V42.2961Z" fill="#3F3D56"/>
<path d="M166.143 46.6379H114.095V48.009H166.143V46.6379Z" fill="#3F3D56"/>
<path d="M166.143 50.9797H114.095V52.3508H166.143V50.9797Z" fill="#3F3D56"/>
<path d="M166.143 55.3216H114.095V56.6927H166.143V55.3216Z" fill="#3F3D56"/>
<path d="M166.143 14.874H159.779V21.2725H166.143V14.874Z" fill="#F2F2F2"/>
<path d="M169.097 24.2432H161.37V16.4736H169.097V24.2432ZM161.706 23.9054H168.761V16.8114H161.706V23.9054Z" fill="#3F3D56"/>
<path d="M186.825 103.777H170.916V102.625C170.916 102.595 170.91 102.565 170.898 102.537C170.887 102.509 170.87 102.484 170.849 102.463C170.828 102.442 170.803 102.425 170.775 102.414C170.748 102.402 170.718 102.396 170.688 102.396H165.234C165.204 102.396 165.174 102.402 165.147 102.414C165.119 102.425 165.094 102.442 165.073 102.463C165.052 102.484 165.035 102.509 165.024 102.537C165.012 102.565 165.006 102.595 165.006 102.625V103.777H161.597V102.625C161.597 102.595 161.591 102.565 161.58 102.537C161.568 102.509 161.552 102.484 161.531 102.463C161.51 102.442 161.484 102.425 161.457 102.414C161.429 102.402 161.4 102.396 161.37 102.396H155.915C155.885 102.396 155.856 102.402 155.828 102.414C155.801 102.425 155.776 102.442 155.754 102.463C155.733 102.484 155.717 102.509 155.705 102.537C155.694 102.565 155.688 102.595 155.688 102.625V103.777H152.279V102.625C152.279 102.595 152.273 102.565 152.261 102.537C152.25 102.509 152.233 102.484 152.212 102.463C152.191 102.442 152.166 102.425 152.138 102.414C152.111 102.402 152.081 102.396 152.051 102.396H146.597C146.567 102.396 146.537 102.402 146.51 102.414C146.482 102.425 146.457 102.442 146.436 102.463C146.415 102.484 146.398 102.509 146.387 102.537C146.375 102.565 146.369 102.595 146.369 102.625V103.777H142.96V102.625C142.96 102.595 142.954 102.565 142.943 102.537C142.931 102.509 142.915 102.484 142.894 102.463C142.872 102.442 142.847 102.425 142.82 102.414C142.792 102.402 142.763 102.396 142.733 102.396H137.278C137.248 102.396 137.219 102.402 137.191 102.414C137.163 102.425 137.138 102.442 137.117 102.463C137.096 102.484 137.079 102.509 137.068 102.537C137.057 102.565 137.051 102.595 137.051 102.625V103.777H133.642V102.625C133.642 102.595 133.636 102.565 133.624 102.537C133.613 102.509 133.596 102.484 133.575 102.463C133.554 102.442 133.529 102.425 133.501 102.414C133.474 102.402 133.444 102.396 133.414 102.396H127.96C127.93 102.396 127.9 102.402 127.873 102.414C127.845 102.425 127.82 102.442 127.799 102.463C127.778 102.484 127.761 102.509 127.75 102.537C127.738 102.565 127.732 102.595 127.732 102.625V103.777H124.323V102.625C124.323 102.595 124.317 102.565 124.306 102.537C124.294 102.509 124.278 102.484 124.256 102.463C124.235 102.442 124.21 102.425 124.183 102.414C124.155 102.402 124.126 102.396 124.096 102.396H118.641C118.611 102.396 118.582 102.402 118.554 102.414C118.526 102.425 118.501 102.442 118.48 102.463C118.459 102.484 118.442 102.509 118.431 102.537C118.42 102.565 118.414 102.595 118.414 102.625V103.777H115.004V102.625C115.004 102.595 114.999 102.565 114.987 102.537C114.976 102.509 114.959 102.484 114.938 102.463C114.917 102.442 114.892 102.425 114.864 102.414C114.837 102.402 114.807 102.396 114.777 102.396H72.0483C72.0184 102.396 71.9889 102.402 71.9613 102.414C71.9337 102.425 71.9086 102.442 71.8875 102.463C71.8664 102.484 71.8497 102.509 71.8383 102.537C71.8269 102.565 71.821 102.595 71.821 102.625V103.777H68.4118V102.625C68.4118 102.595 68.4059 102.565 68.3945 102.537C68.383 102.509 68.3663 102.484 68.3452 102.463C68.3241 102.442 68.299 102.425 68.2714 102.414C68.2439 102.402 68.2143 102.396 68.1845 102.396H62.7297C62.6999 102.396 62.6703 102.402 62.6427 102.414C62.6152 102.425 62.5901 102.442 62.569 102.463C62.5479 102.484 62.5311 102.509 62.5197 102.537C62.5083 102.565 62.5024 102.595 62.5024 102.625V103.777H59.0932V102.625C59.0932 102.595 59.0873 102.565 59.0759 102.537C59.0645 102.509 59.0477 102.484 59.0266 102.463C59.0055 102.442 58.9805 102.425 58.9529 102.414C58.9253 102.402 58.8958 102.396 58.8659 102.396H53.4112C53.3813 102.396 53.3518 102.402 53.3242 102.414C53.2966 102.425 53.2716 102.442 53.2505 102.463C53.2293 102.484 53.2126 102.509 53.2012 102.537C53.1898 102.565 53.1839 102.595 53.1839 102.625V103.777H49.7747V102.625C49.7747 102.595 49.7688 102.565 49.7574 102.537C49.7459 102.509 49.7292 102.484 49.7081 102.463C49.687 102.442 49.6619 102.425 49.6344 102.414C49.6068 102.402 49.5772 102.396 49.5474 102.396H44.0926C44.0628 102.396 44.0332 102.402 44.0056 102.414C43.9781 102.425 43.953 102.442 43.9319 102.463C43.9108 102.484 43.8941 102.509 43.8826 102.537C43.8712 102.565 43.8653 102.595 43.8653 102.625V103.777H40.4561V102.625C40.4561 102.595 40.4502 102.565 40.4388 102.537C40.4274 102.509 40.4107 102.484 40.3896 102.463C40.3685 102.442 40.3434 102.425 40.3158 102.414C40.2882 102.402 40.2587 102.396 40.2288 102.396H34.7741C34.7442 102.396 34.7147 102.402 34.6871 102.414C34.6595 102.425 34.6345 102.442 34.6134 102.463C34.5923 102.484 34.5755 102.509 34.5641 102.537C34.5527 102.565 34.5468 102.595 34.5468 102.625V103.777H31.1376V102.625C31.1376 102.595 31.1317 102.565 31.1203 102.537C31.1089 102.509 31.0921 102.484 31.071 102.463C31.0499 102.442 31.0248 102.425 30.9973 102.414C30.9697 102.402 30.9401 102.396 30.9103 102.396H25.4555C25.4257 102.396 25.3961 102.402 25.3686 102.414C25.341 102.425 25.3159 102.442 25.2948 102.463C25.2737 102.484 25.257 102.509 25.2456 102.537C25.2341 102.565 25.2283 102.595 25.2283 102.625V103.777H21.819V102.625C21.819 102.595 21.8132 102.565 21.8017 102.537C21.7903 102.509 21.7736 102.484 21.7525 102.463C21.7314 102.442 21.7063 102.425 21.6787 102.414C21.6512 102.402 21.6216 102.396 21.5917 102.396H16.137C16.1071 102.396 16.0776 102.402 16.05 102.414C16.0224 102.425 15.9974 102.442 15.9763 102.463C15.9552 102.484 15.9384 102.509 15.927 102.537C15.9156 102.565 15.9097 102.595 15.9097 102.625V103.777H5.45476C4.00807 103.777 2.62063 104.355 1.59766 105.384C0.574698 106.412 1.37826e-06 107.807 0 109.262V111.742C4.13479e-06 113.196 0.574702 114.591 1.59767 115.62C2.62063 116.648 4.00807 117.226 5.45476 117.226H186.825C188.272 117.226 189.66 116.648 190.683 115.62C191.706 114.591 192.28 113.196 192.28 111.742V109.262C192.28 107.807 191.706 106.412 190.683 105.384C189.66 104.355 188.272 103.777 186.825 103.777Z" fill="#3F3D56"/>
<path d="M42.3981 92.6247C38.4924 92.6247 34.6744 91.4603 31.4269 89.2785C28.1794 87.0968 25.6483 83.9959 24.1536 80.3679C22.6589 76.7398 22.2679 72.7476 23.0298 68.8961C23.7918 65.0446 25.6726 61.5068 28.4344 58.73C31.1961 55.9532 34.7148 54.0622 38.5455 53.2961C42.3762 52.53 46.3468 52.9232 49.9552 54.426C53.5636 55.9287 56.6478 58.4736 58.8177 61.7388C60.9876 65.0039 62.1458 68.8427 62.1458 72.7697C62.1399 78.0337 60.0574 83.0805 56.3553 86.8027C52.6532 90.525 47.6337 92.6188 42.3981 92.6247ZM42.3981 53.4371C38.5952 53.4371 34.8776 54.5709 31.7156 56.6952C28.5536 58.8195 26.089 61.8388 24.6337 65.3714C23.1784 68.904 22.7976 72.7911 23.5395 76.5413C24.2815 80.2914 26.1127 83.7361 28.8018 86.4398C31.4909 89.1436 34.917 90.9848 38.6469 91.7308C42.3768 92.4767 46.2429 92.0939 49.7563 90.6306C53.2698 89.1674 56.2728 86.6895 58.3856 83.5103C60.4984 80.331 61.6261 76.5933 61.6261 72.7697C61.6203 67.6441 59.5927 62.7302 55.988 59.1059C52.3833 55.4816 47.4959 53.4429 42.3981 53.4371Z" fill="#3F3D56"/>
<path d="M218.568 8.50195H152.31V9.02445H218.568V8.50195Z" fill="#3F3D56"/>
<path d="M296 146.442H105.539V146.965H296V146.442Z" fill="#3F3D56"/>
<path d="M116.322 170.477H50.0635V171H116.322V170.477Z" fill="#3F3D56"/>
<path d="M129.659 143.688H122.384V151.003H129.659V143.688Z" fill="#00BFA6"/>
<path d="M134.076 146.823H125.242V137.94H134.076V146.823ZM125.626 146.437H133.692V138.327H125.626V146.437Z" fill="#3F3D56"/>
<path d="M214.107 5.74753H206.831V13.0626H214.107V5.74753Z" fill="#00BFA6"/>
<path d="M218.524 8.88253H209.689V0H218.524V8.88253ZM210.074 8.49633H218.14V0.386198H210.074V8.49633Z" fill="#3F3D56"/>
<path d="M287.381 143.688H280.105V151.003H287.381V143.688Z" fill="#00BFA6"/>
<path d="M291.798 146.823H282.964V137.94H291.798V146.823ZM283.348 146.437H291.414V138.327H283.348V146.437Z" fill="#3F3D56"/>
<path d="M274.693 60.5993H274.075V43.5758C274.075 42.2819 273.822 41.0007 273.329 39.8053C272.837 38.6099 272.115 37.5237 271.205 36.6088C270.295 35.6939 269.215 34.9682 268.026 34.473C266.837 33.9779 265.563 33.723 264.276 33.723H228.404C227.117 33.723 225.843 33.9779 224.654 34.473C223.465 34.9682 222.385 35.6939 221.475 36.6088C220.565 37.5237 219.843 38.6099 219.351 39.8053C218.858 41.0007 218.605 42.2819 218.605 43.5758V136.968C218.605 138.262 218.858 139.543 219.351 140.739C219.843 141.934 220.565 143.02 221.475 143.935C222.385 144.85 223.465 145.576 224.654 146.071C225.843 146.566 227.117 146.821 228.404 146.821H264.276C265.563 146.821 266.837 146.566 268.026 146.071C269.215 145.576 270.295 144.85 271.205 143.935C272.115 143.02 272.837 141.934 273.329 140.739C273.822 139.543 274.075 138.262 274.075 136.968V72.7169H274.693V60.5993Z" fill="#3F3D56"/>
<path d="M271.988 44.1549V137.411C271.989 139.362 271.218 141.234 269.846 142.614C268.474 143.994 266.612 144.77 264.671 144.77H228.627C226.686 144.77 224.824 143.994 223.452 142.614C222.08 141.234 221.309 139.362 221.31 137.411V44.1549C221.31 42.2038 222.081 40.3327 223.453 38.953C224.825 37.5734 226.686 36.7982 228.627 36.798H233C232.784 37.3288 232.702 37.9046 232.761 38.4748C232.819 39.045 233.016 39.592 233.334 40.0677C233.652 40.5433 234.081 40.9331 234.585 41.2025C235.088 41.472 235.649 41.6129 236.219 41.6129H256.77C257.34 41.6129 257.901 41.472 258.404 41.2025C258.907 40.9331 259.337 40.5434 259.655 40.0677C259.973 39.592 260.17 39.045 260.228 38.4748C260.286 37.9046 260.204 37.3288 259.989 36.798H264.671C266.612 36.7982 268.473 37.5734 269.845 38.953C271.217 40.3327 271.988 42.2038 271.988 44.1549Z" fill="#00BFA6"/>
<path d="M252.018 98.2872H241.28V101.486H252.018V98.2872Z" fill="#3F3D56"/>
<path d="M264.999 73.3788H228.299V74.7499H264.999V73.3788Z" fill="#3F3D56"/>
<path d="M264.999 77.7206H228.299V79.0917H264.999V77.7206Z" fill="#3F3D56"/>
<path d="M264.999 82.0625H228.299V83.4336H264.999V82.0625Z" fill="#3F3D56"/>
<path d="M264.999 86.4043H228.299V87.7754H264.999V86.4043Z" fill="#3F3D56"/>
<path d="M264.999 90.7461H228.299V92.1172H264.999V90.7461Z" fill="#3F3D56"/>
<path d="M247.931 55.1706H241.567V61.5691H247.931V55.1706Z" fill="#F2F2F2"/>
<path d="M244.003 56.7707V64.5403H251.731V56.7707H244.003ZM251.396 64.2033H244.339V57.1077H251.396V64.2033Z" fill="#3F3D56"/>
<path opacity="0.1" d="M271.988 127.452V137.411C271.989 139.362 271.218 141.234 269.846 142.614C268.474 143.994 266.612 144.77 264.671 144.77H228.627C226.686 144.77 224.824 143.994 223.452 142.614C222.08 141.234 221.309 139.362 221.31 137.411V87.1959L251.677 111.317L252.197 111.73L257.845 116.216L258.373 116.636L271.988 127.452Z" fill="black"/>
<path d="M243.531 141.748C249.826 141.748 254.93 136.617 254.93 130.288C254.93 123.958 249.826 118.827 243.531 118.827C237.236 118.827 232.133 123.958 232.133 130.288C232.133 136.617 237.236 141.748 243.531 141.748Z" fill="#F2F2F2"/>
<path d="M83.1928 171C78.7218 171 74.3512 169.667 70.6337 167.17C66.9161 164.672 64.0187 161.122 62.3077 156.969C60.5967 152.816 60.149 148.246 61.0213 143.837C61.8935 139.428 64.0465 135.378 67.208 132.199C70.3695 129.021 74.3975 126.856 78.7826 125.979C83.1678 125.102 87.7131 125.552 91.8438 127.272C95.9744 128.993 99.505 131.906 101.989 135.644C104.473 139.381 105.799 143.776 105.799 148.271C105.792 154.297 103.408 160.074 99.1702 164.335C94.9322 168.596 89.1862 170.993 83.1928 171ZM83.1928 126.065C78.8246 126.065 74.5544 127.367 70.9224 129.807C67.2903 132.247 64.4595 135.716 62.7878 139.773C61.1162 143.831 60.6788 148.296 61.531 152.603C62.3832 156.911 64.4867 160.868 67.5755 163.973C70.6643 167.079 74.5997 169.194 78.884 170.051C83.1683 170.908 87.6091 170.468 91.6449 168.787C95.6806 167.106 99.13 164.26 101.557 160.608C103.984 156.957 105.279 152.663 105.279 148.271C105.272 142.384 102.943 136.739 98.8029 132.576C94.6623 128.413 89.0484 126.072 83.1928 126.065Z" fill="#3F3D56"/>
<path d="M246.891 139.127C244.064 139.127 241.301 138.285 238.951 136.706C236.601 135.127 234.769 132.883 233.687 130.257C232.606 127.632 232.323 124.743 232.874 121.955C233.426 119.168 234.787 116.608 236.785 114.598C238.784 112.589 241.33 111.22 244.103 110.666C246.875 110.111 249.748 110.396 252.36 111.484C254.971 112.571 257.203 114.413 258.773 116.776C260.344 119.139 261.182 121.917 261.182 124.759C261.178 128.568 259.67 132.22 256.991 134.914C254.312 137.608 250.68 139.123 246.891 139.127ZM246.891 110.912C244.167 110.912 241.504 111.724 239.24 113.246C236.975 114.767 235.21 116.93 234.168 119.46C233.125 121.99 232.853 124.774 233.384 127.46C233.915 130.146 235.227 132.613 237.153 134.549C239.079 136.486 241.533 137.805 244.204 138.339C246.875 138.873 249.644 138.599 252.161 137.551C254.677 136.503 256.828 134.728 258.341 132.451C259.854 130.174 260.662 127.497 260.662 124.759C260.658 121.088 259.206 117.568 256.624 114.972C254.042 112.377 250.542 110.916 246.891 110.912Z" fill="#3F3D56"/>
</g>
<defs>
<clipPath id="clip0_158_307">
<rect width="296" height="171" fill="white"/>
</clipPath>
</defs>
</svg>
