<svg width="337" height="55" viewBox="0 0 337 55" fill="none" xmlns="http://www.w3.org/2000/svg">
<g filter="url(#filter0_b_368_107)">
<rect width="337" height="55" rx="5" fill="white"/>
<path d="M21.2822 30.6738L23.9004 32.752L22.7861 33.7295L20.2158 31.6719L21.2822 30.6738ZM23.9209 26.75V27.2969C23.9209 28.0488 23.8229 28.7233 23.627 29.3203C23.431 29.9173 23.1507 30.4255 22.7861 30.8447C22.4215 31.264 21.9863 31.5853 21.4805 31.8086C20.9746 32.0273 20.4141 32.1367 19.7988 32.1367C19.1882 32.1367 18.6299 32.0273 18.124 31.8086C17.6227 31.5853 17.1875 31.264 16.8184 30.8447C16.4492 30.4255 16.1621 29.9173 15.957 29.3203C15.7565 28.7233 15.6562 28.0488 15.6562 27.2969V26.75C15.6562 25.998 15.7565 25.3258 15.957 24.7334C16.1576 24.1364 16.4401 23.6283 16.8047 23.209C17.1738 22.7852 17.609 22.4639 18.1104 22.2451C18.6162 22.0218 19.1745 21.9102 19.7852 21.9102C20.4004 21.9102 20.9609 22.0218 21.4668 22.2451C21.9772 22.4639 22.4147 22.7852 22.7793 23.209C23.1439 23.6283 23.4242 24.1364 23.6201 24.7334C23.8206 25.3258 23.9209 25.998 23.9209 26.75ZM22.1982 27.2969V26.7363C22.1982 26.1803 22.1436 25.6904 22.0342 25.2666C21.9294 24.8382 21.7721 24.4805 21.5625 24.1934C21.3574 23.9017 21.1045 23.6829 20.8037 23.5371C20.5075 23.3867 20.168 23.3115 19.7852 23.3115C19.4115 23.3115 19.0765 23.3867 18.7803 23.5371C18.484 23.6829 18.2311 23.9017 18.0215 24.1934C17.8118 24.4805 17.6523 24.8382 17.543 25.2666C17.4336 25.6904 17.3789 26.1803 17.3789 26.7363V27.2969C17.3789 27.8529 17.4336 28.3451 17.543 28.7734C17.6523 29.2018 17.8118 29.5641 18.0215 29.8604C18.2357 30.152 18.4909 30.373 18.7871 30.5234C19.0879 30.6693 19.4251 30.7422 19.7988 30.7422C20.1816 30.7422 20.5212 30.6693 20.8174 30.5234C21.1136 30.373 21.3643 30.152 21.5693 29.8604C21.7744 29.5641 21.9294 29.2018 22.0342 28.7734C22.1436 28.3451 22.1982 27.8529 22.1982 27.2969ZM28.8906 24.6035V25.8066H24.7207V24.6035H28.8906ZM25.9238 22.792H27.5713V29.9561C27.5713 30.1839 27.6032 30.3594 27.667 30.4824C27.7354 30.6009 27.8288 30.6807 27.9473 30.7217C28.0658 30.7627 28.2048 30.7832 28.3643 30.7832C28.4782 30.7832 28.5876 30.7764 28.6924 30.7627C28.7972 30.749 28.8815 30.7354 28.9453 30.7217L28.9521 31.9795C28.8154 32.0205 28.6559 32.057 28.4736 32.0889C28.2959 32.1208 28.0908 32.1367 27.8584 32.1367C27.4801 32.1367 27.1452 32.0706 26.8535 31.9385C26.5618 31.8018 26.334 31.5807 26.1699 31.2754C26.0059 30.9701 25.9238 30.5645 25.9238 30.0586V22.792ZM32.3086 31.1934L34.3184 24.6035H36.082L33.1152 33.1279C33.0469 33.3102 32.958 33.5085 32.8486 33.7227C32.7393 33.9368 32.5957 34.1396 32.418 34.3311C32.2448 34.527 32.0283 34.6842 31.7686 34.8027C31.5088 34.9258 31.1943 34.9873 30.8252 34.9873C30.6794 34.9873 30.5381 34.9736 30.4014 34.9463C30.2692 34.9235 30.1439 34.8984 30.0254 34.8711L30.0186 33.6133C30.0641 33.6178 30.1188 33.6224 30.1826 33.627C30.251 33.6315 30.3057 33.6338 30.3467 33.6338C30.6201 33.6338 30.848 33.5996 31.0303 33.5312C31.2126 33.4674 31.3607 33.3626 31.4746 33.2168C31.5931 33.071 31.6934 32.875 31.7754 32.6289L32.3086 31.1934ZM31.1738 24.6035L32.9307 30.1406L33.2246 31.877L32.083 32.1709L29.3965 24.6035H31.1738Z" fill="black"/>
<path d="M202.324 33V23.2H203.906V33H202.324ZM200.364 24.642V23.2H203.766V24.642H200.364Z" fill="black"/>
<path d="M172.507 35.1217L165.838 28.7542C165.05 28.0022 165.021 26.7425 165.773 25.9549L172.14 19.2859" stroke="black" stroke-width="1.5" stroke-miterlimit="10" stroke-linecap="round" stroke-linejoin="round"/>
<path d="M232.019 36.0707L238.65 29.6636C239.433 28.9069 239.454 27.6471 238.698 26.864L232.291 20.233" stroke="black" stroke-width="1.5" stroke-miterlimit="10" stroke-linecap="round" stroke-linejoin="round"/>
</g>
<defs>
<filter id="filter0_b_368_107" x="-4" y="-4" width="345" height="63" filterUnits="userSpaceOnUse" color-interpolation-filters="sRGB">
<feFlood flood-opacity="0" result="BackgroundImageFix"/>
<feGaussianBlur in="BackgroundImageFix" stdDeviation="2"/>
<feComposite in2="SourceAlpha" operator="in" result="effect1_backgroundBlur_368_107"/>
<feBlend mode="normal" in="SourceGraphic" in2="effect1_backgroundBlur_368_107" result="shape"/>
</filter>
</defs>
</svg>
