<svg width="347" height="65" viewBox="0 0 347 65" fill="none" xmlns="http://www.w3.org/2000/svg">
<g filter="url(#filter0_b_368_99)">
<rect width="347" height="65" rx="5" fill="white"/>
<path d="M43.0117 26.0469H46.5322C47.2887 26.0469 47.9336 26.1608 48.4668 26.3887C49 26.6165 49.4079 26.9538 49.6904 27.4004C49.9775 27.8424 50.1211 28.3893 50.1211 29.041C50.1211 29.5378 50.0299 29.9753 49.8477 30.3535C49.6654 30.7318 49.4079 31.0508 49.0752 31.3105C48.7425 31.5658 48.346 31.764 47.8857 31.9053L47.3662 32.1582H44.2012L44.1875 30.7979H46.5596C46.9697 30.7979 47.3115 30.7249 47.585 30.5791C47.8584 30.4333 48.0635 30.235 48.2002 29.9844C48.3415 29.7292 48.4121 29.4421 48.4121 29.123C48.4121 28.7767 48.3438 28.4759 48.207 28.2207C48.0749 27.9609 47.8698 27.7627 47.5918 27.626C47.3138 27.4847 46.9606 27.4141 46.5322 27.4141H44.7275V36H43.0117V26.0469ZM48.6924 36L46.3545 31.5293L48.1523 31.5225L50.5244 35.9111V36H48.6924ZM54.9268 36.1367C54.3799 36.1367 53.8854 36.0479 53.4434 35.8701C53.0059 35.6878 52.6322 35.4349 52.3223 35.1113C52.0169 34.7878 51.7822 34.4072 51.6182 33.9697C51.4541 33.5322 51.3721 33.0605 51.3721 32.5547V32.2812C51.3721 31.7025 51.4564 31.1784 51.625 30.709C51.7936 30.2396 52.0283 29.8385 52.3291 29.5059C52.6299 29.1686 52.9854 28.9111 53.3955 28.7334C53.8057 28.5557 54.25 28.4668 54.7285 28.4668C55.2572 28.4668 55.7197 28.5557 56.1162 28.7334C56.5127 28.9111 56.8408 29.1618 57.1006 29.4854C57.3649 29.8044 57.5609 30.1849 57.6885 30.627C57.8206 31.069 57.8867 31.5566 57.8867 32.0898V32.7939H52.1719V31.6113H56.2598V31.4814C56.2507 31.1852 56.1914 30.9072 56.082 30.6475C55.9772 30.3877 55.8154 30.1781 55.5967 30.0186C55.3779 29.859 55.0863 29.7793 54.7217 29.7793C54.4482 29.7793 54.2044 29.8385 53.9902 29.957C53.7806 30.071 53.6051 30.2373 53.4639 30.4561C53.3226 30.6748 53.2132 30.9391 53.1357 31.249C53.0628 31.5544 53.0264 31.8984 53.0264 32.2812V32.5547C53.0264 32.8783 53.0697 33.179 53.1562 33.457C53.2474 33.7305 53.3796 33.9697 53.5527 34.1748C53.7259 34.3799 53.9355 34.5417 54.1816 34.6602C54.4277 34.7741 54.708 34.8311 55.0225 34.8311C55.4189 34.8311 55.7721 34.7513 56.082 34.5918C56.3919 34.4323 56.6608 34.2067 56.8887 33.915L57.7568 34.7559C57.5973 34.9883 57.39 35.2116 57.1348 35.4258C56.8796 35.6354 56.5674 35.8063 56.1982 35.9385C55.8337 36.0706 55.4098 36.1367 54.9268 36.1367ZM60.8057 30.1826V36H59.1582V28.6035H60.71L60.8057 30.1826ZM60.5117 32.0283L59.9785 32.0215C59.9831 31.4974 60.056 31.0166 60.1973 30.5791C60.3431 30.1416 60.5436 29.7656 60.7988 29.4512C61.0586 29.1367 61.3685 28.8952 61.7285 28.7266C62.0885 28.5534 62.4896 28.4668 62.9316 28.4668C63.2871 28.4668 63.6084 28.5169 63.8955 28.6172C64.1872 28.7129 64.4355 28.8701 64.6406 29.0889C64.8503 29.3076 65.0098 29.5924 65.1191 29.9434C65.2285 30.2897 65.2832 30.7158 65.2832 31.2217V36H63.6289V31.2148C63.6289 30.8594 63.5765 30.5791 63.4717 30.374C63.3714 30.1644 63.2233 30.0163 63.0273 29.9297C62.8359 29.8385 62.5967 29.793 62.3096 29.793C62.027 29.793 61.7741 29.8522 61.5508 29.9707C61.3275 30.0892 61.1383 30.251 60.9834 30.4561C60.833 30.6611 60.7168 30.8981 60.6348 31.167C60.5527 31.4359 60.5117 31.723 60.5117 32.0283ZM70.3555 28.6035V29.8066H66.1855V28.6035H70.3555ZM67.3887 26.792H69.0361V33.9561C69.0361 34.1839 69.068 34.3594 69.1318 34.4824C69.2002 34.6009 69.2936 34.6807 69.4121 34.7217C69.5306 34.7627 69.6696 34.7832 69.8291 34.7832C69.943 34.7832 70.0524 34.7764 70.1572 34.7627C70.262 34.749 70.3464 34.7354 70.4102 34.7217L70.417 35.9795C70.2803 36.0205 70.1208 36.057 69.9385 36.0889C69.7607 36.1208 69.5557 36.1367 69.3232 36.1367C68.945 36.1367 68.61 36.0706 68.3184 35.9385C68.0267 35.8018 67.7988 35.5807 67.6348 35.2754C67.4707 34.9701 67.3887 34.5645 67.3887 34.0586V26.792ZM73.3906 28.6035V36H71.7363V28.6035H73.3906ZM71.627 26.6621C71.627 26.4115 71.709 26.2041 71.873 26.04C72.0417 25.8714 72.2741 25.7871 72.5703 25.7871C72.862 25.7871 73.0921 25.8714 73.2607 26.04C73.4294 26.2041 73.5137 26.4115 73.5137 26.6621C73.5137 26.9082 73.4294 27.1133 73.2607 27.2773C73.0921 27.4414 72.862 27.5234 72.5703 27.5234C72.2741 27.5234 72.0417 27.4414 71.873 27.2773C71.709 27.1133 71.627 26.9082 71.627 26.6621ZM76.8291 30.1826V36H75.1816V28.6035H76.7334L76.8291 30.1826ZM76.5352 32.0283L76.002 32.0215C76.0065 31.4974 76.0794 31.0166 76.2207 30.5791C76.3665 30.1416 76.5671 29.7656 76.8223 29.4512C77.082 29.1367 77.3919 28.8952 77.752 28.7266C78.112 28.5534 78.513 28.4668 78.9551 28.4668C79.3105 28.4668 79.6318 28.5169 79.9189 28.6172C80.2106 28.7129 80.459 28.8701 80.6641 29.0889C80.8737 29.3076 81.0332 29.5924 81.1426 29.9434C81.252 30.2897 81.3066 30.7158 81.3066 31.2217V36H79.6523V31.2148C79.6523 30.8594 79.5999 30.5791 79.4951 30.374C79.3949 30.1644 79.2467 30.0163 79.0508 29.9297C78.8594 29.8385 78.6201 29.793 78.333 29.793C78.0505 29.793 77.7975 29.8522 77.5742 29.9707C77.3509 30.0892 77.1618 30.251 77.0068 30.4561C76.8564 30.6611 76.7402 30.8981 76.6582 31.167C76.5762 31.4359 76.5352 31.723 76.5352 32.0283ZM87.7256 28.6035H89.2227V35.7949C89.2227 36.4603 89.0814 37.0254 88.7988 37.4902C88.5163 37.9551 88.1221 38.3083 87.6162 38.5498C87.1104 38.7959 86.5247 38.9189 85.8594 38.9189C85.5768 38.9189 85.2624 38.8779 84.916 38.7959C84.5742 38.7139 84.2415 38.5817 83.918 38.3994C83.599 38.2217 83.3324 37.987 83.1182 37.6953L83.8906 36.7246C84.1549 37.0391 84.4466 37.2692 84.7656 37.415C85.0846 37.5609 85.4196 37.6338 85.7705 37.6338C86.1488 37.6338 86.4701 37.5632 86.7344 37.4219C87.0033 37.2852 87.2106 37.0824 87.3564 36.8135C87.5023 36.5446 87.5752 36.2165 87.5752 35.8291V30.2783L87.7256 28.6035ZM82.7012 32.3838V32.2402C82.7012 31.6797 82.7695 31.1693 82.9062 30.709C83.043 30.2441 83.2389 29.8454 83.4941 29.5127C83.7493 29.1755 84.0592 28.918 84.4238 28.7402C84.7884 28.5579 85.2008 28.4668 85.6611 28.4668C86.1396 28.4668 86.5475 28.5534 86.8848 28.7266C87.2266 28.8997 87.5114 29.1481 87.7393 29.4717C87.9671 29.7907 88.1449 30.1735 88.2725 30.6201C88.4046 31.0622 88.5026 31.5544 88.5664 32.0967V32.5547C88.5072 33.0833 88.4069 33.5664 88.2656 34.0039C88.1243 34.4414 87.9375 34.8197 87.7051 35.1387C87.4727 35.4577 87.1855 35.7038 86.8438 35.877C86.5065 36.0501 86.1077 36.1367 85.6475 36.1367C85.1963 36.1367 84.7884 36.0433 84.4238 35.8564C84.0638 35.6696 83.7539 35.4076 83.4941 35.0703C83.2389 34.7331 83.043 34.3366 82.9062 33.8809C82.7695 33.4206 82.7012 32.9215 82.7012 32.3838ZM84.3486 32.2402V32.3838C84.3486 32.721 84.3805 33.0355 84.4443 33.3271C84.5127 33.6188 84.6152 33.8763 84.752 34.0996C84.8932 34.3184 85.071 34.4915 85.2852 34.6191C85.5039 34.7422 85.7614 34.8037 86.0576 34.8037C86.445 34.8037 86.7617 34.7217 87.0078 34.5576C87.2585 34.3936 87.4499 34.1725 87.582 33.8945C87.7188 33.612 87.8145 33.2975 87.8691 32.9512V31.7139C87.8418 31.445 87.7848 31.1943 87.6982 30.9619C87.6162 30.7295 87.5046 30.5267 87.3633 30.3535C87.222 30.1758 87.0443 30.0391 86.8301 29.9434C86.6159 29.8431 86.363 29.793 86.0713 29.793C85.7751 29.793 85.5176 29.8568 85.2988 29.9844C85.0801 30.112 84.9001 30.2874 84.7588 30.5107C84.6221 30.734 84.5195 30.9938 84.4512 31.29C84.3828 31.5863 84.3486 31.903 84.3486 32.2402ZM98.3623 32.2881H95.7715V30.9277H98.3623C98.8135 30.9277 99.1781 30.8548 99.4561 30.709C99.734 30.5632 99.9368 30.3626 100.064 30.1074C100.197 29.8477 100.263 29.5514 100.263 29.2188C100.263 28.9043 100.197 28.6104 100.064 28.3369C99.9368 28.0589 99.734 27.8356 99.4561 27.667C99.1781 27.4984 98.8135 27.4141 98.3623 27.4141H96.2979V36H94.582V26.0469H98.3623C99.1325 26.0469 99.7865 26.1836 100.324 26.457C100.867 26.7259 101.279 27.0996 101.562 27.5781C101.844 28.0521 101.985 28.5944 101.985 29.2051C101.985 29.8477 101.844 30.3991 101.562 30.8594C101.279 31.3197 100.867 31.6729 100.324 31.9189C99.7865 32.165 99.1325 32.2881 98.3623 32.2881ZM105.014 30.0117V36H103.366V28.6035H104.938L105.014 30.0117ZM107.276 28.5557L107.263 30.0869C107.162 30.0687 107.053 30.055 106.935 30.0459C106.821 30.0368 106.707 30.0322 106.593 30.0322C106.31 30.0322 106.062 30.0732 105.848 30.1553C105.633 30.2327 105.453 30.3467 105.308 30.4971C105.166 30.6429 105.057 30.8206 104.979 31.0303C104.902 31.2399 104.856 31.4746 104.843 31.7344L104.467 31.7617C104.467 31.2969 104.512 30.8662 104.604 30.4697C104.695 30.0732 104.831 29.7246 105.014 29.4238C105.201 29.123 105.433 28.8883 105.711 28.7197C105.993 28.5511 106.319 28.4668 106.688 28.4668C106.789 28.4668 106.896 28.4759 107.01 28.4941C107.128 28.5124 107.217 28.5329 107.276 28.5557ZM110.072 28.6035V36H108.418V28.6035H110.072ZM108.309 26.6621C108.309 26.4115 108.391 26.2041 108.555 26.04C108.723 25.8714 108.956 25.7871 109.252 25.7871C109.544 25.7871 109.774 25.8714 109.942 26.04C110.111 26.2041 110.195 26.4115 110.195 26.6621C110.195 26.9082 110.111 27.1133 109.942 27.2773C109.774 27.4414 109.544 27.5234 109.252 27.5234C108.956 27.5234 108.723 27.4414 108.555 27.2773C108.391 27.1133 108.309 26.9082 108.309 26.6621ZM114.898 34.8242C115.167 34.8242 115.409 34.7718 115.623 34.667C115.842 34.5576 116.017 34.4072 116.149 34.2158C116.286 34.0244 116.361 33.8034 116.375 33.5527H117.927C117.918 34.0312 117.776 34.4665 117.503 34.8584C117.229 35.2503 116.867 35.5625 116.416 35.7949C115.965 36.0228 115.466 36.1367 114.919 36.1367C114.354 36.1367 113.862 36.041 113.442 35.8496C113.023 35.6536 112.674 35.3848 112.396 35.043C112.118 34.7012 111.909 34.307 111.768 33.8604C111.631 33.4137 111.562 32.9352 111.562 32.4248V32.1855C111.562 31.6751 111.631 31.1966 111.768 30.75C111.909 30.2988 112.118 29.9023 112.396 29.5605C112.674 29.2188 113.023 28.9521 113.442 28.7607C113.862 28.5648 114.352 28.4668 114.912 28.4668C115.505 28.4668 116.024 28.5853 116.471 28.8223C116.917 29.0547 117.268 29.3805 117.523 29.7998C117.783 30.2145 117.918 30.6976 117.927 31.249H116.375C116.361 30.9756 116.293 30.7295 116.17 30.5107C116.051 30.2874 115.883 30.1097 115.664 29.9775C115.45 29.8454 115.192 29.7793 114.892 29.7793C114.559 29.7793 114.283 29.8477 114.064 29.9844C113.846 30.1165 113.675 30.2988 113.552 30.5312C113.429 30.7591 113.34 31.0166 113.285 31.3037C113.235 31.5863 113.21 31.8802 113.21 32.1855V32.4248C113.21 32.7301 113.235 33.0264 113.285 33.3135C113.335 33.6006 113.422 33.8581 113.545 34.0859C113.673 34.3092 113.846 34.4893 114.064 34.626C114.283 34.7581 114.561 34.8242 114.898 34.8242ZM122.452 36.1367C121.905 36.1367 121.411 36.0479 120.969 35.8701C120.531 35.6878 120.158 35.4349 119.848 35.1113C119.542 34.7878 119.308 34.4072 119.144 33.9697C118.979 33.5322 118.897 33.0605 118.897 32.5547V32.2812C118.897 31.7025 118.982 31.1784 119.15 30.709C119.319 30.2396 119.554 29.8385 119.854 29.5059C120.155 29.1686 120.511 28.9111 120.921 28.7334C121.331 28.5557 121.775 28.4668 122.254 28.4668C122.783 28.4668 123.245 28.5557 123.642 28.7334C124.038 28.9111 124.366 29.1618 124.626 29.4854C124.89 29.8044 125.086 30.1849 125.214 30.627C125.346 31.069 125.412 31.5566 125.412 32.0898V32.7939H119.697V31.6113H123.785V31.4814C123.776 31.1852 123.717 30.9072 123.607 30.6475C123.503 30.3877 123.341 30.1781 123.122 30.0186C122.903 29.859 122.612 29.7793 122.247 29.7793C121.974 29.7793 121.73 29.8385 121.516 29.957C121.306 30.071 121.131 30.2373 120.989 30.4561C120.848 30.6748 120.739 30.9391 120.661 31.249C120.588 31.5544 120.552 31.8984 120.552 32.2812V32.5547C120.552 32.8783 120.595 33.179 120.682 33.457C120.773 33.7305 120.905 33.9697 121.078 34.1748C121.251 34.3799 121.461 34.5417 121.707 34.6602C121.953 34.7741 122.233 34.8311 122.548 34.8311C122.944 34.8311 123.298 34.7513 123.607 34.5918C123.917 34.4323 124.186 34.2067 124.414 33.915L125.282 34.7559C125.123 34.9883 124.915 35.2116 124.66 35.4258C124.405 35.6354 124.093 35.8063 123.724 35.9385C123.359 36.0706 122.935 36.1367 122.452 36.1367Z" fill="black"/>
<rect x="162" y="11" width="155" height="38" rx="5" fill="#2CCBBB"/>
<path d="M210.392 34.048L214.004 30.212C214.303 29.8947 214.545 29.61 214.732 29.358C214.919 29.106 215.054 28.868 215.138 28.644C215.222 28.42 215.264 28.1913 215.264 27.958C215.264 27.5193 215.119 27.1787 214.83 26.936C214.55 26.684 214.191 26.558 213.752 26.558C213.285 26.558 212.875 26.6747 212.52 26.908C212.165 27.1413 211.848 27.5053 211.568 28L210.448 27.076C210.831 26.4133 211.302 25.914 211.862 25.578C212.422 25.2327 213.071 25.06 213.808 25.06C214.415 25.06 214.947 25.1813 215.404 25.424C215.861 25.6667 216.216 26.0073 216.468 26.446C216.72 26.8753 216.846 27.3747 216.846 27.944C216.846 28.3547 216.795 28.7233 216.692 29.05C216.599 29.3673 216.435 29.6893 216.202 30.016C215.969 30.3333 215.647 30.7067 215.236 31.136L212.464 34.006L210.392 34.048ZM210.392 35V34.048L211.778 33.558H217.042V35H210.392ZM222.18 35.14C221.443 35.14 220.766 34.9347 220.15 34.524C219.544 34.104 219.058 33.516 218.694 32.76C218.33 32.004 218.148 31.1127 218.148 30.086C218.148 29.0593 218.326 28.1727 218.68 27.426C219.044 26.67 219.53 26.0867 220.136 25.676C220.743 25.2653 221.415 25.06 222.152 25.06C222.899 25.06 223.576 25.2653 224.182 25.676C224.789 26.0867 225.27 26.67 225.624 27.426C225.988 28.1727 226.17 29.064 226.17 30.1C226.17 31.1267 225.988 32.018 225.624 32.774C225.27 33.53 224.789 34.1133 224.182 34.524C223.585 34.9347 222.918 35.14 222.18 35.14ZM222.152 33.628C222.638 33.628 223.058 33.4973 223.412 33.236C223.767 32.9747 224.042 32.5827 224.238 32.06C224.444 31.5373 224.546 30.8793 224.546 30.086C224.546 29.302 224.444 28.6487 224.238 28.126C224.042 27.6033 223.762 27.216 223.398 26.964C223.044 26.7027 222.628 26.572 222.152 26.572C221.676 26.572 221.256 26.7027 220.892 26.964C220.538 27.216 220.262 27.6033 220.066 28.126C219.87 28.6393 219.772 29.2927 219.772 30.086C219.772 30.8793 219.87 31.5373 220.066 32.06C220.262 32.5827 220.538 32.9747 220.892 33.236C221.256 33.4973 221.676 33.628 222.152 33.628ZM231.354 35.14C230.617 35.14 229.94 34.9347 229.324 34.524C228.717 34.104 228.232 33.516 227.868 32.76C227.504 32.004 227.322 31.1127 227.322 30.086C227.322 29.0593 227.499 28.1727 227.854 27.426C228.218 26.67 228.703 26.0867 229.31 25.676C229.917 25.2653 230.589 25.06 231.326 25.06C232.073 25.06 232.749 25.2653 233.356 25.676C233.963 26.0867 234.443 26.67 234.798 27.426C235.162 28.1727 235.344 29.064 235.344 30.1C235.344 31.1267 235.162 32.018 234.798 32.774C234.443 33.53 233.963 34.1133 233.356 34.524C232.759 34.9347 232.091 35.14 231.354 35.14ZM231.326 33.628C231.811 33.628 232.231 33.4973 232.586 33.236C232.941 32.9747 233.216 32.5827 233.412 32.06C233.617 31.5373 233.72 30.8793 233.72 30.086C233.72 29.302 233.617 28.6487 233.412 28.126C233.216 27.6033 232.936 27.216 232.572 26.964C232.217 26.7027 231.802 26.572 231.326 26.572C230.85 26.572 230.43 26.7027 230.066 26.964C229.711 27.216 229.436 27.6033 229.24 28.126C229.044 28.6393 228.946 29.2927 228.946 30.086C228.946 30.8793 229.044 31.5373 229.24 32.06C229.436 32.5827 229.711 32.9747 230.066 33.236C230.43 33.4973 230.85 33.628 231.326 33.628ZM240.528 35.14C239.791 35.14 239.114 34.9347 238.498 34.524C237.891 34.104 237.406 33.516 237.042 32.76C236.678 32.004 236.496 31.1127 236.496 30.086C236.496 29.0593 236.673 28.1727 237.028 27.426C237.392 26.67 237.877 26.0867 238.484 25.676C239.091 25.2653 239.763 25.06 240.5 25.06C241.247 25.06 241.923 25.2653 242.53 25.676C243.137 26.0867 243.617 26.67 243.972 27.426C244.336 28.1727 244.518 29.064 244.518 30.1C244.518 31.1267 244.336 32.018 243.972 32.774C243.617 33.53 243.137 34.1133 242.53 34.524C241.933 34.9347 241.265 35.14 240.528 35.14ZM240.5 33.628C240.985 33.628 241.405 33.4973 241.76 33.236C242.115 32.9747 242.39 32.5827 242.586 32.06C242.791 31.5373 242.894 30.8793 242.894 30.086C242.894 29.302 242.791 28.6487 242.586 28.126C242.39 27.6033 242.11 27.216 241.746 26.964C241.391 26.7027 240.976 26.572 240.5 26.572C240.024 26.572 239.604 26.7027 239.24 26.964C238.885 27.216 238.61 27.6033 238.414 28.126C238.218 28.6393 238.12 29.2927 238.12 30.086C238.12 30.8793 238.218 31.5373 238.414 32.06C238.61 32.5827 238.885 32.9747 239.24 33.236C239.604 33.4973 240.024 33.628 240.5 33.628ZM252.082 35L247.546 29.89L251.984 25.2H254.042L249.142 30.296L249.156 29.414L254.182 35H252.082ZM246.16 35V25.2H247.77V35H246.16ZM257.808 35.14C257.136 35.14 256.529 34.9907 255.988 34.692C255.456 34.384 255.031 33.964 254.714 33.432C254.406 32.9 254.252 32.3027 254.252 31.64C254.252 30.9773 254.406 30.3847 254.714 29.862C255.022 29.33 255.437 28.91 255.96 28.602C256.492 28.294 257.08 28.14 257.724 28.14C258.349 28.14 258.9 28.2847 259.376 28.574C259.861 28.8633 260.239 29.26 260.51 29.764C260.79 30.268 260.93 30.842 260.93 31.486C260.93 31.598 260.921 31.7147 260.902 31.836C260.893 31.948 260.874 32.074 260.846 32.214H255.33V30.954H260.048L259.474 31.458C259.455 31.0473 259.376 30.702 259.236 30.422C259.096 30.142 258.895 29.9273 258.634 29.778C258.382 29.6287 258.069 29.554 257.696 29.554C257.304 29.554 256.963 29.638 256.674 29.806C256.385 29.974 256.161 30.212 256.002 30.52C255.843 30.8187 255.764 31.178 255.764 31.598C255.764 32.018 255.848 32.3867 256.016 32.704C256.184 33.0213 256.422 33.2687 256.73 33.446C257.038 33.614 257.393 33.698 257.794 33.698C258.139 33.698 258.457 33.6373 258.746 33.516C259.045 33.3947 259.297 33.2173 259.502 32.984L260.482 33.978C260.155 34.3607 259.759 34.65 259.292 34.846C258.825 35.042 258.331 35.14 257.808 35.14ZM264.363 35.14C263.989 35.14 263.63 35.0933 263.285 35C262.939 34.8973 262.622 34.7573 262.333 34.58C262.043 34.3933 261.791 34.1693 261.577 33.908L262.557 32.928C262.79 33.1987 263.056 33.404 263.355 33.544C263.663 33.6747 264.008 33.74 264.391 33.74C264.736 33.74 264.997 33.6887 265.175 33.586C265.352 33.4833 265.441 33.334 265.441 33.138C265.441 32.9327 265.357 32.774 265.189 32.662C265.021 32.55 264.801 32.4567 264.531 32.382C264.269 32.298 263.989 32.214 263.691 32.13C263.401 32.046 263.121 31.934 262.851 31.794C262.589 31.6447 262.375 31.444 262.207 31.192C262.039 30.94 261.955 30.6133 261.955 30.212C261.955 29.7827 262.053 29.414 262.249 29.106C262.454 28.798 262.739 28.56 263.103 28.392C263.476 28.224 263.919 28.14 264.433 28.14C264.974 28.14 265.45 28.238 265.861 28.434C266.281 28.6207 266.631 28.9053 266.911 29.288L265.931 30.268C265.735 30.0253 265.511 29.8433 265.259 29.722C265.007 29.6007 264.717 29.54 264.391 29.54C264.083 29.54 263.845 29.5867 263.677 29.68C263.509 29.7733 263.425 29.9087 263.425 30.086C263.425 30.2727 263.509 30.4173 263.677 30.52C263.845 30.6227 264.059 30.7113 264.321 30.786C264.591 30.8607 264.871 30.9447 265.161 31.038C265.459 31.122 265.739 31.2433 266.001 31.402C266.271 31.5513 266.491 31.7567 266.659 32.018C266.827 32.27 266.911 32.6013 266.911 33.012C266.911 33.6653 266.682 34.1833 266.225 34.566C265.767 34.9487 265.147 35.14 264.363 35.14ZM272.786 35V31.122C272.786 30.674 272.642 30.3053 272.352 30.016C272.072 29.7267 271.708 29.582 271.26 29.582C270.962 29.582 270.696 29.6473 270.462 29.778C270.229 29.9087 270.047 30.0907 269.916 30.324C269.786 30.5573 269.72 30.8233 269.72 31.122L269.118 30.786C269.118 30.2727 269.23 29.82 269.454 29.428C269.678 29.0267 269.986 28.714 270.378 28.49C270.78 28.2567 271.228 28.14 271.722 28.14C272.226 28.14 272.674 28.252 273.066 28.476C273.458 28.7 273.766 29.0127 273.99 29.414C274.214 29.806 274.326 30.2633 274.326 30.786V35H272.786ZM268.18 35V24.92H269.72V35H268.18Z" fill="white"/>
</g>
<defs>
<filter id="filter0_b_368_99" x="-4" y="-4" width="355" height="73" filterUnits="userSpaceOnUse" color-interpolation-filters="sRGB">
<feFlood flood-opacity="0" result="BackgroundImageFix"/>
<feGaussianBlur in="BackgroundImageFix" stdDeviation="2"/>
<feComposite in2="SourceAlpha" operator="in" result="effect1_backgroundBlur_368_99"/>
<feBlend mode="normal" in="SourceGraphic" in2="effect1_backgroundBlur_368_99" result="shape"/>
</filter>
</defs>
</svg>
