<svg width="425" height="83" viewBox="0 0 425 83" fill="none" xmlns="http://www.w3.org/2000/svg">
<path d="M13.9 60V24.7H21.75V60H13.9ZM19.9 60V53.2H39.25V60H19.9ZM19.9 45.25V38.7H37.5V45.25H19.9ZM19.9 31.45V24.7H39V31.45H19.9ZM59.0117 60L53.1617 50.55L51.5117 49.5L41.9617 35.7H50.9117L56.3617 44.55L57.9617 45.55L67.8617 60H59.0117ZM41.5117 60L51.4617 45.85L55.8117 50.75L49.8617 60H41.5117ZM57.9117 49.45L53.5617 44.55L59.0617 35.7H67.3617L57.9117 49.45ZM84.7684 60.5C83.135 60.5 81.635 60.1833 80.2684 59.55C78.9017 58.9167 77.785 58.05 76.9184 56.95C76.0517 55.8167 75.5517 54.5333 75.4184 53.1V42.85C75.5517 41.4167 76.0517 40.1167 76.9184 38.95C77.785 37.7833 78.9017 36.8667 80.2684 36.2C81.635 35.5333 83.135 35.2 84.7684 35.2C87.0684 35.2 89.1017 35.75 90.8684 36.85C92.6684 37.95 94.0684 39.45 95.0684 41.35C96.1017 43.25 96.6184 45.4167 96.6184 47.85C96.6184 50.2833 96.1017 52.45 95.0684 54.35C94.0684 56.25 92.6684 57.75 90.8684 58.85C89.1017 59.95 87.0684 60.5 84.7684 60.5ZM83.3684 53.6C84.4684 53.6 85.4184 53.35 86.2184 52.85C87.0517 52.35 87.7017 51.6667 88.1684 50.8C88.635 49.9333 88.8684 48.95 88.8684 47.85C88.8684 46.7167 88.635 45.7167 88.1684 44.85C87.7017 43.9833 87.0517 43.3167 86.2184 42.85C85.4184 42.35 84.485 42.1 83.4184 42.1C82.3517 42.1 81.4017 42.35 80.5684 42.85C79.7684 43.3167 79.135 43.9833 78.6684 44.85C78.2017 45.7167 77.9684 46.7167 77.9684 47.85C77.9684 48.95 78.185 49.9333 78.6184 50.8C79.085 51.6667 79.735 52.35 80.5684 52.85C81.4017 53.35 82.335 53.6 83.3684 53.6ZM70.7684 70.25V35.7H78.4184V41.95L77.1684 47.85L78.3184 53.75V70.25H70.7684ZM100.505 60V23.7H108.155V60H100.505ZM125.242 60.55C122.742 60.55 120.475 60 118.442 58.9C116.442 57.7667 114.858 56.2333 113.692 54.3C112.525 52.3667 111.942 50.2 111.942 47.8C111.942 45.4 112.525 43.25 113.692 41.35C114.858 39.45 116.442 37.95 118.442 36.85C120.442 35.7167 122.708 35.15 125.242 35.15C127.775 35.15 130.042 35.7 132.042 36.8C134.042 37.9 135.625 39.4167 136.792 41.35C137.958 43.25 138.542 45.4 138.542 47.8C138.542 50.2 137.958 52.3667 136.792 54.3C135.625 56.2333 134.042 57.7667 132.042 58.9C130.042 60 127.775 60.55 125.242 60.55ZM125.242 53.6C126.342 53.6 127.308 53.3667 128.142 52.9C128.975 52.4 129.608 51.7167 130.042 50.85C130.508 49.95 130.742 48.9333 130.742 47.8C130.742 46.6667 130.508 45.6833 130.042 44.85C129.575 43.9833 128.925 43.3167 128.092 42.85C127.292 42.35 126.342 42.1 125.242 42.1C124.175 42.1 123.225 42.35 122.392 42.85C121.558 43.3167 120.908 43.9833 120.442 44.85C119.975 45.7167 119.742 46.7167 119.742 47.85C119.742 48.95 119.975 49.95 120.442 50.85C120.908 51.7167 121.558 52.4 122.392 52.9C123.225 53.3667 124.175 53.6 125.242 53.6ZM142.35 60V35.7H150V60H142.35ZM150 46.65L146.8 44.15C147.434 41.3167 148.5 39.1167 150 37.55C151.5 35.9833 153.584 35.2 156.25 35.2C157.417 35.2 158.434 35.3833 159.3 35.75C160.2 36.0833 160.984 36.6167 161.65 37.35L157.1 43.1C156.767 42.7333 156.35 42.45 155.85 42.25C155.35 42.05 154.784 41.95 154.15 41.95C152.884 41.95 151.867 42.35 151.1 43.15C150.367 43.9167 150 45.0833 150 46.65ZM175.005 60.55C172.371 60.55 170.021 60.0167 167.955 58.95C165.921 57.85 164.321 56.3333 163.155 54.4C161.988 52.4667 161.405 50.2833 161.405 47.85C161.405 45.4167 161.971 43.25 163.105 41.35C164.271 39.4167 165.838 37.9 167.805 36.8C169.771 35.7 171.988 35.15 174.455 35.15C176.855 35.15 178.971 35.6667 180.805 36.7C182.638 37.7333 184.071 39.1667 185.105 41C186.171 42.8333 186.705 44.9333 186.705 47.3C186.705 47.7333 186.671 48.2 186.605 48.7C186.571 49.1667 186.488 49.7167 186.355 50.35L165.405 50.4V45.15L183.105 45.1L179.805 47.3C179.771 45.9 179.555 44.75 179.155 43.85C178.755 42.9167 178.155 42.2167 177.355 41.75C176.588 41.25 175.638 41 174.505 41C173.305 41 172.255 41.2833 171.355 41.85C170.488 42.3833 169.805 43.15 169.305 44.15C168.838 45.15 168.605 46.3667 168.605 47.8C168.605 49.2333 168.855 50.4667 169.355 51.5C169.888 52.5 170.621 53.2833 171.555 53.85C172.521 54.3833 173.655 54.65 174.955 54.65C176.155 54.65 177.238 54.45 178.205 54.05C179.171 53.6167 180.021 52.9833 180.755 52.15L184.955 56.35C183.755 57.75 182.305 58.8 180.605 59.5C178.905 60.2 177.038 60.55 175.005 60.55ZM217.369 60.55C214.735 60.55 212.285 60.1 210.019 59.2C207.785 58.2667 205.819 56.9667 204.119 55.3C202.452 53.6333 201.152 51.7 200.219 49.5C199.285 47.2667 198.819 44.8667 198.819 42.3C198.819 39.7333 199.285 37.35 200.219 35.15C201.152 32.9167 202.452 30.9833 204.119 29.35C205.785 27.7167 207.735 26.45 209.969 25.55C212.235 24.6167 214.685 24.15 217.319 24.15C220.119 24.15 222.602 24.6 224.769 25.5C226.969 26.4 228.885 27.6333 230.519 29.2L225.269 34.5C224.335 33.5 223.202 32.7167 221.869 32.15C220.569 31.5833 219.052 31.3 217.319 31.3C215.785 31.3 214.369 31.5667 213.069 32.1C211.802 32.6 210.702 33.3333 209.769 34.3C208.869 35.2667 208.152 36.4333 207.619 37.8C207.119 39.1667 206.869 40.6667 206.869 42.3C206.869 43.9667 207.119 45.4833 207.619 46.85C208.152 48.2167 208.869 49.3833 209.769 50.35C210.702 51.3167 211.802 52.0667 213.069 52.6C214.369 53.1333 215.785 53.4 217.319 53.4C219.119 53.4 220.685 53.1167 222.019 52.55C223.352 51.9833 224.502 51.2 225.469 50.2L230.769 55.5C229.069 57.0667 227.119 58.3 224.919 59.2C222.752 60.1 220.235 60.55 217.369 60.55ZM243.955 60.5C241.722 60.5 239.722 59.95 237.955 58.85C236.222 57.75 234.839 56.25 233.805 54.35C232.805 52.45 232.305 50.2833 232.305 47.85C232.305 45.4167 232.805 43.25 233.805 41.35C234.839 39.45 236.222 37.95 237.955 36.85C239.722 35.75 241.722 35.2 243.955 35.2C245.589 35.2 247.055 35.5167 248.355 36.15C249.689 36.7833 250.772 37.6667 251.605 38.8C252.439 39.9 252.905 41.1667 253.005 42.6V53.1C252.905 54.5333 252.439 55.8167 251.605 56.95C250.805 58.05 249.739 58.9167 248.405 59.55C247.072 60.1833 245.589 60.5 243.955 60.5ZM245.505 53.6C247.139 53.6 248.455 53.0667 249.455 52C250.455 50.9 250.955 49.5167 250.955 47.85C250.955 46.7167 250.722 45.7167 250.255 44.85C249.822 43.9833 249.189 43.3167 248.355 42.85C247.555 42.35 246.622 42.1 245.555 42.1C244.489 42.1 243.539 42.35 242.705 42.85C241.905 43.3167 241.255 43.9833 240.755 44.85C240.289 45.7167 240.055 46.7167 240.055 47.85C240.055 48.95 240.289 49.9333 240.755 50.8C241.222 51.6667 241.872 52.35 242.705 52.85C243.539 53.35 244.472 53.6 245.505 53.6ZM250.655 60V53.45L251.805 47.55L250.655 41.65V35.7H258.155V60H250.655ZM266.992 60V25.65H274.642V60H266.992ZM261.492 42.2V35.7H280.142V42.2H261.492ZM295.024 60.55C292.391 60.55 290.041 60.0167 287.974 58.95C285.941 57.85 284.341 56.3333 283.174 54.4C282.008 52.4667 281.424 50.2833 281.424 47.85C281.424 45.4167 281.991 43.25 283.124 41.35C284.291 39.4167 285.858 37.9 287.824 36.8C289.791 35.7 292.008 35.15 294.474 35.15C296.874 35.15 298.991 35.6667 300.824 36.7C302.658 37.7333 304.091 39.1667 305.124 41C306.191 42.8333 306.724 44.9333 306.724 47.3C306.724 47.7333 306.691 48.2 306.624 48.7C306.591 49.1667 306.508 49.7167 306.374 50.35L285.424 50.4V45.15L303.124 45.1L299.824 47.3C299.791 45.9 299.574 44.75 299.174 43.85C298.774 42.9167 298.174 42.2167 297.374 41.75C296.608 41.25 295.658 41 294.524 41C293.324 41 292.274 41.2833 291.374 41.85C290.508 42.3833 289.824 43.15 289.324 44.15C288.858 45.15 288.624 46.3667 288.624 47.8C288.624 49.2333 288.874 50.4667 289.374 51.5C289.908 52.5 290.641 53.2833 291.574 53.85C292.541 54.3833 293.674 54.65 294.974 54.65C296.174 54.65 297.258 54.45 298.224 54.05C299.191 53.6167 300.041 52.9833 300.774 52.15L304.974 56.35C303.774 57.75 302.324 58.8 300.624 59.5C298.924 60.2 297.058 60.55 295.024 60.55ZM320.717 70.9C318.05 70.9 315.7 70.4333 313.667 69.5C311.667 68.6 310.083 67.3167 308.917 65.65L313.617 60.95C314.483 61.9833 315.45 62.7667 316.517 63.3C317.617 63.8333 318.933 64.1 320.467 64.1C322.367 64.1 323.85 63.6333 324.917 62.7C326.017 61.7667 326.567 60.45 326.567 58.75V52.55L327.867 47.25L326.717 41.95V35.7H334.217V58.55C334.217 61.05 333.633 63.2167 332.467 65.05C331.3 66.8833 329.7 68.3167 327.667 69.35C325.633 70.3833 323.317 70.9 320.717 70.9ZM320.367 59.25C318.133 59.25 316.15 58.7167 314.417 57.65C312.683 56.5833 311.317 55.1333 310.317 53.3C309.317 51.4667 308.817 49.4333 308.817 47.2C308.817 44.9333 309.317 42.9 310.317 41.1C311.317 39.2667 312.683 37.8333 314.417 36.8C316.15 35.7333 318.133 35.2 320.367 35.2C322.033 35.2 323.517 35.5167 324.817 36.15C326.15 36.75 327.217 37.6167 328.017 38.75C328.85 39.85 329.317 41.1333 329.417 42.6V51.85C329.317 53.2833 328.85 54.5667 328.017 55.7C327.217 56.8 326.15 57.6667 324.817 58.3C323.483 58.9333 322 59.25 320.367 59.25ZM321.817 52.45C322.883 52.45 323.8 52.2167 324.567 51.75C325.367 51.2833 325.967 50.6667 326.367 49.9C326.8 49.1 327.017 48.2 327.017 47.2C327.017 46.2 326.8 45.3 326.367 44.5C325.967 43.7 325.367 43.0667 324.567 42.6C323.8 42.1333 322.883 41.9 321.817 41.9C320.783 41.9 319.867 42.1333 319.067 42.6C318.267 43.0667 317.65 43.7 317.217 44.5C316.783 45.3 316.567 46.2 316.567 47.2C316.567 48.1333 316.783 49.0167 317.217 49.85C317.65 50.65 318.25 51.2833 319.017 51.75C319.817 52.2167 320.75 52.45 321.817 52.45ZM351.316 60.55C348.816 60.55 346.549 60 344.516 58.9C342.516 57.7667 340.933 56.2333 339.766 54.3C338.599 52.3667 338.016 50.2 338.016 47.8C338.016 45.4 338.599 43.25 339.766 41.35C340.933 39.45 342.516 37.95 344.516 36.85C346.516 35.7167 348.783 35.15 351.316 35.15C353.849 35.15 356.116 35.7 358.116 36.8C360.116 37.9 361.699 39.4167 362.866 41.35C364.033 43.25 364.616 45.4 364.616 47.8C364.616 50.2 364.033 52.3667 362.866 54.3C361.699 56.2333 360.116 57.7667 358.116 58.9C356.116 60 353.849 60.55 351.316 60.55ZM351.316 53.6C352.416 53.6 353.383 53.3667 354.216 52.9C355.049 52.4 355.683 51.7167 356.116 50.85C356.583 49.95 356.816 48.9333 356.816 47.8C356.816 46.6667 356.583 45.6833 356.116 44.85C355.649 43.9833 354.999 43.3167 354.166 42.85C353.366 42.35 352.416 42.1 351.316 42.1C350.249 42.1 349.299 42.35 348.466 42.85C347.633 43.3167 346.983 43.9833 346.516 44.85C346.049 45.7167 345.816 46.7167 345.816 47.85C345.816 48.95 346.049 49.95 346.516 50.85C346.983 51.7167 347.633 52.4 348.466 52.9C349.299 53.3667 350.249 53.6 351.316 53.6ZM368.425 60V35.7H376.075V60H368.425ZM376.075 46.65L372.875 44.15C373.508 41.3167 374.575 39.1167 376.075 37.55C377.575 35.9833 379.658 35.2 382.325 35.2C383.491 35.2 384.508 35.3833 385.375 35.75C386.275 36.0833 387.058 36.6167 387.725 37.35L383.175 43.1C382.841 42.7333 382.425 42.45 381.925 42.25C381.425 42.05 380.858 41.95 380.225 41.95C378.958 41.95 377.941 42.35 377.175 43.15C376.441 43.9167 376.075 45.0833 376.075 46.65ZM397.067 60.1L387.067 35.7H395.317L401.667 55.05H398.617L405.117 35.7H413.367L402.967 60.1H397.067ZM390.817 70.25L398.117 54.5L402.967 60.1L398.667 70.25H390.817Z" fill="#2CCBBB"/>
</svg>
