<svg width="409" height="57" viewBox="0 0 409 57" fill="none" xmlns="http://www.w3.org/2000/svg">
<g filter="url(#filter0_b_368_103)">
<g clip-path="url(#clip0_368_103)">
<rect x="181" y="8" width="155" height="845.5" rx="5" fill="black"/>
<path d="M488 18L247 843.5L191 550" stroke="black"/>
<path d="M231.324 32V22.2H232.906V32H231.324ZM229.364 23.642V22.2H232.766V23.642H229.364ZM239.593 32L236.891 25.28H238.487L240.307 30.166L239.831 30.18L241.609 25.28H242.505L244.283 30.18L243.807 30.166L245.627 25.28H247.223L244.521 32H243.625L241.805 27.352H242.309L240.489 32H239.593ZM251.146 32.14C250.474 32.14 249.867 31.9907 249.326 31.692C248.794 31.384 248.369 30.964 248.052 30.432C247.744 29.9 247.59 29.3027 247.59 28.64C247.59 27.9773 247.744 27.3847 248.052 26.862C248.36 26.33 248.775 25.91 249.298 25.602C249.83 25.294 250.418 25.14 251.062 25.14C251.687 25.14 252.238 25.2847 252.714 25.574C253.199 25.8633 253.577 26.26 253.848 26.764C254.128 27.268 254.268 27.842 254.268 28.486C254.268 28.598 254.259 28.7147 254.24 28.836C254.231 28.948 254.212 29.074 254.184 29.214H248.668V27.954H253.386L252.812 28.458C252.793 28.0473 252.714 27.702 252.574 27.422C252.434 27.142 252.233 26.9273 251.972 26.778C251.72 26.6287 251.407 26.554 251.034 26.554C250.642 26.554 250.301 26.638 250.012 26.806C249.723 26.974 249.499 27.212 249.34 27.52C249.181 27.8187 249.102 28.178 249.102 28.598C249.102 29.018 249.186 29.3867 249.354 29.704C249.522 30.0213 249.76 30.2687 250.068 30.446C250.376 30.614 250.731 30.698 251.132 30.698C251.477 30.698 251.795 30.6373 252.084 30.516C252.383 30.3947 252.635 30.2173 252.84 29.984L253.82 30.978C253.493 31.3607 253.097 31.65 252.63 31.846C252.163 32.042 251.669 32.14 251.146 32.14ZM258.624 32.14C257.952 32.14 257.346 31.9907 256.804 31.692C256.272 31.384 255.848 30.964 255.53 30.432C255.222 29.9 255.068 29.3027 255.068 28.64C255.068 27.9773 255.222 27.3847 255.53 26.862C255.838 26.33 256.254 25.91 256.776 25.602C257.308 25.294 257.896 25.14 258.54 25.14C259.166 25.14 259.716 25.2847 260.192 25.574C260.678 25.8633 261.056 26.26 261.326 26.764C261.606 27.268 261.746 27.842 261.746 28.486C261.746 28.598 261.737 28.7147 261.718 28.836C261.709 28.948 261.69 29.074 261.662 29.214H256.146V27.954H260.864L260.29 28.458C260.272 28.0473 260.192 27.702 260.052 27.422C259.912 27.142 259.712 26.9273 259.45 26.778C259.198 26.6287 258.886 26.554 258.512 26.554C258.12 26.554 257.78 26.638 257.49 26.806C257.201 26.974 256.977 27.212 256.818 27.52C256.66 27.8187 256.58 28.178 256.58 28.598C256.58 29.018 256.664 29.3867 256.832 29.704C257 30.0213 257.238 30.2687 257.546 30.446C257.854 30.614 258.209 30.698 258.61 30.698C258.956 30.698 259.273 30.6373 259.562 30.516C259.861 30.3947 260.113 30.2173 260.318 29.984L261.298 30.978C260.972 31.3607 260.575 31.65 260.108 31.846C259.642 32.042 259.147 32.14 258.624 32.14ZM267.251 32L264.409 28.57L267.237 25.28H269.071L265.823 28.976L265.893 28.094L269.211 32H267.251ZM262.981 32V21.92H264.521V32H262.981Z" fill="white"/>
<path d="M25.0117 17.0469H28.5322C29.2887 17.0469 29.9336 17.1608 30.4668 17.3887C31 17.6165 31.4079 17.9538 31.6904 18.4004C31.9775 18.8424 32.1211 19.3893 32.1211 20.041C32.1211 20.5378 32.0299 20.9753 31.8477 21.3535C31.6654 21.7318 31.4079 22.0508 31.0752 22.3105C30.7425 22.5658 30.346 22.764 29.8857 22.9053L29.3662 23.1582H26.2012L26.1875 21.7979H28.5596C28.9697 21.7979 29.3115 21.7249 29.585 21.5791C29.8584 21.4333 30.0635 21.235 30.2002 20.9844C30.3415 20.7292 30.4121 20.4421 30.4121 20.123C30.4121 19.7767 30.3438 19.4759 30.207 19.2207C30.0749 18.9609 29.8698 18.7627 29.5918 18.626C29.3138 18.4847 28.9606 18.4141 28.5322 18.4141H26.7275V27H25.0117V17.0469ZM30.6924 27L28.3545 22.5293L30.1523 22.5225L32.5244 26.9111V27H30.6924ZM36.9268 27.1367C36.3799 27.1367 35.8854 27.0479 35.4434 26.8701C35.0059 26.6878 34.6322 26.4349 34.3223 26.1113C34.0169 25.7878 33.7822 25.4072 33.6182 24.9697C33.4541 24.5322 33.3721 24.0605 33.3721 23.5547V23.2812C33.3721 22.7025 33.4564 22.1784 33.625 21.709C33.7936 21.2396 34.0283 20.8385 34.3291 20.5059C34.6299 20.1686 34.9854 19.9111 35.3955 19.7334C35.8057 19.5557 36.25 19.4668 36.7285 19.4668C37.2572 19.4668 37.7197 19.5557 38.1162 19.7334C38.5127 19.9111 38.8408 20.1618 39.1006 20.4854C39.3649 20.8044 39.5609 21.1849 39.6885 21.627C39.8206 22.069 39.8867 22.5566 39.8867 23.0898V23.7939H34.1719V22.6113H38.2598V22.4814C38.2507 22.1852 38.1914 21.9072 38.082 21.6475C37.9772 21.3877 37.8154 21.1781 37.5967 21.0186C37.3779 20.859 37.0863 20.7793 36.7217 20.7793C36.4482 20.7793 36.2044 20.8385 35.9902 20.957C35.7806 21.071 35.6051 21.2373 35.4639 21.4561C35.3226 21.6748 35.2132 21.9391 35.1357 22.249C35.0628 22.5544 35.0264 22.8984 35.0264 23.2812V23.5547C35.0264 23.8783 35.0697 24.179 35.1562 24.457C35.2474 24.7305 35.3796 24.9697 35.5527 25.1748C35.7259 25.3799 35.9355 25.5417 36.1816 25.6602C36.4277 25.7741 36.708 25.8311 37.0225 25.8311C37.4189 25.8311 37.7721 25.7513 38.082 25.5918C38.3919 25.4323 38.6608 25.2067 38.8887 24.915L39.7568 25.7559C39.5973 25.9883 39.39 26.2116 39.1348 26.4258C38.8796 26.6354 38.5674 26.8063 38.1982 26.9385C37.8337 27.0706 37.4098 27.1367 36.9268 27.1367ZM42.8057 21.1826V27H41.1582V19.6035H42.71L42.8057 21.1826ZM42.5117 23.0283L41.9785 23.0215C41.9831 22.4974 42.056 22.0166 42.1973 21.5791C42.3431 21.1416 42.5436 20.7656 42.7988 20.4512C43.0586 20.1367 43.3685 19.8952 43.7285 19.7266C44.0885 19.5534 44.4896 19.4668 44.9316 19.4668C45.2871 19.4668 45.6084 19.5169 45.8955 19.6172C46.1872 19.7129 46.4355 19.8701 46.6406 20.0889C46.8503 20.3076 47.0098 20.5924 47.1191 20.9434C47.2285 21.2897 47.2832 21.7158 47.2832 22.2217V27H45.6289V22.2148C45.6289 21.8594 45.5765 21.5791 45.4717 21.374C45.3714 21.1644 45.2233 21.0163 45.0273 20.9297C44.8359 20.8385 44.5967 20.793 44.3096 20.793C44.027 20.793 43.7741 20.8522 43.5508 20.9707C43.3275 21.0892 43.1383 21.251 42.9834 21.4561C42.833 21.6611 42.7168 21.8981 42.6348 22.167C42.5527 22.4359 42.5117 22.723 42.5117 23.0283ZM52.3555 19.6035V20.8066H48.1855V19.6035H52.3555ZM49.3887 17.792H51.0361V24.9561C51.0361 25.1839 51.068 25.3594 51.1318 25.4824C51.2002 25.6009 51.2936 25.6807 51.4121 25.7217C51.5306 25.7627 51.6696 25.7832 51.8291 25.7832C51.943 25.7832 52.0524 25.7764 52.1572 25.7627C52.262 25.749 52.3464 25.7354 52.4102 25.7217L52.417 26.9795C52.2803 27.0205 52.1208 27.057 51.9385 27.0889C51.7607 27.1208 51.5557 27.1367 51.3232 27.1367C50.945 27.1367 50.61 27.0706 50.3184 26.9385C50.0267 26.8018 49.7988 26.5807 49.6348 26.2754C49.4707 25.9701 49.3887 25.5645 49.3887 25.0586V17.792ZM55.3906 19.6035V27H53.7363V19.6035H55.3906ZM53.627 17.6621C53.627 17.4115 53.709 17.2041 53.873 17.04C54.0417 16.8714 54.2741 16.7871 54.5703 16.7871C54.862 16.7871 55.0921 16.8714 55.2607 17.04C55.4294 17.2041 55.5137 17.4115 55.5137 17.6621C55.5137 17.9082 55.4294 18.1133 55.2607 18.2773C55.0921 18.4414 54.862 18.5234 54.5703 18.5234C54.2741 18.5234 54.0417 18.4414 53.873 18.2773C53.709 18.1133 53.627 17.9082 53.627 17.6621ZM58.8291 21.1826V27H57.1816V19.6035H58.7334L58.8291 21.1826ZM58.5352 23.0283L58.002 23.0215C58.0065 22.4974 58.0794 22.0166 58.2207 21.5791C58.3665 21.1416 58.5671 20.7656 58.8223 20.4512C59.082 20.1367 59.3919 19.8952 59.752 19.7266C60.112 19.5534 60.513 19.4668 60.9551 19.4668C61.3105 19.4668 61.6318 19.5169 61.9189 19.6172C62.2106 19.7129 62.459 19.8701 62.6641 20.0889C62.8737 20.3076 63.0332 20.5924 63.1426 20.9434C63.252 21.2897 63.3066 21.7158 63.3066 22.2217V27H61.6523V22.2148C61.6523 21.8594 61.5999 21.5791 61.4951 21.374C61.3949 21.1644 61.2467 21.0163 61.0508 20.9297C60.8594 20.8385 60.6201 20.793 60.333 20.793C60.0505 20.793 59.7975 20.8522 59.5742 20.9707C59.3509 21.0892 59.1618 21.251 59.0068 21.4561C58.8564 21.6611 58.7402 21.8981 58.6582 22.167C58.5762 22.4359 58.5352 22.723 58.5352 23.0283ZM69.7256 19.6035H71.2227V26.7949C71.2227 27.4603 71.0814 28.0254 70.7988 28.4902C70.5163 28.9551 70.1221 29.3083 69.6162 29.5498C69.1104 29.7959 68.5247 29.9189 67.8594 29.9189C67.5768 29.9189 67.2624 29.8779 66.916 29.7959C66.5742 29.7139 66.2415 29.5817 65.918 29.3994C65.599 29.2217 65.3324 28.987 65.1182 28.6953L65.8906 27.7246C66.1549 28.0391 66.4466 28.2692 66.7656 28.415C67.0846 28.5609 67.4196 28.6338 67.7705 28.6338C68.1488 28.6338 68.4701 28.5632 68.7344 28.4219C69.0033 28.2852 69.2106 28.0824 69.3564 27.8135C69.5023 27.5446 69.5752 27.2165 69.5752 26.8291V21.2783L69.7256 19.6035ZM64.7012 23.3838V23.2402C64.7012 22.6797 64.7695 22.1693 64.9062 21.709C65.043 21.2441 65.2389 20.8454 65.4941 20.5127C65.7493 20.1755 66.0592 19.918 66.4238 19.7402C66.7884 19.5579 67.2008 19.4668 67.6611 19.4668C68.1396 19.4668 68.5475 19.5534 68.8848 19.7266C69.2266 19.8997 69.5114 20.1481 69.7393 20.4717C69.9671 20.7907 70.1449 21.1735 70.2725 21.6201C70.4046 22.0622 70.5026 22.5544 70.5664 23.0967V23.5547C70.5072 24.0833 70.4069 24.5664 70.2656 25.0039C70.1243 25.4414 69.9375 25.8197 69.7051 26.1387C69.4727 26.4577 69.1855 26.7038 68.8438 26.877C68.5065 27.0501 68.1077 27.1367 67.6475 27.1367C67.1963 27.1367 66.7884 27.0433 66.4238 26.8564C66.0638 26.6696 65.7539 26.4076 65.4941 26.0703C65.2389 25.7331 65.043 25.3366 64.9062 24.8809C64.7695 24.4206 64.7012 23.9215 64.7012 23.3838ZM66.3486 23.2402V23.3838C66.3486 23.721 66.3805 24.0355 66.4443 24.3271C66.5127 24.6188 66.6152 24.8763 66.752 25.0996C66.8932 25.3184 67.071 25.4915 67.2852 25.6191C67.5039 25.7422 67.7614 25.8037 68.0576 25.8037C68.445 25.8037 68.7617 25.7217 69.0078 25.5576C69.2585 25.3936 69.4499 25.1725 69.582 24.8945C69.7188 24.612 69.8145 24.2975 69.8691 23.9512V22.7139C69.8418 22.445 69.7848 22.1943 69.6982 21.9619C69.6162 21.7295 69.5046 21.5267 69.3633 21.3535C69.222 21.1758 69.0443 21.0391 68.8301 20.9434C68.6159 20.8431 68.363 20.793 68.0713 20.793C67.7751 20.793 67.5176 20.8568 67.2988 20.9844C67.0801 21.112 66.9001 21.2874 66.7588 21.5107C66.6221 21.734 66.5195 21.9938 66.4512 22.29C66.3828 22.5863 66.3486 22.903 66.3486 23.2402ZM83.835 17.0469V27H82.1328V17.0469H83.835ZM86.959 17.0469V18.4141H79.0361V17.0469H86.959ZM89.8711 19.6035V27H88.2168V19.6035H89.8711ZM88.1074 17.6621C88.1074 17.4115 88.1895 17.2041 88.3535 17.04C88.5221 16.8714 88.7546 16.7871 89.0508 16.7871C89.3424 16.7871 89.5726 16.8714 89.7412 17.04C89.9098 17.2041 89.9941 17.4115 89.9941 17.6621C89.9941 17.9082 89.9098 18.1133 89.7412 18.2773C89.5726 18.4414 89.3424 18.5234 89.0508 18.5234C88.7546 18.5234 88.5221 18.4414 88.3535 18.2773C88.1895 18.1133 88.1074 17.9082 88.1074 17.6621ZM93.3232 21.1074V27H91.6758V19.6035H93.2275L93.3232 21.1074ZM93.0566 23.0283L92.4961 23.0215C92.4961 22.5111 92.5599 22.0394 92.6875 21.6064C92.8151 21.1735 93.002 20.7975 93.248 20.4785C93.4941 20.1549 93.7995 19.9066 94.1641 19.7334C94.5332 19.5557 94.9593 19.4668 95.4424 19.4668C95.7796 19.4668 96.0872 19.5169 96.3652 19.6172C96.6478 19.7129 96.8916 19.8656 97.0967 20.0752C97.3063 20.2848 97.4658 20.5537 97.5752 20.8818C97.6891 21.21 97.7461 21.6064 97.7461 22.0713V27H96.0986V22.2148C96.0986 21.8548 96.0439 21.5723 95.9346 21.3672C95.8298 21.1621 95.6771 21.0163 95.4766 20.9297C95.2806 20.8385 95.0459 20.793 94.7725 20.793C94.4626 20.793 94.1982 20.8522 93.9795 20.9707C93.7653 21.0892 93.5898 21.251 93.4531 21.4561C93.3164 21.6611 93.2161 21.8981 93.1523 22.167C93.0885 22.4359 93.0566 22.723 93.0566 23.0283ZM97.6436 22.5908L96.8711 22.7617C96.8711 22.3151 96.9326 21.8936 97.0557 21.4971C97.1833 21.096 97.3678 20.7451 97.6094 20.4443C97.8555 20.139 98.1585 19.8997 98.5186 19.7266C98.8786 19.5534 99.291 19.4668 99.7559 19.4668C100.134 19.4668 100.471 19.5192 100.768 19.624C101.068 19.7243 101.324 19.8838 101.533 20.1025C101.743 20.3213 101.902 20.6061 102.012 20.957C102.121 21.3034 102.176 21.7227 102.176 22.2148V27H100.521V22.208C100.521 21.8343 100.467 21.5449 100.357 21.3398C100.253 21.1348 100.102 20.9935 99.9062 20.916C99.7103 20.834 99.4756 20.793 99.2021 20.793C98.9469 20.793 98.7214 20.8408 98.5254 20.9365C98.334 21.0277 98.1722 21.1576 98.04 21.3262C97.9079 21.4902 97.8076 21.6794 97.7393 21.8936C97.6755 22.1077 97.6436 22.3402 97.6436 22.5908ZM107.132 27.1367C106.585 27.1367 106.09 27.0479 105.648 26.8701C105.211 26.6878 104.837 26.4349 104.527 26.1113C104.222 25.7878 103.987 25.4072 103.823 24.9697C103.659 24.5322 103.577 24.0605 103.577 23.5547V23.2812C103.577 22.7025 103.661 22.1784 103.83 21.709C103.999 21.2396 104.233 20.8385 104.534 20.5059C104.835 20.1686 105.19 19.9111 105.601 19.7334C106.011 19.5557 106.455 19.4668 106.934 19.4668C107.462 19.4668 107.925 19.5557 108.321 19.7334C108.718 19.9111 109.046 20.1618 109.306 20.4854C109.57 20.8044 109.766 21.1849 109.894 21.627C110.026 22.069 110.092 22.5566 110.092 23.0898V23.7939H104.377V22.6113H108.465V22.4814C108.456 22.1852 108.396 21.9072 108.287 21.6475C108.182 21.3877 108.021 21.1781 107.802 21.0186C107.583 20.859 107.291 20.7793 106.927 20.7793C106.653 20.7793 106.41 20.8385 106.195 20.957C105.986 21.071 105.81 21.2373 105.669 21.4561C105.528 21.6748 105.418 21.9391 105.341 22.249C105.268 22.5544 105.231 22.8984 105.231 23.2812V23.5547C105.231 23.8783 105.275 24.179 105.361 24.457C105.452 24.7305 105.585 24.9697 105.758 25.1748C105.931 25.3799 106.141 25.5417 106.387 25.6602C106.633 25.7741 106.913 25.8311 107.228 25.8311C107.624 25.8311 107.977 25.7513 108.287 25.5918C108.597 25.4323 108.866 25.2067 109.094 24.915L109.962 25.7559C109.802 25.9883 109.595 26.2116 109.34 26.4258C109.085 26.6354 108.772 26.8063 108.403 26.9385C108.039 27.0706 107.615 27.1367 107.132 27.1367ZM117.919 27H115.793L115.807 25.6396H117.919C118.534 25.6396 119.049 25.5052 119.464 25.2363C119.883 24.9674 120.198 24.5824 120.407 24.0811C120.621 23.5798 120.729 22.9827 120.729 22.29V21.75C120.729 21.2122 120.667 20.736 120.544 20.3213C120.425 19.9066 120.248 19.5579 120.011 19.2754C119.778 18.9928 119.491 18.7786 119.149 18.6328C118.812 18.487 118.423 18.4141 117.98 18.4141H115.752V17.0469H117.98C118.641 17.0469 119.245 17.1585 119.792 17.3818C120.339 17.6006 120.811 17.9173 121.207 18.332C121.608 18.7467 121.916 19.2435 122.13 19.8223C122.344 20.401 122.451 21.0482 122.451 21.7637V22.29C122.451 23.0055 122.344 23.6527 122.13 24.2314C121.916 24.8102 121.608 25.307 121.207 25.7217C120.806 26.1318 120.327 26.4486 119.771 26.6719C119.22 26.8906 118.603 27 117.919 27ZM116.743 17.0469V27H115.027V17.0469H116.743ZM128.46 25.2568V19.6035H130.114V27H128.556L128.46 25.2568ZM128.692 23.7188L129.246 23.7051C129.246 24.2018 129.191 24.6598 129.082 25.0791C128.973 25.4938 128.804 25.8561 128.576 26.166C128.348 26.4714 128.057 26.7106 127.701 26.8838C127.346 27.0524 126.92 27.1367 126.423 27.1367C126.063 27.1367 125.732 27.0843 125.432 26.9795C125.131 26.8747 124.871 26.7129 124.652 26.4941C124.438 26.2754 124.272 25.9906 124.153 25.6396C124.035 25.2887 123.976 24.8695 123.976 24.3818V19.6035H125.623V24.3955C125.623 24.6644 125.655 24.89 125.719 25.0723C125.783 25.25 125.869 25.3936 125.979 25.5029C126.088 25.6123 126.215 25.6898 126.361 25.7354C126.507 25.7809 126.662 25.8037 126.826 25.8037C127.296 25.8037 127.665 25.7126 127.934 25.5303C128.207 25.3434 128.401 25.0928 128.515 24.7783C128.633 24.4639 128.692 24.1107 128.692 23.7188ZM133.457 21.0117V27H131.81V19.6035H133.382L133.457 21.0117ZM135.72 19.5557L135.706 21.0869C135.606 21.0687 135.496 21.055 135.378 21.0459C135.264 21.0368 135.15 21.0322 135.036 21.0322C134.754 21.0322 134.505 21.0732 134.291 21.1553C134.077 21.2327 133.897 21.3467 133.751 21.4971C133.61 21.6429 133.5 21.8206 133.423 22.0303C133.345 22.2399 133.3 22.4746 133.286 22.7344L132.91 22.7617C132.91 22.2969 132.956 21.8662 133.047 21.4697C133.138 21.0732 133.275 20.7246 133.457 20.4238C133.644 20.123 133.876 19.8883 134.154 19.7197C134.437 19.5511 134.763 19.4668 135.132 19.4668C135.232 19.4668 135.339 19.4759 135.453 19.4941C135.572 19.5124 135.66 19.5329 135.72 19.5557ZM140.676 25.5166V21.9893C140.676 21.7249 140.628 21.4971 140.532 21.3057C140.437 21.1143 140.291 20.9661 140.095 20.8613C139.903 20.7565 139.662 20.7041 139.37 20.7041C139.101 20.7041 138.869 20.7497 138.673 20.8408C138.477 20.932 138.324 21.055 138.215 21.21C138.105 21.3649 138.051 21.5404 138.051 21.7363H136.41C136.41 21.4447 136.481 21.1621 136.622 20.8887C136.763 20.6152 136.968 20.3714 137.237 20.1572C137.506 19.943 137.827 19.7744 138.201 19.6514C138.575 19.5283 138.994 19.4668 139.459 19.4668C140.015 19.4668 140.507 19.5602 140.936 19.7471C141.368 19.9339 141.708 20.2165 141.954 20.5947C142.205 20.9684 142.33 21.4378 142.33 22.0029V25.291C142.33 25.6283 142.353 25.9313 142.398 26.2002C142.449 26.4645 142.519 26.6947 142.61 26.8906V27H140.922C140.844 26.8223 140.783 26.5967 140.737 26.3232C140.696 26.0452 140.676 25.7764 140.676 25.5166ZM140.915 22.502L140.929 23.5205H139.746C139.441 23.5205 139.172 23.5501 138.939 23.6094C138.707 23.6641 138.513 23.7461 138.358 23.8555C138.203 23.9648 138.087 24.097 138.01 24.252C137.932 24.4069 137.894 24.5824 137.894 24.7783C137.894 24.9743 137.939 25.1543 138.03 25.3184C138.121 25.4779 138.254 25.6032 138.427 25.6943C138.604 25.7855 138.819 25.8311 139.069 25.8311C139.407 25.8311 139.701 25.7627 139.951 25.626C140.206 25.4847 140.407 25.3138 140.553 25.1133C140.699 24.9082 140.776 24.7145 140.785 24.5322L141.318 25.2637C141.264 25.4505 141.17 25.651 141.038 25.8652C140.906 26.0794 140.733 26.2845 140.519 26.4805C140.309 26.6719 140.056 26.8291 139.76 26.9521C139.468 27.0752 139.131 27.1367 138.748 27.1367C138.265 27.1367 137.834 27.041 137.456 26.8496C137.078 26.6536 136.782 26.3916 136.567 26.0635C136.353 25.7308 136.246 25.3548 136.246 24.9355C136.246 24.5436 136.319 24.1973 136.465 23.8965C136.615 23.5911 136.834 23.3359 137.121 23.1309C137.413 22.9258 137.768 22.7708 138.188 22.666C138.607 22.5566 139.085 22.502 139.623 22.502H140.915ZM147.443 19.6035V20.8066H143.273V19.6035H147.443ZM144.477 17.792H146.124V24.9561C146.124 25.1839 146.156 25.3594 146.22 25.4824C146.288 25.6009 146.382 25.6807 146.5 25.7217C146.618 25.7627 146.757 25.7832 146.917 25.7832C147.031 25.7832 147.14 25.7764 147.245 25.7627C147.35 25.749 147.434 25.7354 147.498 25.7217L147.505 26.9795C147.368 27.0205 147.209 27.057 147.026 27.0889C146.849 27.1208 146.644 27.1367 146.411 27.1367C146.033 27.1367 145.698 27.0706 145.406 26.9385C145.115 26.8018 144.887 26.5807 144.723 26.2754C144.559 25.9701 144.477 25.5645 144.477 25.0586V17.792ZM150.479 19.6035V27H148.824V19.6035H150.479ZM148.715 17.6621C148.715 17.4115 148.797 17.2041 148.961 17.04C149.13 16.8714 149.362 16.7871 149.658 16.7871C149.95 16.7871 150.18 16.8714 150.349 17.04C150.517 17.2041 150.602 17.4115 150.602 17.6621C150.602 17.9082 150.517 18.1133 150.349 18.2773C150.18 18.4414 149.95 18.5234 149.658 18.5234C149.362 18.5234 149.13 18.4414 148.961 18.2773C148.797 18.1133 148.715 17.9082 148.715 17.6621ZM151.969 23.3838V23.2266C151.969 22.6934 152.046 22.1989 152.201 21.7432C152.356 21.2829 152.579 20.8841 152.871 20.5469C153.167 20.2051 153.527 19.9408 153.951 19.7539C154.38 19.5625 154.863 19.4668 155.4 19.4668C155.943 19.4668 156.426 19.5625 156.85 19.7539C157.278 19.9408 157.64 20.2051 157.937 20.5469C158.233 20.8841 158.458 21.2829 158.613 21.7432C158.768 22.1989 158.846 22.6934 158.846 23.2266V23.3838C158.846 23.917 158.768 24.4115 158.613 24.8672C158.458 25.3229 158.233 25.7217 157.937 26.0635C157.64 26.4007 157.28 26.665 156.856 26.8564C156.433 27.0433 155.952 27.1367 155.414 27.1367C154.872 27.1367 154.386 27.0433 153.958 26.8564C153.534 26.665 153.174 26.4007 152.878 26.0635C152.582 25.7217 152.356 25.3229 152.201 24.8672C152.046 24.4115 151.969 23.917 151.969 23.3838ZM153.616 23.2266V23.3838C153.616 23.7165 153.65 24.0309 153.719 24.3271C153.787 24.6234 153.894 24.8831 154.04 25.1064C154.186 25.3298 154.373 25.5052 154.601 25.6328C154.828 25.7604 155.1 25.8242 155.414 25.8242C155.719 25.8242 155.984 25.7604 156.207 25.6328C156.435 25.5052 156.622 25.3298 156.768 25.1064C156.913 24.8831 157.021 24.6234 157.089 24.3271C157.162 24.0309 157.198 23.7165 157.198 23.3838V23.2266C157.198 22.8984 157.162 22.5885 157.089 22.2969C157.021 22.0007 156.911 21.7386 156.761 21.5107C156.615 21.2829 156.428 21.1051 156.2 20.9775C155.977 20.8454 155.71 20.7793 155.4 20.7793C155.09 20.7793 154.822 20.8454 154.594 20.9775C154.37 21.1051 154.186 21.2829 154.04 21.5107C153.894 21.7386 153.787 22.0007 153.719 22.2969C153.65 22.5885 153.616 22.8984 153.616 23.2266ZM161.86 21.1826V27H160.213V19.6035H161.765L161.86 21.1826ZM161.566 23.0283L161.033 23.0215C161.038 22.4974 161.111 22.0166 161.252 21.5791C161.398 21.1416 161.598 20.7656 161.854 20.4512C162.113 20.1367 162.423 19.8952 162.783 19.7266C163.143 19.5534 163.544 19.4668 163.986 19.4668C164.342 19.4668 164.663 19.5169 164.95 19.6172C165.242 19.7129 165.49 19.8701 165.695 20.0889C165.905 20.3076 166.064 20.5924 166.174 20.9434C166.283 21.2897 166.338 21.7158 166.338 22.2217V27H164.684V22.2148C164.684 21.8594 164.631 21.5791 164.526 21.374C164.426 21.1644 164.278 21.0163 164.082 20.9297C163.891 20.8385 163.651 20.793 163.364 20.793C163.082 20.793 162.829 20.8522 162.605 20.9707C162.382 21.0892 162.193 21.251 162.038 21.4561C161.888 21.6611 161.771 21.8981 161.689 22.167C161.607 22.4359 161.566 22.723 161.566 23.0283Z" fill="black"/>
</g>
</g>
<defs>
<filter id="filter0_b_368_103" x="-4" y="-4" width="417" height="65" filterUnits="userSpaceOnUse" color-interpolation-filters="sRGB">
<feFlood flood-opacity="0" result="BackgroundImageFix"/>
<feGaussianBlur in="BackgroundImageFix" stdDeviation="2"/>
<feComposite in2="SourceAlpha" operator="in" result="effect1_backgroundBlur_368_103"/>
<feBlend mode="normal" in="SourceGraphic" in2="effect1_backgroundBlur_368_103" result="shape"/>
</filter>
<clipPath id="clip0_368_103">
<rect width="409" height="57" rx="5" fill="white"/>
</clipPath>
</defs>
</svg>
