<svg width="614" height="65" viewBox="0 0 614 65" fill="none" xmlns="http://www.w3.org/2000/svg">
<g filter="url(#filter0_b_369_156)">
<rect width="659" height="65" transform="translate(-23)" fill="#2CCBBB"/>
<path d="M247.792 33.2881H245.201V31.9277H247.792C248.243 31.9277 248.608 31.8548 248.886 31.709C249.164 31.5632 249.367 31.3626 249.494 31.1074C249.626 30.8477 249.692 30.5514 249.692 30.2188C249.692 29.9043 249.626 29.6104 249.494 29.3369C249.367 29.0589 249.164 28.8356 248.886 28.667C248.608 28.4984 248.243 28.4141 247.792 28.4141H245.728V37H244.012V27.0469H247.792C248.562 27.0469 249.216 27.1836 249.754 27.457C250.296 27.7259 250.709 28.0996 250.991 28.5781C251.274 29.0521 251.415 29.5944 251.415 30.2051C251.415 30.8477 251.274 31.3991 250.991 31.8594C250.709 32.3197 250.296 32.6729 249.754 32.9189C249.216 33.165 248.562 33.2881 247.792 33.2881ZM254.553 29.6035V37H252.898V29.6035H254.553ZM252.789 27.6621C252.789 27.4115 252.871 27.2041 253.035 27.04C253.204 26.8714 253.436 26.7871 253.732 26.7871C254.024 26.7871 254.254 26.8714 254.423 27.04C254.591 27.2041 254.676 27.4115 254.676 27.6621C254.676 27.9082 254.591 28.1133 254.423 28.2773C254.254 28.4414 254.024 28.5234 253.732 28.5234C253.436 28.5234 253.204 28.4414 253.035 28.2773C252.871 28.1133 252.789 27.9082 252.789 27.6621ZM259.379 35.8242C259.648 35.8242 259.889 35.7718 260.104 35.667C260.322 35.5576 260.498 35.4072 260.63 35.2158C260.767 35.0244 260.842 34.8034 260.855 34.5527H262.407C262.398 35.0312 262.257 35.4665 261.983 35.8584C261.71 36.2503 261.348 36.5625 260.896 36.7949C260.445 37.0228 259.946 37.1367 259.399 37.1367C258.834 37.1367 258.342 37.041 257.923 36.8496C257.504 36.6536 257.155 36.3848 256.877 36.043C256.599 35.7012 256.389 35.307 256.248 34.8604C256.111 34.4137 256.043 33.9352 256.043 33.4248V33.1855C256.043 32.6751 256.111 32.1966 256.248 31.75C256.389 31.2988 256.599 30.9023 256.877 30.5605C257.155 30.2188 257.504 29.9521 257.923 29.7607C258.342 29.5648 258.832 29.4668 259.393 29.4668C259.985 29.4668 260.505 29.5853 260.951 29.8223C261.398 30.0547 261.749 30.3805 262.004 30.7998C262.264 31.2145 262.398 31.6976 262.407 32.249H260.855C260.842 31.9756 260.773 31.7295 260.65 31.5107C260.532 31.2874 260.363 31.1097 260.145 30.9775C259.93 30.8454 259.673 30.7793 259.372 30.7793C259.039 30.7793 258.764 30.8477 258.545 30.9844C258.326 31.1165 258.155 31.2988 258.032 31.5312C257.909 31.7591 257.82 32.0166 257.766 32.3037C257.715 32.5863 257.69 32.8802 257.69 33.1855V33.4248C257.69 33.7301 257.715 34.0264 257.766 34.3135C257.816 34.6006 257.902 34.8581 258.025 35.0859C258.153 35.3092 258.326 35.4893 258.545 35.626C258.764 35.7581 259.042 35.8242 259.379 35.8242ZM265.333 26.5V37H263.679V26.5H265.333ZM269.927 29.6035L266.707 33.1719L264.943 34.9766L264.513 33.582L265.846 31.9346L267.938 29.6035H269.927ZM268.293 37L265.894 33.5273L266.933 32.3721L270.2 37H268.293ZM275.423 35.2568V29.6035H277.077V37H275.519L275.423 35.2568ZM275.655 33.7188L276.209 33.7051C276.209 34.2018 276.154 34.6598 276.045 35.0791C275.936 35.4938 275.767 35.8561 275.539 36.166C275.311 36.4714 275.02 36.7106 274.664 36.8838C274.309 37.0524 273.882 37.1367 273.386 37.1367C273.026 37.1367 272.695 37.0843 272.395 36.9795C272.094 36.8747 271.834 36.7129 271.615 36.4941C271.401 36.2754 271.235 35.9906 271.116 35.6396C270.998 35.2887 270.938 34.8695 270.938 34.3818V29.6035H272.586V34.3955C272.586 34.6644 272.618 34.89 272.682 35.0723C272.745 35.25 272.832 35.3936 272.941 35.5029C273.051 35.6123 273.178 35.6898 273.324 35.7354C273.47 35.7809 273.625 35.8037 273.789 35.8037C274.258 35.8037 274.628 35.7126 274.896 35.5303C275.17 35.3434 275.364 35.0928 275.478 34.7783C275.596 34.4639 275.655 34.1107 275.655 33.7188ZM280.42 31.0254V39.8438H278.772V29.6035H280.29L280.42 31.0254ZM285.239 33.2334V33.377C285.239 33.9147 285.175 34.4137 285.048 34.874C284.925 35.3298 284.74 35.7285 284.494 36.0703C284.253 36.4076 283.954 36.6696 283.599 36.8564C283.243 37.0433 282.833 37.1367 282.368 37.1367C281.908 37.1367 281.505 37.0524 281.158 36.8838C280.816 36.7106 280.527 36.4668 280.29 36.1523C280.053 35.8379 279.862 35.4688 279.716 35.0449C279.575 34.6165 279.474 34.1471 279.415 33.6367V33.083C279.474 32.5407 279.575 32.0485 279.716 31.6064C279.862 31.1644 280.053 30.7839 280.29 30.4648C280.527 30.1458 280.816 29.8997 281.158 29.7266C281.5 29.5534 281.899 29.4668 282.354 29.4668C282.819 29.4668 283.232 29.5579 283.592 29.7402C283.952 29.918 284.255 30.1732 284.501 30.5059C284.747 30.834 284.932 31.2305 285.055 31.6953C285.178 32.1556 285.239 32.6683 285.239 33.2334ZM283.592 33.377V33.2334C283.592 32.8916 283.56 32.5749 283.496 32.2832C283.432 31.987 283.332 31.7272 283.195 31.5039C283.059 31.2806 282.883 31.1074 282.669 30.9844C282.459 30.8568 282.206 30.793 281.91 30.793C281.618 30.793 281.368 30.8431 281.158 30.9434C280.949 31.0391 280.773 31.1735 280.632 31.3467C280.491 31.5199 280.381 31.7227 280.304 31.9551C280.226 32.1829 280.172 32.4313 280.14 32.7002V34.0264C280.194 34.3545 280.288 34.6553 280.42 34.9287C280.552 35.2021 280.739 35.4209 280.98 35.585C281.227 35.7445 281.541 35.8242 281.924 35.8242C282.22 35.8242 282.473 35.7604 282.683 35.6328C282.892 35.5052 283.063 35.3298 283.195 35.1064C283.332 34.8786 283.432 34.6165 283.496 34.3203C283.56 34.0241 283.592 33.7096 283.592 33.377ZM296.525 35.6396V37H291.528V35.6396H296.525ZM292.007 27.0469V37H290.291V27.0469H292.007ZM297.373 33.3838V33.2266C297.373 32.6934 297.451 32.1989 297.605 31.7432C297.76 31.2829 297.984 30.8841 298.275 30.5469C298.572 30.2051 298.932 29.9408 299.355 29.7539C299.784 29.5625 300.267 29.4668 300.805 29.4668C301.347 29.4668 301.83 29.5625 302.254 29.7539C302.682 29.9408 303.045 30.2051 303.341 30.5469C303.637 30.8841 303.863 31.2829 304.018 31.7432C304.173 32.1989 304.25 32.6934 304.25 33.2266V33.3838C304.25 33.917 304.173 34.4115 304.018 34.8672C303.863 35.3229 303.637 35.7217 303.341 36.0635C303.045 36.4007 302.685 36.665 302.261 36.8564C301.837 37.0433 301.356 37.1367 300.818 37.1367C300.276 37.1367 299.791 37.0433 299.362 36.8564C298.938 36.665 298.578 36.4007 298.282 36.0635C297.986 35.7217 297.76 35.3229 297.605 34.8672C297.451 34.4115 297.373 33.917 297.373 33.3838ZM299.021 33.2266V33.3838C299.021 33.7165 299.055 34.0309 299.123 34.3271C299.191 34.6234 299.299 34.8831 299.444 35.1064C299.59 35.3298 299.777 35.5052 300.005 35.6328C300.233 35.7604 300.504 35.8242 300.818 35.8242C301.124 35.8242 301.388 35.7604 301.611 35.6328C301.839 35.5052 302.026 35.3298 302.172 35.1064C302.318 34.8831 302.425 34.6234 302.493 34.3271C302.566 34.0309 302.603 33.7165 302.603 33.3838V33.2266C302.603 32.8984 302.566 32.5885 302.493 32.2969C302.425 32.0007 302.315 31.7386 302.165 31.5107C302.019 31.2829 301.832 31.1051 301.604 30.9775C301.381 30.8454 301.115 30.7793 300.805 30.7793C300.495 30.7793 300.226 30.8454 299.998 30.9775C299.775 31.1051 299.59 31.2829 299.444 31.5107C299.299 31.7386 299.191 32.0007 299.123 32.2969C299.055 32.5885 299.021 32.8984 299.021 33.2266ZM308.652 35.8242C308.921 35.8242 309.163 35.7718 309.377 35.667C309.596 35.5576 309.771 35.4072 309.903 35.2158C310.04 35.0244 310.115 34.8034 310.129 34.5527H311.681C311.672 35.0312 311.53 35.4665 311.257 35.8584C310.983 36.2503 310.621 36.5625 310.17 36.7949C309.719 37.0228 309.22 37.1367 308.673 37.1367C308.108 37.1367 307.616 37.041 307.196 36.8496C306.777 36.6536 306.428 36.3848 306.15 36.043C305.872 35.7012 305.663 35.307 305.521 34.8604C305.385 34.4137 305.316 33.9352 305.316 33.4248V33.1855C305.316 32.6751 305.385 32.1966 305.521 31.75C305.663 31.2988 305.872 30.9023 306.15 30.5605C306.428 30.2188 306.777 29.9521 307.196 29.7607C307.616 29.5648 308.105 29.4668 308.666 29.4668C309.258 29.4668 309.778 29.5853 310.225 29.8223C310.671 30.0547 311.022 30.3805 311.277 30.7998C311.537 31.2145 311.672 31.6976 311.681 32.249H310.129C310.115 31.9756 310.047 31.7295 309.924 31.5107C309.805 31.2874 309.637 31.1097 309.418 30.9775C309.204 30.8454 308.946 30.7793 308.646 30.7793C308.313 30.7793 308.037 30.8477 307.818 30.9844C307.6 31.1165 307.429 31.2988 307.306 31.5312C307.183 31.7591 307.094 32.0166 307.039 32.3037C306.989 32.5863 306.964 32.8802 306.964 33.1855V33.4248C306.964 33.7301 306.989 34.0264 307.039 34.3135C307.089 34.6006 307.176 34.8581 307.299 35.0859C307.426 35.3092 307.6 35.4893 307.818 35.626C308.037 35.7581 308.315 35.8242 308.652 35.8242ZM317.115 35.5166V31.9893C317.115 31.7249 317.067 31.4971 316.972 31.3057C316.876 31.1143 316.73 30.9661 316.534 30.8613C316.343 30.7565 316.101 30.7041 315.81 30.7041C315.541 30.7041 315.308 30.7497 315.112 30.8408C314.916 30.932 314.764 31.055 314.654 31.21C314.545 31.3649 314.49 31.5404 314.49 31.7363H312.85C312.85 31.4447 312.92 31.1621 313.062 30.8887C313.203 30.6152 313.408 30.3714 313.677 30.1572C313.946 29.943 314.267 29.7744 314.641 29.6514C315.014 29.5283 315.434 29.4668 315.898 29.4668C316.454 29.4668 316.947 29.5602 317.375 29.7471C317.808 29.9339 318.147 30.2165 318.394 30.5947C318.644 30.9684 318.77 31.4378 318.77 32.0029V35.291C318.77 35.6283 318.792 35.9313 318.838 36.2002C318.888 36.4645 318.959 36.6947 319.05 36.8906V37H317.361C317.284 36.8223 317.222 36.5967 317.177 36.3232C317.136 36.0452 317.115 35.7764 317.115 35.5166ZM317.354 32.502L317.368 33.5205H316.186C315.88 33.5205 315.611 33.5501 315.379 33.6094C315.146 33.6641 314.953 33.7461 314.798 33.8555C314.643 33.9648 314.527 34.097 314.449 34.252C314.372 34.4069 314.333 34.5824 314.333 34.7783C314.333 34.9743 314.379 35.1543 314.47 35.3184C314.561 35.4779 314.693 35.6032 314.866 35.6943C315.044 35.7855 315.258 35.8311 315.509 35.8311C315.846 35.8311 316.14 35.7627 316.391 35.626C316.646 35.4847 316.846 35.3138 316.992 35.1133C317.138 34.9082 317.215 34.7145 317.225 34.5322L317.758 35.2637C317.703 35.4505 317.61 35.651 317.478 35.8652C317.345 36.0794 317.172 36.2845 316.958 36.4805C316.748 36.6719 316.495 36.8291 316.199 36.9521C315.908 37.0752 315.57 37.1367 315.188 37.1367C314.704 37.1367 314.274 37.041 313.896 36.8496C313.517 36.6536 313.221 36.3916 313.007 36.0635C312.793 35.7308 312.686 35.3548 312.686 34.9355C312.686 34.5436 312.758 34.1973 312.904 33.8965C313.055 33.5911 313.273 33.3359 313.561 33.1309C313.852 32.9258 314.208 32.7708 314.627 32.666C315.046 32.5566 315.525 32.502 316.062 32.502H317.354ZM323.883 29.6035V30.8066H319.713V29.6035H323.883ZM320.916 27.792H322.563V34.9561C322.563 35.1839 322.595 35.3594 322.659 35.4824C322.728 35.6009 322.821 35.6807 322.939 35.7217C323.058 35.7627 323.197 35.7832 323.356 35.7832C323.47 35.7832 323.58 35.7764 323.685 35.7627C323.789 35.749 323.874 35.7354 323.938 35.7217L323.944 36.9795C323.808 37.0205 323.648 37.057 323.466 37.0889C323.288 37.1208 323.083 37.1367 322.851 37.1367C322.472 37.1367 322.137 37.0706 321.846 36.9385C321.554 36.8018 321.326 36.5807 321.162 36.2754C320.998 35.9701 320.916 35.5645 320.916 35.0586V27.792ZM326.918 29.6035V37H325.264V29.6035H326.918ZM325.154 27.6621C325.154 27.4115 325.236 27.2041 325.4 27.04C325.569 26.8714 325.801 26.7871 326.098 26.7871C326.389 26.7871 326.619 26.8714 326.788 27.04C326.957 27.2041 327.041 27.4115 327.041 27.6621C327.041 27.9082 326.957 28.1133 326.788 28.2773C326.619 28.4414 326.389 28.5234 326.098 28.5234C325.801 28.5234 325.569 28.4414 325.4 28.2773C325.236 28.1133 325.154 27.9082 325.154 27.6621ZM328.408 33.3838V33.2266C328.408 32.6934 328.486 32.1989 328.641 31.7432C328.796 31.2829 329.019 30.8841 329.311 30.5469C329.607 30.2051 329.967 29.9408 330.391 29.7539C330.819 29.5625 331.302 29.4668 331.84 29.4668C332.382 29.4668 332.865 29.5625 333.289 29.7539C333.717 29.9408 334.08 30.2051 334.376 30.5469C334.672 30.8841 334.898 31.2829 335.053 31.7432C335.208 32.1989 335.285 32.6934 335.285 33.2266V33.3838C335.285 33.917 335.208 34.4115 335.053 34.8672C334.898 35.3229 334.672 35.7217 334.376 36.0635C334.08 36.4007 333.72 36.665 333.296 36.8564C332.872 37.0433 332.391 37.1367 331.854 37.1367C331.311 37.1367 330.826 37.0433 330.397 36.8564C329.974 36.665 329.614 36.4007 329.317 36.0635C329.021 35.7217 328.796 35.3229 328.641 34.8672C328.486 34.4115 328.408 33.917 328.408 33.3838ZM330.056 33.2266V33.3838C330.056 33.7165 330.09 34.0309 330.158 34.3271C330.227 34.6234 330.334 34.8831 330.479 35.1064C330.625 35.3298 330.812 35.5052 331.04 35.6328C331.268 35.7604 331.539 35.8242 331.854 35.8242C332.159 35.8242 332.423 35.7604 332.646 35.6328C332.874 35.5052 333.061 35.3298 333.207 35.1064C333.353 34.8831 333.46 34.6234 333.528 34.3271C333.601 34.0309 333.638 33.7165 333.638 33.3838V33.2266C333.638 32.8984 333.601 32.5885 333.528 32.2969C333.46 32.0007 333.351 31.7386 333.2 31.5107C333.054 31.2829 332.868 31.1051 332.64 30.9775C332.416 30.8454 332.15 30.7793 331.84 30.7793C331.53 30.7793 331.261 30.8454 331.033 30.9775C330.81 31.1051 330.625 31.2829 330.479 31.5107C330.334 31.7386 330.227 32.0007 330.158 32.2969C330.09 32.5885 330.056 32.8984 330.056 33.2266ZM338.3 31.1826V37H336.652V29.6035H338.204L338.3 31.1826ZM338.006 33.0283L337.473 33.0215C337.477 32.4974 337.55 32.0166 337.691 31.5791C337.837 31.1416 338.038 30.7656 338.293 30.4512C338.553 30.1367 338.863 29.8952 339.223 29.7266C339.583 29.5534 339.984 29.4668 340.426 29.4668C340.781 29.4668 341.103 29.5169 341.39 29.6172C341.681 29.7129 341.93 29.8701 342.135 30.0889C342.344 30.3076 342.504 30.5924 342.613 30.9434C342.723 31.2897 342.777 31.7158 342.777 32.2217V37H341.123V32.2148C341.123 31.8594 341.071 31.5791 340.966 31.374C340.866 31.1644 340.717 31.0163 340.521 30.9297C340.33 30.8385 340.091 30.793 339.804 30.793C339.521 30.793 339.268 30.8522 339.045 30.9707C338.822 31.0892 338.632 31.251 338.478 31.4561C338.327 31.6611 338.211 31.8981 338.129 32.167C338.047 32.4359 338.006 32.723 338.006 33.0283Z" fill="white"/>
</g>
<defs>
<filter id="filter0_b_369_156" x="-27" y="-4" width="667" height="73" filterUnits="userSpaceOnUse" color-interpolation-filters="sRGB">
<feFlood flood-opacity="0" result="BackgroundImageFix"/>
<feGaussianBlur in="BackgroundImageFix" stdDeviation="2"/>
<feComposite in2="SourceAlpha" operator="in" result="effect1_backgroundBlur_369_156"/>
<feBlend mode="normal" in="SourceGraphic" in2="effect1_backgroundBlur_369_156" result="shape"/>
</filter>
</defs>
</svg>
