<svg width="614" height="65" viewBox="0 0 614 65" fill="none" xmlns="http://www.w3.org/2000/svg">
<g filter="url(#filter0_b_369_184)">
<rect width="614" height="65" fill="#2CCBBB"/>
<path d="M256.948 31.75V32.2969C256.948 33.0488 256.85 33.7233 256.654 34.3203C256.458 34.9173 256.178 35.4255 255.813 35.8447C255.453 36.264 255.021 36.5853 254.515 36.8086C254.009 37.0273 253.448 37.1367 252.833 37.1367C252.222 37.1367 251.664 37.0273 251.158 36.8086C250.657 36.5853 250.222 36.264 249.853 35.8447C249.483 35.4255 249.196 34.9173 248.991 34.3203C248.791 33.7233 248.69 33.0488 248.69 32.2969V31.75C248.69 30.998 248.791 30.3258 248.991 29.7334C249.192 29.1364 249.474 28.6283 249.839 28.209C250.208 27.7852 250.643 27.4639 251.145 27.2451C251.65 27.0218 252.209 26.9102 252.819 26.9102C253.435 26.9102 253.995 27.0218 254.501 27.2451C255.007 27.4639 255.442 27.7852 255.807 28.209C256.171 28.6283 256.451 29.1364 256.647 29.7334C256.848 30.3258 256.948 30.998 256.948 31.75ZM255.232 32.2969V31.7363C255.232 31.1803 255.178 30.6904 255.068 30.2666C254.964 29.8382 254.806 29.4805 254.597 29.1934C254.392 28.9017 254.139 28.6829 253.838 28.5371C253.537 28.3867 253.198 28.3115 252.819 28.3115C252.441 28.3115 252.104 28.3867 251.808 28.5371C251.511 28.6829 251.258 28.9017 251.049 29.1934C250.844 29.4805 250.687 29.8382 250.577 30.2666C250.468 30.6904 250.413 31.1803 250.413 31.7363V32.2969C250.413 32.8529 250.468 33.3451 250.577 33.7734C250.687 34.2018 250.846 34.5641 251.056 34.8604C251.27 35.152 251.525 35.373 251.821 35.5234C252.118 35.6693 252.455 35.7422 252.833 35.7422C253.216 35.7422 253.555 35.6693 253.852 35.5234C254.148 35.373 254.398 35.152 254.604 34.8604C254.809 34.5641 254.964 34.2018 255.068 33.7734C255.178 33.3451 255.232 32.8529 255.232 32.2969ZM263.012 35.4688V26.5H264.666V37H263.169L263.012 35.4688ZM258.199 33.3838V33.2402C258.199 32.6797 258.265 32.1693 258.397 31.709C258.53 31.2441 258.721 30.8454 258.972 30.5127C259.222 30.1755 259.528 29.918 259.888 29.7402C260.248 29.5579 260.653 29.4668 261.104 29.4668C261.551 29.4668 261.943 29.5534 262.28 29.7266C262.618 29.8997 262.905 30.1481 263.142 30.4717C263.379 30.7907 263.568 31.1735 263.709 31.6201C263.85 32.0622 263.951 32.5544 264.01 33.0967V33.5547C263.951 34.0833 263.85 34.5664 263.709 35.0039C263.568 35.4414 263.379 35.8197 263.142 36.1387C262.905 36.4577 262.615 36.7038 262.273 36.877C261.936 37.0501 261.542 37.1367 261.091 37.1367C260.644 37.1367 260.241 37.0433 259.881 36.8564C259.525 36.6696 259.222 36.4076 258.972 36.0703C258.721 35.7331 258.53 35.3366 258.397 34.8809C258.265 34.4206 258.199 33.9215 258.199 33.3838ZM259.847 33.2402V33.3838C259.847 33.721 259.876 34.0355 259.936 34.3271C259.999 34.6188 260.097 34.8763 260.229 35.0996C260.362 35.3184 260.533 35.4915 260.742 35.6191C260.956 35.7422 261.212 35.8037 261.508 35.8037C261.882 35.8037 262.189 35.7217 262.431 35.5576C262.672 35.3936 262.861 35.1725 262.998 34.8945C263.139 34.612 263.235 34.2975 263.285 33.9512V32.7139C263.258 32.445 263.201 32.1943 263.114 31.9619C263.032 31.7295 262.921 31.5267 262.779 31.3535C262.638 31.1758 262.463 31.0391 262.253 30.9434C262.048 30.8431 261.804 30.793 261.521 30.793C261.221 30.793 260.965 30.8568 260.756 30.9844C260.546 31.112 260.373 31.2874 260.236 31.5107C260.104 31.734 260.006 31.9938 259.942 32.29C259.879 32.5863 259.847 32.903 259.847 33.2402ZM269.649 37.1367C269.103 37.1367 268.608 37.0479 268.166 36.8701C267.729 36.6878 267.355 36.4349 267.045 36.1113C266.74 35.7878 266.505 35.4072 266.341 34.9697C266.177 34.5322 266.095 34.0605 266.095 33.5547V33.2812C266.095 32.7025 266.179 32.1784 266.348 31.709C266.516 31.2396 266.751 30.8385 267.052 30.5059C267.353 30.1686 267.708 29.9111 268.118 29.7334C268.528 29.5557 268.973 29.4668 269.451 29.4668C269.98 29.4668 270.442 29.5557 270.839 29.7334C271.235 29.9111 271.563 30.1618 271.823 30.4854C272.088 30.8044 272.284 31.1849 272.411 31.627C272.543 32.069 272.609 32.5566 272.609 33.0898V33.7939H266.895V32.6113H270.982V32.4814C270.973 32.1852 270.914 31.9072 270.805 31.6475C270.7 31.3877 270.538 31.1781 270.319 31.0186C270.101 30.859 269.809 30.7793 269.444 30.7793C269.171 30.7793 268.927 30.8385 268.713 30.957C268.503 31.071 268.328 31.2373 268.187 31.4561C268.045 31.6748 267.936 31.9391 267.858 32.249C267.785 32.5544 267.749 32.8984 267.749 33.2812V33.5547C267.749 33.8783 267.792 34.179 267.879 34.457C267.97 34.7305 268.102 34.9697 268.275 35.1748C268.449 35.3799 268.658 35.5417 268.904 35.6602C269.15 35.7741 269.431 35.8311 269.745 35.8311C270.142 35.8311 270.495 35.7513 270.805 35.5918C271.115 35.4323 271.383 35.2067 271.611 34.915L272.479 35.7559C272.32 35.9883 272.113 36.2116 271.857 36.4258C271.602 36.6354 271.29 36.8063 270.921 36.9385C270.556 37.0706 270.132 37.1367 269.649 37.1367ZM275.549 31.0117V37H273.901V29.6035H275.474L275.549 31.0117ZM277.812 29.5557L277.798 31.0869C277.698 31.0687 277.588 31.055 277.47 31.0459C277.356 31.0368 277.242 31.0322 277.128 31.0322C276.845 31.0322 276.597 31.0732 276.383 31.1553C276.169 31.2327 275.989 31.3467 275.843 31.4971C275.701 31.6429 275.592 31.8206 275.515 32.0303C275.437 32.2399 275.392 32.4746 275.378 32.7344L275.002 32.7617C275.002 32.2969 275.048 31.8662 275.139 31.4697C275.23 31.0732 275.367 30.7246 275.549 30.4238C275.736 30.123 275.968 29.8883 276.246 29.7197C276.529 29.5511 276.854 29.4668 277.224 29.4668C277.324 29.4668 277.431 29.4759 277.545 29.4941C277.663 29.5124 277.752 29.5329 277.812 29.5557ZM287.73 34.4365C287.73 34.2314 287.699 34.0492 287.635 33.8896C287.576 33.7301 287.468 33.5843 287.313 33.4521C287.159 33.32 286.94 33.1924 286.657 33.0693C286.379 32.9417 286.024 32.8118 285.591 32.6797C285.117 32.5339 284.679 32.3721 284.278 32.1943C283.882 32.012 283.535 31.8024 283.239 31.5654C282.943 31.3239 282.713 31.0482 282.549 30.7383C282.385 30.4238 282.303 30.0615 282.303 29.6514C282.303 29.2458 282.387 28.8766 282.556 28.5439C282.729 28.2113 282.973 27.9242 283.287 27.6826C283.606 27.4365 283.982 27.2474 284.415 27.1152C284.848 26.9785 285.326 26.9102 285.851 26.9102C286.589 26.9102 287.225 27.0469 287.758 27.3203C288.296 27.5938 288.708 27.9606 288.995 28.4209C289.287 28.8812 289.433 29.3893 289.433 29.9453H287.73C287.73 29.6172 287.66 29.3278 287.519 29.0771C287.382 28.8219 287.172 28.6214 286.89 28.4756C286.612 28.3298 286.258 28.2568 285.83 28.2568C285.424 28.2568 285.087 28.3184 284.818 28.4414C284.549 28.5645 284.349 28.7308 284.217 28.9404C284.085 29.1501 284.019 29.387 284.019 29.6514C284.019 29.8382 284.062 30.0091 284.148 30.1641C284.235 30.3145 284.367 30.4557 284.545 30.5879C284.723 30.7155 284.946 30.8363 285.215 30.9502C285.484 31.0641 285.8 31.1735 286.165 31.2783C286.716 31.4424 287.197 31.6247 287.607 31.8252C288.018 32.0212 288.359 32.2445 288.633 32.4951C288.906 32.7458 289.111 33.0306 289.248 33.3496C289.385 33.6641 289.453 34.0218 289.453 34.4229C289.453 34.8421 289.369 35.2204 289.2 35.5576C289.032 35.8903 288.79 36.1751 288.476 36.4121C288.166 36.6445 287.792 36.8245 287.354 36.9521C286.922 37.0752 286.438 37.1367 285.905 37.1367C285.427 37.1367 284.955 37.0729 284.49 36.9453C284.03 36.8177 283.611 36.624 283.232 36.3643C282.854 36.0999 282.553 35.7718 282.33 35.3799C282.107 34.9834 281.995 34.5208 281.995 33.9922H283.711C283.711 34.3158 283.766 34.5915 283.875 34.8193C283.989 35.0472 284.146 35.234 284.347 35.3799C284.547 35.5212 284.78 35.626 285.044 35.6943C285.313 35.7627 285.6 35.7969 285.905 35.7969C286.306 35.7969 286.641 35.7399 286.91 35.626C287.184 35.512 287.389 35.3525 287.525 35.1475C287.662 34.9424 287.73 34.7054 287.73 34.4365ZM295.257 35.2568V29.6035H296.911V37H295.353L295.257 35.2568ZM295.489 33.7188L296.043 33.7051C296.043 34.2018 295.988 34.6598 295.879 35.0791C295.77 35.4938 295.601 35.8561 295.373 36.166C295.145 36.4714 294.854 36.7106 294.498 36.8838C294.143 37.0524 293.716 37.1367 293.22 37.1367C292.86 37.1367 292.529 37.0843 292.229 36.9795C291.928 36.8747 291.668 36.7129 291.449 36.4941C291.235 36.2754 291.069 35.9906 290.95 35.6396C290.832 35.2887 290.772 34.8695 290.772 34.3818V29.6035H292.42V34.3955C292.42 34.6644 292.452 34.89 292.516 35.0723C292.579 35.25 292.666 35.3936 292.775 35.5029C292.885 35.6123 293.012 35.6898 293.158 35.7354C293.304 35.7809 293.459 35.8037 293.623 35.8037C294.092 35.8037 294.462 35.7126 294.73 35.5303C295.004 35.3434 295.198 35.0928 295.312 34.7783C295.43 34.4639 295.489 34.1107 295.489 33.7188ZM300.247 31.1074V37H298.6V29.6035H300.151L300.247 31.1074ZM299.98 33.0283L299.42 33.0215C299.42 32.5111 299.484 32.0394 299.611 31.6064C299.739 31.1735 299.926 30.7975 300.172 30.4785C300.418 30.1549 300.723 29.9066 301.088 29.7334C301.457 29.5557 301.883 29.4668 302.366 29.4668C302.703 29.4668 303.011 29.5169 303.289 29.6172C303.572 29.7129 303.815 29.8656 304.021 30.0752C304.23 30.2848 304.39 30.5537 304.499 30.8818C304.613 31.21 304.67 31.6064 304.67 32.0713V37H303.022V32.2148C303.022 31.8548 302.968 31.5723 302.858 31.3672C302.754 31.1621 302.601 31.0163 302.4 30.9297C302.204 30.8385 301.97 30.793 301.696 30.793C301.386 30.793 301.122 30.8522 300.903 30.9707C300.689 31.0892 300.514 31.251 300.377 31.4561C300.24 31.6611 300.14 31.8981 300.076 32.167C300.012 32.4359 299.98 32.723 299.98 33.0283ZM304.567 32.5908L303.795 32.7617C303.795 32.3151 303.856 31.8936 303.979 31.4971C304.107 31.096 304.292 30.7451 304.533 30.4443C304.779 30.139 305.082 29.8997 305.442 29.7266C305.802 29.5534 306.215 29.4668 306.68 29.4668C307.058 29.4668 307.395 29.5192 307.691 29.624C307.992 29.7243 308.247 29.8838 308.457 30.1025C308.667 30.3213 308.826 30.6061 308.936 30.957C309.045 31.3034 309.1 31.7227 309.1 32.2148V37H307.445V32.208C307.445 31.8343 307.391 31.5449 307.281 31.3398C307.176 31.1348 307.026 30.9935 306.83 30.916C306.634 30.834 306.399 30.793 306.126 30.793C305.871 30.793 305.645 30.8408 305.449 30.9365C305.258 31.0277 305.096 31.1576 304.964 31.3262C304.832 31.4902 304.731 31.6794 304.663 31.8936C304.599 32.1077 304.567 32.3402 304.567 32.5908ZM312.442 31.1074V37H310.795V29.6035H312.347L312.442 31.1074ZM312.176 33.0283L311.615 33.0215C311.615 32.5111 311.679 32.0394 311.807 31.6064C311.934 31.1735 312.121 30.7975 312.367 30.4785C312.613 30.1549 312.919 29.9066 313.283 29.7334C313.652 29.5557 314.078 29.4668 314.562 29.4668C314.899 29.4668 315.206 29.5169 315.484 29.6172C315.767 29.7129 316.011 29.8656 316.216 30.0752C316.425 30.2848 316.585 30.5537 316.694 30.8818C316.808 31.21 316.865 31.6064 316.865 32.0713V37H315.218V32.2148C315.218 31.8548 315.163 31.5723 315.054 31.3672C314.949 31.1621 314.796 31.0163 314.596 30.9297C314.4 30.8385 314.165 30.793 313.892 30.793C313.582 30.793 313.317 30.8522 313.099 30.9707C312.884 31.0892 312.709 31.251 312.572 31.4561C312.436 31.6611 312.335 31.8981 312.271 32.167C312.208 32.4359 312.176 32.723 312.176 33.0283ZM316.763 32.5908L315.99 32.7617C315.99 32.3151 316.052 31.8936 316.175 31.4971C316.302 31.096 316.487 30.7451 316.729 30.4443C316.975 30.139 317.278 29.8997 317.638 29.7266C317.998 29.5534 318.41 29.4668 318.875 29.4668C319.253 29.4668 319.59 29.5192 319.887 29.624C320.188 29.7243 320.443 29.8838 320.652 30.1025C320.862 30.3213 321.021 30.6061 321.131 30.957C321.24 31.3034 321.295 31.7227 321.295 32.2148V37H319.641V32.208C319.641 31.8343 319.586 31.5449 319.477 31.3398C319.372 31.1348 319.221 30.9935 319.025 30.916C318.829 30.834 318.595 30.793 318.321 30.793C318.066 30.793 317.84 30.8408 317.645 30.9365C317.453 31.0277 317.291 31.1576 317.159 31.3262C317.027 31.4902 316.927 31.6794 316.858 31.8936C316.795 32.1077 316.763 32.3402 316.763 32.5908ZM327.16 35.5166V31.9893C327.16 31.7249 327.112 31.4971 327.017 31.3057C326.921 31.1143 326.775 30.9661 326.579 30.8613C326.388 30.7565 326.146 30.7041 325.854 30.7041C325.586 30.7041 325.353 30.7497 325.157 30.8408C324.961 30.932 324.809 31.055 324.699 31.21C324.59 31.3649 324.535 31.5404 324.535 31.7363H322.895C322.895 31.4447 322.965 31.1621 323.106 30.8887C323.248 30.6152 323.453 30.3714 323.722 30.1572C323.991 29.943 324.312 29.7744 324.686 29.6514C325.059 29.5283 325.479 29.4668 325.943 29.4668C326.499 29.4668 326.992 29.5602 327.42 29.7471C327.853 29.9339 328.192 30.2165 328.438 30.5947C328.689 30.9684 328.814 31.4378 328.814 32.0029V35.291C328.814 35.6283 328.837 35.9313 328.883 36.2002C328.933 36.4645 329.004 36.6947 329.095 36.8906V37H327.406C327.329 36.8223 327.267 36.5967 327.222 36.3232C327.181 36.0452 327.16 35.7764 327.16 35.5166ZM327.399 32.502L327.413 33.5205H326.23C325.925 33.5205 325.656 33.5501 325.424 33.6094C325.191 33.6641 324.998 33.7461 324.843 33.8555C324.688 33.9648 324.572 34.097 324.494 34.252C324.417 34.4069 324.378 34.5824 324.378 34.7783C324.378 34.9743 324.424 35.1543 324.515 35.3184C324.606 35.4779 324.738 35.6032 324.911 35.6943C325.089 35.7855 325.303 35.8311 325.554 35.8311C325.891 35.8311 326.185 35.7627 326.436 35.626C326.691 35.4847 326.891 35.3138 327.037 35.1133C327.183 34.9082 327.26 34.7145 327.27 34.5322L327.803 35.2637C327.748 35.4505 327.655 35.651 327.522 35.8652C327.39 36.0794 327.217 36.2845 327.003 36.4805C326.793 36.6719 326.54 36.8291 326.244 36.9521C325.952 37.0752 325.615 37.1367 325.232 37.1367C324.749 37.1367 324.319 37.041 323.94 36.8496C323.562 36.6536 323.266 36.3916 323.052 36.0635C322.838 35.7308 322.73 35.3548 322.73 34.9355C322.73 34.5436 322.803 34.1973 322.949 33.8965C323.1 33.5911 323.318 33.3359 323.605 33.1309C323.897 32.9258 324.253 32.7708 324.672 32.666C325.091 32.5566 325.57 32.502 326.107 32.502H327.399ZM332.191 31.0117V37H330.544V29.6035H332.116L332.191 31.0117ZM334.454 29.5557L334.44 31.0869C334.34 31.0687 334.231 31.055 334.112 31.0459C333.998 31.0368 333.884 31.0322 333.771 31.0322C333.488 31.0322 333.24 31.0732 333.025 31.1553C332.811 31.2327 332.631 31.3467 332.485 31.4971C332.344 31.6429 332.235 31.8206 332.157 32.0303C332.08 32.2399 332.034 32.4746 332.021 32.7344L331.645 32.7617C331.645 32.2969 331.69 31.8662 331.781 31.4697C331.872 31.0732 332.009 30.7246 332.191 30.4238C332.378 30.123 332.611 29.8883 332.889 29.7197C333.171 29.5511 333.497 29.4668 333.866 29.4668C333.966 29.4668 334.074 29.4759 334.188 29.4941C334.306 29.5124 334.395 29.5329 334.454 29.5557ZM337.756 36.1934L339.766 29.6035H341.529L338.562 38.1279C338.494 38.3102 338.405 38.5085 338.296 38.7227C338.187 38.9368 338.043 39.1396 337.865 39.3311C337.692 39.527 337.476 39.6842 337.216 39.8027C336.956 39.9258 336.642 39.9873 336.272 39.9873C336.127 39.9873 335.985 39.9736 335.849 39.9463C335.716 39.9235 335.591 39.8984 335.473 39.8711L335.466 38.6133C335.511 38.6178 335.566 38.6224 335.63 38.627C335.698 38.6315 335.753 38.6338 335.794 38.6338C336.067 38.6338 336.295 38.5996 336.478 38.5312C336.66 38.4674 336.808 38.3626 336.922 38.2168C337.04 38.071 337.141 37.875 337.223 37.6289L337.756 36.1934ZM336.621 29.6035L338.378 35.1406L338.672 36.877L337.53 37.1709L334.844 29.6035H336.621Z" fill="white"/>
</g>
<defs>
<filter id="filter0_b_369_184" x="-4" y="-4" width="622" height="73" filterUnits="userSpaceOnUse" color-interpolation-filters="sRGB">
<feFlood flood-opacity="0" result="BackgroundImageFix"/>
<feGaussianBlur in="BackgroundImageFix" stdDeviation="2"/>
<feComposite in2="SourceAlpha" operator="in" result="effect1_backgroundBlur_369_184"/>
<feBlend mode="normal" in="SourceGraphic" in2="effect1_backgroundBlur_369_184" result="shape"/>
</filter>
</defs>
</svg>
