<svg width="409" height="57" viewBox="0 0 409 57" fill="none" xmlns="http://www.w3.org/2000/svg">
<g filter="url(#filter0_b_369_121)">
<rect x="181" y="8" width="155" height="38" rx="5" fill="black"/>
<path d="M229.392 31.048L233.004 27.212C233.303 26.8947 233.545 26.61 233.732 26.358C233.919 26.106 234.054 25.868 234.138 25.644C234.222 25.42 234.264 25.1913 234.264 24.958C234.264 24.5193 234.119 24.1787 233.83 23.936C233.55 23.684 233.191 23.558 232.752 23.558C232.285 23.558 231.875 23.6747 231.52 23.908C231.165 24.1413 230.848 24.5053 230.568 25L229.448 24.076C229.831 23.4133 230.302 22.914 230.862 22.578C231.422 22.2327 232.071 22.06 232.808 22.06C233.415 22.06 233.947 22.1813 234.404 22.424C234.861 22.6667 235.216 23.0073 235.468 23.446C235.72 23.8753 235.846 24.3747 235.846 24.944C235.846 25.3547 235.795 25.7233 235.692 26.05C235.599 26.3673 235.435 26.6893 235.202 27.016C234.969 27.3333 234.647 27.7067 234.236 28.136L231.464 31.006L229.392 31.048ZM229.392 32V31.048L230.778 30.558H236.042V32H229.392ZM241.18 32.14C240.443 32.14 239.766 31.9347 239.15 31.524C238.544 31.104 238.058 30.516 237.694 29.76C237.33 29.004 237.148 28.1127 237.148 27.086C237.148 26.0593 237.326 25.1727 237.68 24.426C238.044 23.67 238.53 23.0867 239.136 22.676C239.743 22.2653 240.415 22.06 241.152 22.06C241.899 22.06 242.576 22.2653 243.182 22.676C243.789 23.0867 244.27 23.67 244.624 24.426C244.988 25.1727 245.17 26.064 245.17 27.1C245.17 28.1267 244.988 29.018 244.624 29.774C244.27 30.53 243.789 31.1133 243.182 31.524C242.585 31.9347 241.918 32.14 241.18 32.14ZM241.152 30.628C241.638 30.628 242.058 30.4973 242.412 30.236C242.767 29.9747 243.042 29.5827 243.238 29.06C243.444 28.5373 243.546 27.8793 243.546 27.086C243.546 26.302 243.444 25.6487 243.238 25.126C243.042 24.6033 242.762 24.216 242.398 23.964C242.044 23.7027 241.628 23.572 241.152 23.572C240.676 23.572 240.256 23.7027 239.892 23.964C239.538 24.216 239.262 24.6033 239.066 25.126C238.87 25.6393 238.772 26.2927 238.772 27.086C238.772 27.8793 238.87 28.5373 239.066 29.06C239.262 29.5827 239.538 29.9747 239.892 30.236C240.256 30.4973 240.676 30.628 241.152 30.628ZM250.354 32.14C249.617 32.14 248.94 31.9347 248.324 31.524C247.717 31.104 247.232 30.516 246.868 29.76C246.504 29.004 246.322 28.1127 246.322 27.086C246.322 26.0593 246.499 25.1727 246.854 24.426C247.218 23.67 247.703 23.0867 248.31 22.676C248.917 22.2653 249.589 22.06 250.326 22.06C251.073 22.06 251.749 22.2653 252.356 22.676C252.963 23.0867 253.443 23.67 253.798 24.426C254.162 25.1727 254.344 26.064 254.344 27.1C254.344 28.1267 254.162 29.018 253.798 29.774C253.443 30.53 252.963 31.1133 252.356 31.524C251.759 31.9347 251.091 32.14 250.354 32.14ZM250.326 30.628C250.811 30.628 251.231 30.4973 251.586 30.236C251.941 29.9747 252.216 29.5827 252.412 29.06C252.617 28.5373 252.72 27.8793 252.72 27.086C252.72 26.302 252.617 25.6487 252.412 25.126C252.216 24.6033 251.936 24.216 251.572 23.964C251.217 23.7027 250.802 23.572 250.326 23.572C249.85 23.572 249.43 23.7027 249.066 23.964C248.711 24.216 248.436 24.6033 248.24 25.126C248.044 25.6393 247.946 26.2927 247.946 27.086C247.946 27.8793 248.044 28.5373 248.24 29.06C248.436 29.5827 248.711 29.9747 249.066 30.236C249.43 30.4973 249.85 30.628 250.326 30.628ZM259.528 32.14C258.791 32.14 258.114 31.9347 257.498 31.524C256.891 31.104 256.406 30.516 256.042 29.76C255.678 29.004 255.496 28.1127 255.496 27.086C255.496 26.0593 255.673 25.1727 256.028 24.426C256.392 23.67 256.877 23.0867 257.484 22.676C258.091 22.2653 258.763 22.06 259.5 22.06C260.247 22.06 260.923 22.2653 261.53 22.676C262.137 23.0867 262.617 23.67 262.972 24.426C263.336 25.1727 263.518 26.064 263.518 27.1C263.518 28.1267 263.336 29.018 262.972 29.774C262.617 30.53 262.137 31.1133 261.53 31.524C260.933 31.9347 260.265 32.14 259.528 32.14ZM259.5 30.628C259.985 30.628 260.405 30.4973 260.76 30.236C261.115 29.9747 261.39 29.5827 261.586 29.06C261.791 28.5373 261.894 27.8793 261.894 27.086C261.894 26.302 261.791 25.6487 261.586 25.126C261.39 24.6033 261.11 24.216 260.746 23.964C260.391 23.7027 259.976 23.572 259.5 23.572C259.024 23.572 258.604 23.7027 258.24 23.964C257.885 24.216 257.61 24.6033 257.414 25.126C257.218 25.6393 257.12 26.2927 257.12 27.086C257.12 27.8793 257.218 28.5373 257.414 29.06C257.61 29.5827 257.885 29.9747 258.24 30.236C258.604 30.4973 259.024 30.628 259.5 30.628ZM269.22 32L266.378 28.57L269.206 25.28H271.04L267.792 28.976L267.862 28.094L271.18 32H269.22ZM264.95 32V21.92H266.49V32H264.95ZM274.88 32.14C274.208 32.14 273.602 31.9907 273.06 31.692C272.528 31.384 272.104 30.964 271.786 30.432C271.478 29.9 271.324 29.3027 271.324 28.64C271.324 27.9773 271.478 27.3847 271.786 26.862C272.094 26.33 272.51 25.91 273.032 25.602C273.564 25.294 274.152 25.14 274.796 25.14C275.422 25.14 275.972 25.2847 276.448 25.574C276.934 25.8633 277.312 26.26 277.582 26.764C277.862 27.268 278.002 27.842 278.002 28.486C278.002 28.598 277.993 28.7147 277.974 28.836C277.965 28.948 277.946 29.074 277.918 29.214H272.402V27.954H277.12L276.546 28.458C276.528 28.0473 276.448 27.702 276.308 27.422C276.168 27.142 275.968 26.9273 275.706 26.778C275.454 26.6287 275.142 26.554 274.768 26.554C274.376 26.554 274.036 26.638 273.746 26.806C273.457 26.974 273.233 27.212 273.074 27.52C272.916 27.8187 272.836 28.178 272.836 28.598C272.836 29.018 272.92 29.3867 273.088 29.704C273.256 30.0213 273.494 30.2687 273.802 30.446C274.11 30.614 274.465 30.698 274.866 30.698C275.212 30.698 275.529 30.6373 275.818 30.516C276.117 30.3947 276.369 30.2173 276.574 29.984L277.554 30.978C277.228 31.3607 276.831 31.65 276.364 31.846C275.898 32.042 275.403 32.14 274.88 32.14ZM281.435 32.14C281.061 32.14 280.702 32.0933 280.357 32C280.011 31.8973 279.694 31.7573 279.405 31.58C279.115 31.3933 278.863 31.1693 278.649 30.908L279.629 29.928C279.862 30.1987 280.128 30.404 280.427 30.544C280.735 30.6747 281.08 30.74 281.463 30.74C281.808 30.74 282.069 30.6887 282.247 30.586C282.424 30.4833 282.513 30.334 282.513 30.138C282.513 29.9327 282.429 29.774 282.261 29.662C282.093 29.55 281.873 29.4567 281.603 29.382C281.341 29.298 281.061 29.214 280.763 29.13C280.473 29.046 280.193 28.934 279.923 28.794C279.661 28.6447 279.447 28.444 279.279 28.192C279.111 27.94 279.027 27.6133 279.027 27.212C279.027 26.7827 279.125 26.414 279.321 26.106C279.526 25.798 279.811 25.56 280.175 25.392C280.548 25.224 280.991 25.14 281.505 25.14C282.046 25.14 282.522 25.238 282.933 25.434C283.353 25.6207 283.703 25.9053 283.983 26.288L283.003 27.268C282.807 27.0253 282.583 26.8433 282.331 26.722C282.079 26.6007 281.789 26.54 281.463 26.54C281.155 26.54 280.917 26.5867 280.749 26.68C280.581 26.7733 280.497 26.9087 280.497 27.086C280.497 27.2727 280.581 27.4173 280.749 27.52C280.917 27.6227 281.131 27.7113 281.393 27.786C281.663 27.8607 281.943 27.9447 282.233 28.038C282.531 28.122 282.811 28.2433 283.073 28.402C283.343 28.5513 283.563 28.7567 283.731 29.018C283.899 29.27 283.983 29.6013 283.983 30.012C283.983 30.6653 283.754 31.1833 283.297 31.566C282.839 31.9487 282.219 32.14 281.435 32.14ZM289.858 32V28.122C289.858 27.674 289.714 27.3053 289.424 27.016C289.144 26.7267 288.78 26.582 288.332 26.582C288.034 26.582 287.768 26.6473 287.534 26.778C287.301 26.9087 287.119 27.0907 286.988 27.324C286.858 27.5573 286.792 27.8233 286.792 28.122L286.19 27.786C286.19 27.2727 286.302 26.82 286.526 26.428C286.75 26.0267 287.058 25.714 287.45 25.49C287.852 25.2567 288.3 25.14 288.794 25.14C289.298 25.14 289.746 25.252 290.138 25.476C290.53 25.7 290.838 26.0127 291.062 26.414C291.286 26.806 291.398 27.2633 291.398 27.786V32H289.858ZM285.252 32V21.92H286.792V32H285.252Z" fill="white"/>
<path d="M30.248 24.4365C30.248 24.2314 30.2161 24.0492 30.1523 23.8896C30.0931 23.7301 29.986 23.5843 29.8311 23.4521C29.6761 23.32 29.4574 23.1924 29.1748 23.0693C28.8968 22.9417 28.5413 22.8118 28.1084 22.6797C27.6344 22.5339 27.1969 22.3721 26.7959 22.1943C26.3994 22.012 26.0531 21.8024 25.7568 21.5654C25.4606 21.3239 25.2305 21.0482 25.0664 20.7383C24.9023 20.4238 24.8203 20.0615 24.8203 19.6514C24.8203 19.2458 24.9046 18.8766 25.0732 18.5439C25.2464 18.2113 25.4902 17.9242 25.8047 17.6826C26.1237 17.4365 26.4997 17.2474 26.9326 17.1152C27.3656 16.9785 27.8441 16.9102 28.3682 16.9102C29.1064 16.9102 29.7422 17.0469 30.2754 17.3203C30.8132 17.5938 31.2256 17.9606 31.5127 18.4209C31.8044 18.8812 31.9502 19.3893 31.9502 19.9453H30.248C30.248 19.6172 30.1774 19.3278 30.0361 19.0771C29.8994 18.8219 29.6898 18.6214 29.4072 18.4756C29.1292 18.3298 28.776 18.2568 28.3477 18.2568C27.9421 18.2568 27.6048 18.3184 27.3359 18.4414C27.0671 18.5645 26.8665 18.7308 26.7344 18.9404C26.6022 19.1501 26.5361 19.387 26.5361 19.6514C26.5361 19.8382 26.5794 20.0091 26.666 20.1641C26.7526 20.3145 26.8848 20.4557 27.0625 20.5879C27.2402 20.7155 27.4635 20.8363 27.7324 20.9502C28.0013 21.0641 28.318 21.1735 28.6826 21.2783C29.234 21.4424 29.7148 21.6247 30.125 21.8252C30.5352 22.0212 30.877 22.2445 31.1504 22.4951C31.4238 22.7458 31.6289 23.0306 31.7656 23.3496C31.9023 23.6641 31.9707 24.0218 31.9707 24.4229C31.9707 24.8421 31.8864 25.2204 31.7178 25.5576C31.5492 25.8903 31.3076 26.1751 30.9932 26.4121C30.6833 26.6445 30.3096 26.8245 29.8721 26.9521C29.4391 27.0752 28.9561 27.1367 28.4229 27.1367C27.9443 27.1367 27.4727 27.0729 27.0078 26.9453C26.5475 26.8177 26.1283 26.624 25.75 26.3643C25.3717 26.0999 25.071 25.7718 24.8477 25.3799C24.6243 24.9834 24.5127 24.5208 24.5127 23.9922H26.2285C26.2285 24.3158 26.2832 24.5915 26.3926 24.8193C26.5065 25.0472 26.6637 25.234 26.8643 25.3799C27.0648 25.5212 27.2972 25.626 27.5615 25.6943C27.8304 25.7627 28.1175 25.7969 28.4229 25.7969C28.8239 25.7969 29.1589 25.7399 29.4277 25.626C29.7012 25.512 29.9062 25.3525 30.043 25.1475C30.1797 24.9424 30.248 24.7054 30.248 24.4365ZM37.7744 25.2568V19.6035H39.4287V27H37.8701L37.7744 25.2568ZM38.0068 23.7188L38.5605 23.7051C38.5605 24.2018 38.5059 24.6598 38.3965 25.0791C38.2871 25.4938 38.1185 25.8561 37.8906 26.166C37.6628 26.4714 37.3711 26.7106 37.0156 26.8838C36.6602 27.0524 36.234 27.1367 35.7373 27.1367C35.3773 27.1367 35.0469 27.0843 34.7461 26.9795C34.4453 26.8747 34.1855 26.7129 33.9668 26.4941C33.7526 26.2754 33.5863 25.9906 33.4678 25.6396C33.3493 25.2887 33.29 24.8695 33.29 24.3818V19.6035H34.9375V24.3955C34.9375 24.6644 34.9694 24.89 35.0332 25.0723C35.097 25.25 35.1836 25.3936 35.293 25.5029C35.4023 25.6123 35.5299 25.6898 35.6758 25.7354C35.8216 25.7809 35.9766 25.8037 36.1406 25.8037C36.61 25.8037 36.9792 25.7126 37.248 25.5303C37.5215 25.3434 37.7152 25.0928 37.8291 24.7783C37.9476 24.4639 38.0068 24.1107 38.0068 23.7188ZM41.124 16.5H42.7715V25.4209L42.6143 27H41.124V16.5ZM47.5977 23.2334V23.377C47.5977 23.9238 47.5361 24.4274 47.4131 24.8877C47.2946 25.3434 47.1123 25.7399 46.8662 26.0771C46.6247 26.4144 46.3239 26.6764 45.9639 26.8633C45.6084 27.0456 45.196 27.1367 44.7266 27.1367C44.2663 27.1367 43.8652 27.0501 43.5234 26.877C43.1816 26.7038 42.8945 26.4577 42.6621 26.1387C42.4342 25.8197 42.2497 25.4391 42.1084 24.9971C41.9671 24.555 41.8669 24.0674 41.8076 23.5342V23.0762C41.8669 22.5384 41.9671 22.0508 42.1084 21.6133C42.2497 21.1712 42.4342 20.7907 42.6621 20.4717C42.8945 20.1481 43.1794 19.8997 43.5166 19.7266C43.8584 19.5534 44.2572 19.4668 44.7129 19.4668C45.1868 19.4668 45.6038 19.5579 45.9639 19.7402C46.3285 19.9225 46.6315 20.1823 46.873 20.5195C47.1146 20.8522 47.2946 21.2487 47.4131 21.709C47.5361 22.1693 47.5977 22.6774 47.5977 23.2334ZM45.9502 23.377V23.2334C45.9502 22.9007 45.9229 22.5885 45.8682 22.2969C45.8135 22.0007 45.7223 21.7409 45.5947 21.5176C45.4717 21.2943 45.3031 21.1188 45.0889 20.9912C44.8792 20.859 44.6172 20.793 44.3027 20.793C44.0111 20.793 43.7604 20.8431 43.5508 20.9434C43.3411 21.0436 43.1657 21.1803 43.0244 21.3535C42.8831 21.5267 42.7715 21.7272 42.6895 21.9551C42.612 22.1829 42.5596 22.429 42.5322 22.6934V23.9307C42.5732 24.2725 42.6598 24.5869 42.792 24.874C42.9287 25.1566 43.1201 25.3844 43.3662 25.5576C43.6123 25.7262 43.929 25.8105 44.3164 25.8105C44.6217 25.8105 44.8792 25.749 45.0889 25.626C45.2985 25.5029 45.4648 25.332 45.5879 25.1133C45.7155 24.89 45.8066 24.6302 45.8613 24.334C45.9206 24.0378 45.9502 23.7188 45.9502 23.377ZM52.3076 22.0918V23.4043H48.6914V22.0918H52.3076ZM58.0088 17.0469V27H56.3066V17.0469H58.0088ZM61.1328 17.0469V18.4141H53.21V17.0469H61.1328ZM61.0098 23.3838V23.2266C61.0098 22.6934 61.0872 22.1989 61.2422 21.7432C61.3971 21.2829 61.6204 20.8841 61.9121 20.5469C62.2083 20.2051 62.5684 19.9408 62.9922 19.7539C63.4206 19.5625 63.9036 19.4668 64.4414 19.4668C64.9837 19.4668 65.4668 19.5625 65.8906 19.7539C66.319 19.9408 66.6813 20.2051 66.9775 20.5469C67.2738 20.8841 67.4993 21.2829 67.6543 21.7432C67.8092 22.1989 67.8867 22.6934 67.8867 23.2266V23.3838C67.8867 23.917 67.8092 24.4115 67.6543 24.8672C67.4993 25.3229 67.2738 25.7217 66.9775 26.0635C66.6813 26.4007 66.3213 26.665 65.8975 26.8564C65.4736 27.0433 64.9928 27.1367 64.4551 27.1367C63.9128 27.1367 63.4274 27.0433 62.999 26.8564C62.5752 26.665 62.2152 26.4007 61.9189 26.0635C61.6227 25.7217 61.3971 25.3229 61.2422 24.8672C61.0872 24.4115 61.0098 23.917 61.0098 23.3838ZM62.6572 23.2266V23.3838C62.6572 23.7165 62.6914 24.0309 62.7598 24.3271C62.8281 24.6234 62.9352 24.8831 63.0811 25.1064C63.2269 25.3298 63.4137 25.5052 63.6416 25.6328C63.8695 25.7604 64.1406 25.8242 64.4551 25.8242C64.7604 25.8242 65.0247 25.7604 65.248 25.6328C65.4759 25.5052 65.6628 25.3298 65.8086 25.1064C65.9544 24.8831 66.0615 24.6234 66.1299 24.3271C66.2028 24.0309 66.2393 23.7165 66.2393 23.3838V23.2266C66.2393 22.8984 66.2028 22.5885 66.1299 22.2969C66.0615 22.0007 65.9521 21.7386 65.8018 21.5107C65.6559 21.2829 65.4691 21.1051 65.2412 20.9775C65.0179 20.8454 64.7513 20.7793 64.4414 20.7793C64.1315 20.7793 63.8626 20.8454 63.6348 20.9775C63.4115 21.1051 63.2269 21.2829 63.0811 21.5107C62.9352 21.7386 62.8281 22.0007 62.7598 22.2969C62.6914 22.5885 62.6572 22.8984 62.6572 23.2266ZM72.6582 19.6035V20.8066H68.4883V19.6035H72.6582ZM69.6914 17.792H71.3389V24.9561C71.3389 25.1839 71.3708 25.3594 71.4346 25.4824C71.5029 25.6009 71.5964 25.6807 71.7148 25.7217C71.8333 25.7627 71.9723 25.7832 72.1318 25.7832C72.2458 25.7832 72.3551 25.7764 72.46 25.7627C72.5648 25.749 72.6491 25.7354 72.7129 25.7217L72.7197 26.9795C72.583 27.0205 72.4235 27.057 72.2412 27.0889C72.0635 27.1208 71.8584 27.1367 71.626 27.1367C71.2477 27.1367 70.9128 27.0706 70.6211 26.9385C70.3294 26.8018 70.1016 26.5807 69.9375 26.2754C69.7734 25.9701 69.6914 25.5645 69.6914 25.0586V17.792ZM78.0996 25.5166V21.9893C78.0996 21.7249 78.0518 21.4971 77.9561 21.3057C77.8604 21.1143 77.7145 20.9661 77.5186 20.8613C77.3271 20.7565 77.0856 20.7041 76.7939 20.7041C76.5251 20.7041 76.2926 20.7497 76.0967 20.8408C75.9007 20.932 75.748 21.055 75.6387 21.21C75.5293 21.3649 75.4746 21.5404 75.4746 21.7363H73.834C73.834 21.4447 73.9046 21.1621 74.0459 20.8887C74.1872 20.6152 74.3923 20.3714 74.6611 20.1572C74.93 19.943 75.2513 19.7744 75.625 19.6514C75.9987 19.5283 76.418 19.4668 76.8828 19.4668C77.4388 19.4668 77.931 19.5602 78.3594 19.7471C78.7923 19.9339 79.1318 20.2165 79.3779 20.5947C79.6286 20.9684 79.7539 21.4378 79.7539 22.0029V25.291C79.7539 25.6283 79.7767 25.9313 79.8223 26.2002C79.8724 26.4645 79.943 26.6947 80.0342 26.8906V27H78.3457C78.2682 26.8223 78.2067 26.5967 78.1611 26.3232C78.1201 26.0452 78.0996 25.7764 78.0996 25.5166ZM78.3389 22.502L78.3525 23.5205H77.1699C76.8646 23.5205 76.5957 23.5501 76.3633 23.6094C76.1309 23.6641 75.9372 23.7461 75.7822 23.8555C75.6273 23.9648 75.5111 24.097 75.4336 24.252C75.3561 24.4069 75.3174 24.5824 75.3174 24.7783C75.3174 24.9743 75.363 25.1543 75.4541 25.3184C75.5452 25.4779 75.6774 25.6032 75.8506 25.6943C76.0283 25.7855 76.2425 25.8311 76.4932 25.8311C76.8304 25.8311 77.1243 25.7627 77.375 25.626C77.6302 25.4847 77.8307 25.3138 77.9766 25.1133C78.1224 24.9082 78.1999 24.7145 78.209 24.5322L78.7422 25.2637C78.6875 25.4505 78.5941 25.651 78.4619 25.8652C78.3298 26.0794 78.1566 26.2845 77.9424 26.4805C77.7327 26.6719 77.4798 26.8291 77.1836 26.9521C76.8919 27.0752 76.5547 27.1367 76.1719 27.1367C75.6888 27.1367 75.2581 27.041 74.8799 26.8496C74.5016 26.6536 74.2054 26.3916 73.9912 26.0635C73.777 25.7308 73.6699 25.3548 73.6699 24.9355C73.6699 24.5436 73.7428 24.1973 73.8887 23.8965C74.0391 23.5911 74.2578 23.3359 74.5449 23.1309C74.8366 22.9258 75.1921 22.7708 75.6113 22.666C76.0306 22.5566 76.5091 22.502 77.0469 22.502H78.3389ZM83.2402 16.5V27H81.5859V16.5H83.2402Z" fill="black"/>
</g>
<defs>
<filter id="filter0_b_369_121" x="-4" y="-4" width="417" height="65" filterUnits="userSpaceOnUse" color-interpolation-filters="sRGB">
<feFlood flood-opacity="0" result="BackgroundImageFix"/>
<feGaussianBlur in="BackgroundImageFix" stdDeviation="2"/>
<feComposite in2="SourceAlpha" operator="in" result="effect1_backgroundBlur_369_121"/>
<feBlend mode="normal" in="SourceGraphic" in2="effect1_backgroundBlur_369_121" result="shape"/>
</filter>
</defs>
</svg>
