<svg width="527" height="96" viewBox="0 0 527 96" fill="none" xmlns="http://www.w3.org/2000/svg">
<path d="M34.18 70.66C31.02 70.66 28.08 70.12 25.36 69.04C22.68 67.92 20.32 66.36 18.28 64.36C16.28 62.36 14.72 60.04 13.6 57.4C12.48 54.72 11.92 51.84 11.92 48.76C11.92 45.68 12.48 42.82 13.6 40.18C14.72 37.5 16.28 35.18 18.28 33.22C20.28 31.26 22.62 29.74 25.3 28.66C28.02 27.54 30.96 26.98 34.12 26.98C37.48 26.98 40.46 27.52 43.06 28.6C45.7 29.68 48 31.16 49.96 33.04L43.66 39.4C42.54 38.2 41.18 37.26 39.58 36.58C38.02 35.9 36.2 35.56 34.12 35.56C32.28 35.56 30.58 35.88 29.02 36.52C27.5 37.12 26.18 38 25.06 39.16C23.98 40.32 23.12 41.72 22.48 43.36C21.88 45 21.58 46.8 21.58 48.76C21.58 50.76 21.88 52.58 22.48 54.22C23.12 55.86 23.98 57.26 25.06 58.42C26.18 59.58 27.5 60.48 29.02 61.12C30.58 61.76 32.28 62.08 34.12 62.08C36.28 62.08 38.16 61.74 39.76 61.06C41.36 60.38 42.74 59.44 43.9 58.24L50.26 64.6C48.22 66.48 45.88 67.96 43.24 69.04C40.64 70.12 37.62 70.66 34.18 70.66ZM67.5672 70.66C64.8872 70.66 62.5072 70.12 60.4272 69.04C58.3872 67.92 56.7872 66.4 55.6272 64.48C54.4672 62.52 53.8872 60.28 53.8872 57.76V40.84H63.0672V57.64C63.0672 58.64 63.2272 59.5 63.5472 60.22C63.9072 60.94 64.4272 61.5 65.1072 61.9C65.7872 62.3 66.6072 62.5 67.5672 62.5C68.9272 62.5 70.0072 62.08 70.8072 61.24C71.6072 60.36 72.0072 59.16 72.0072 57.64V40.84H81.1872V57.7C81.1872 60.26 80.6072 62.52 79.4472 64.48C78.2872 66.4 76.6872 67.92 74.6472 69.04C72.6072 70.12 70.2472 70.66 67.5672 70.66ZM97.5709 70.72C95.8509 70.72 94.1509 70.5 92.4709 70.06C90.8309 69.62 89.2909 69 87.8509 68.2C86.4509 67.36 85.2509 66.4 84.2509 65.32L89.4709 60.04C90.4309 61.08 91.5709 61.9 92.8909 62.5C94.2109 63.06 95.6509 63.34 97.2109 63.34C98.2909 63.34 99.1109 63.18 99.6709 62.86C100.271 62.54 100.571 62.1 100.571 61.54C100.571 60.82 100.211 60.28 99.4909 59.92C98.8109 59.52 97.9309 59.18 96.8509 58.9C95.7709 58.58 94.6309 58.24 93.4309 57.88C92.2309 57.52 91.0909 57.02 90.0109 56.38C88.9309 55.74 88.0509 54.86 87.3709 53.74C86.6909 52.58 86.3509 51.12 86.3509 49.36C86.3509 47.48 86.8309 45.86 87.7909 44.5C88.7509 43.1 90.1109 42 91.8709 41.2C93.6309 40.4 95.6909 40 98.0509 40C100.531 40 102.811 40.44 104.891 41.32C107.011 42.16 108.731 43.42 110.051 45.1L104.831 50.38C103.911 49.3 102.871 48.54 101.711 48.1C100.591 47.66 99.4909 47.44 98.4109 47.44C97.3709 47.44 96.5909 47.6 96.0709 47.92C95.5509 48.2 95.2909 48.62 95.2909 49.18C95.2909 49.78 95.6309 50.26 96.3109 50.62C96.9909 50.98 97.8709 51.3 98.9509 51.58C100.031 51.86 101.171 52.2 102.371 52.6C103.571 53 104.711 53.54 105.791 54.22C106.871 54.9 107.751 55.82 108.431 56.98C109.111 58.1 109.451 59.58 109.451 61.42C109.451 64.26 108.371 66.52 106.211 68.2C104.091 69.88 101.211 70.72 97.5709 70.72ZM118.571 70V28.78H127.751V70H118.571ZM111.971 48.64V40.84H134.351V48.64H111.971ZM151.85 70.66C148.85 70.66 146.13 70 143.69 68.68C141.29 67.32 139.39 65.48 137.99 63.16C136.59 60.84 135.89 58.24 135.89 55.36C135.89 52.48 136.59 49.9 137.99 47.62C139.39 45.34 141.29 43.54 143.69 42.22C146.09 40.86 148.81 40.18 151.85 40.18C154.89 40.18 157.61 40.84 160.01 42.16C162.41 43.48 164.31 45.3 165.71 47.62C167.11 49.9 167.81 52.48 167.81 55.36C167.81 58.24 167.11 60.84 165.71 63.16C164.31 65.48 162.41 67.32 160.01 68.68C157.61 70 154.89 70.66 151.85 70.66ZM151.85 62.32C153.17 62.32 154.33 62.04 155.33 61.48C156.33 60.88 157.09 60.06 157.61 59.02C158.17 57.94 158.45 56.72 158.45 55.36C158.45 54 158.17 52.82 157.61 51.82C157.05 50.78 156.27 49.98 155.27 49.42C154.31 48.82 153.17 48.52 151.85 48.52C150.57 48.52 149.43 48.82 148.43 49.42C147.43 49.98 146.65 50.78 146.09 51.82C145.53 52.86 145.25 54.06 145.25 55.42C145.25 56.74 145.53 57.94 146.09 59.02C146.65 60.06 147.43 60.88 148.43 61.48C149.43 62.04 150.57 62.32 151.85 62.32ZM172.381 70V40.84H181.561V70H172.381ZM191.041 70V52.96C191.041 51.48 190.581 50.34 189.661 49.54C188.781 48.7 187.681 48.28 186.361 48.28C185.441 48.28 184.621 48.48 183.901 48.88C183.181 49.24 182.601 49.76 182.161 50.44C181.761 51.12 181.561 51.96 181.561 52.96L178.021 51.4C178.021 49.08 178.521 47.1 179.521 45.46C180.521 43.78 181.881 42.5 183.601 41.62C185.321 40.7 187.261 40.24 189.421 40.24C191.461 40.24 193.281 40.7 194.881 41.62C196.521 42.54 197.821 43.82 198.781 45.46C199.741 47.1 200.221 49.06 200.221 51.34V70H191.041ZM209.701 70V52.96C209.701 51.48 209.241 50.34 208.321 49.54C207.441 48.7 206.341 48.28 205.021 48.28C204.101 48.28 203.281 48.48 202.561 48.88C201.841 49.24 201.261 49.76 200.821 50.44C200.421 51.12 200.221 51.96 200.221 52.96L194.941 52.24C195.021 49.76 195.601 47.64 196.681 45.88C197.801 44.08 199.261 42.7 201.061 41.74C202.901 40.74 204.961 40.24 207.241 40.24C209.481 40.24 211.461 40.72 213.181 41.68C214.941 42.6 216.321 43.94 217.321 45.7C218.361 47.42 218.881 49.5 218.881 51.94V70H209.701ZM239.163 70.66C236.003 70.66 233.183 70.02 230.703 68.74C228.263 67.42 226.343 65.6 224.943 63.28C223.543 60.96 222.843 58.34 222.843 55.42C222.843 52.5 223.523 49.9 224.883 47.62C226.283 45.3 228.163 43.48 230.523 42.16C232.883 40.84 235.543 40.18 238.503 40.18C241.383 40.18 243.923 40.8 246.123 42.04C248.323 43.28 250.043 45 251.283 47.2C252.563 49.4 253.203 51.92 253.203 54.76C253.203 55.28 253.163 55.84 253.083 56.44C253.043 57 252.943 57.66 252.783 58.42L227.643 58.48V52.18L248.883 52.12L244.923 54.76C244.883 53.08 244.623 51.7 244.143 50.62C243.663 49.5 242.943 48.66 241.983 48.1C241.063 47.5 239.923 47.2 238.563 47.2C237.123 47.2 235.863 47.54 234.783 48.22C233.743 48.86 232.923 49.78 232.323 50.98C231.763 52.18 231.483 53.64 231.483 55.36C231.483 57.08 231.783 58.56 232.383 59.8C233.023 61 233.903 61.94 235.023 62.62C236.183 63.26 237.543 63.58 239.103 63.58C240.543 63.58 241.843 63.34 243.003 62.86C244.163 62.34 245.183 61.58 246.063 60.58L251.103 65.62C249.663 67.3 247.923 68.56 245.883 69.4C243.843 70.24 241.603 70.66 239.163 70.66ZM257.635 70V40.84H266.815V70H257.635ZM266.815 53.98L262.975 50.98C263.735 47.58 265.015 44.94 266.815 43.06C268.615 41.18 271.115 40.24 274.315 40.24C275.715 40.24 276.935 40.46 277.975 40.9C279.055 41.3 279.995 41.94 280.795 42.82L275.335 49.72C274.935 49.28 274.435 48.94 273.835 48.7C273.235 48.46 272.555 48.34 271.795 48.34C270.275 48.34 269.055 48.82 268.135 49.78C267.255 50.7 266.815 52.1 266.815 53.98ZM303.76 52.54V45.58H312.7C314.58 45.58 316.02 45.1 317.02 44.14C318.06 43.18 318.58 41.88 318.58 40.24C318.58 38.72 318.08 37.46 317.08 36.46C316.08 35.46 314.64 34.96 312.76 34.96H303.76V27.64H313.84C316.64 27.64 319.1 28.18 321.22 29.26C323.34 30.3 325 31.76 326.2 33.64C327.4 35.52 328 37.68 328 40.12C328 42.6 327.4 44.78 326.2 46.66C325 48.5 323.32 49.94 321.16 50.98C319 52.02 316.46 52.54 313.54 52.54H303.76ZM296.56 70V27.64H305.98V70H296.56ZM319.6 70L306.4 51.76L315.04 49.42L330.76 70H319.6ZM347.679 70.66C344.519 70.66 341.699 70.02 339.219 68.74C336.779 67.42 334.859 65.6 333.459 63.28C332.059 60.96 331.359 58.34 331.359 55.42C331.359 52.5 332.039 49.9 333.399 47.62C334.799 45.3 336.679 43.48 339.039 42.16C341.399 40.84 344.059 40.18 347.019 40.18C349.899 40.18 352.439 40.8 354.639 42.04C356.839 43.28 358.559 45 359.799 47.2C361.079 49.4 361.719 51.92 361.719 54.76C361.719 55.28 361.679 55.84 361.599 56.44C361.559 57 361.459 57.66 361.299 58.42L336.159 58.48V52.18L357.399 52.12L353.439 54.76C353.399 53.08 353.139 51.7 352.659 50.62C352.179 49.5 351.459 48.66 350.499 48.1C349.579 47.5 348.439 47.2 347.079 47.2C345.639 47.2 344.379 47.54 343.299 48.22C342.259 48.86 341.439 49.78 340.839 50.98C340.279 52.18 339.999 53.64 339.999 55.36C339.999 57.08 340.299 58.56 340.899 59.8C341.539 61 342.419 61.94 343.539 62.62C344.699 63.26 346.059 63.58 347.619 63.58C349.059 63.58 350.359 63.34 351.519 62.86C352.679 62.34 353.699 61.58 354.579 60.58L359.619 65.62C358.179 67.3 356.439 68.56 354.399 69.4C352.359 70.24 350.119 70.66 347.679 70.66ZM374.861 70L362.501 40.84H372.401L380.801 65.14H376.481L384.881 40.84H394.601L382.241 69.94L374.861 70ZM397.908 70V40.84H407.088V70H397.908ZM402.528 36.82C401.088 36.82 399.888 36.34 398.928 35.38C398.008 34.38 397.548 33.18 397.548 31.78C397.548 30.34 398.008 29.14 398.928 28.18C399.888 27.22 401.088 26.74 402.528 26.74C403.968 26.74 405.148 27.22 406.068 28.18C406.988 29.14 407.448 30.34 407.448 31.78C407.448 33.18 406.988 34.38 406.068 35.38C405.148 36.34 403.968 36.82 402.528 36.82ZM427.952 70.66C424.793 70.66 421.973 70.02 419.493 68.74C417.053 67.42 415.133 65.6 413.733 63.28C412.333 60.96 411.633 58.34 411.633 55.42C411.633 52.5 412.313 49.9 413.673 47.62C415.073 45.3 416.953 43.48 419.313 42.16C421.673 40.84 424.333 40.18 427.293 40.18C430.173 40.18 432.713 40.8 434.913 42.04C437.113 43.28 438.833 45 440.073 47.2C441.353 49.4 441.992 51.92 441.992 54.76C441.992 55.28 441.953 55.84 441.873 56.44C441.833 57 441.733 57.66 441.573 58.42L416.433 58.48V52.18L437.673 52.12L433.713 54.76C433.673 53.08 433.413 51.7 432.933 50.62C432.453 49.5 431.733 48.66 430.773 48.1C429.853 47.5 428.713 47.2 427.353 47.2C425.913 47.2 424.653 47.54 423.573 48.22C422.533 48.86 421.713 49.78 421.113 50.98C420.553 52.18 420.273 53.64 420.273 55.36C420.273 57.08 420.573 58.56 421.173 59.8C421.813 61 422.693 61.94 423.813 62.62C424.973 63.26 426.333 63.58 427.893 63.58C429.333 63.58 430.633 63.34 431.793 62.86C432.953 62.34 433.973 61.58 434.853 60.58L439.893 65.62C438.453 67.3 436.713 68.56 434.673 69.4C432.633 70.24 430.393 70.66 427.952 70.66ZM453.212 70L443.132 40.84H452.132L458.372 62.02L455.732 62.08L462.632 40.84H470.072L477.032 62.08L474.332 62.02L480.632 40.84H489.632L479.552 70H472.052L465.272 49.84H467.552L460.652 70H453.212ZM503.098 70.72C501.378 70.72 499.678 70.5 497.998 70.06C496.358 69.62 494.818 69 493.378 68.2C491.978 67.36 490.778 66.4 489.778 65.32L494.998 60.04C495.958 61.08 497.098 61.9 498.418 62.5C499.738 63.06 501.178 63.34 502.738 63.34C503.818 63.34 504.638 63.18 505.198 62.86C505.798 62.54 506.098 62.1 506.098 61.54C506.098 60.82 505.738 60.28 505.018 59.92C504.338 59.52 503.458 59.18 502.378 58.9C501.298 58.58 500.158 58.24 498.958 57.88C497.758 57.52 496.618 57.02 495.538 56.38C494.458 55.74 493.578 54.86 492.898 53.74C492.218 52.58 491.878 51.12 491.878 49.36C491.878 47.48 492.358 45.86 493.318 44.5C494.278 43.1 495.638 42 497.398 41.2C499.158 40.4 501.218 40 503.578 40C506.058 40 508.338 40.44 510.418 41.32C512.538 42.16 514.258 43.42 515.578 45.1L510.358 50.38C509.438 49.3 508.398 48.54 507.238 48.1C506.118 47.66 505.018 47.44 503.938 47.44C502.898 47.44 502.118 47.6 501.598 47.92C501.078 48.2 500.818 48.62 500.818 49.18C500.818 49.78 501.158 50.26 501.838 50.62C502.518 50.98 503.398 51.3 504.478 51.58C505.558 51.86 506.698 52.2 507.898 52.6C509.098 53 510.238 53.54 511.318 54.22C512.398 54.9 513.278 55.82 513.958 56.98C514.638 58.1 514.978 59.58 514.978 61.42C514.978 64.26 513.898 66.52 511.738 68.2C509.618 69.88 506.738 70.72 503.098 70.72Z" fill="black"/>
</svg>
