<svg width="415" height="48" viewBox="0 0 415 48" fill="none" xmlns="http://www.w3.org/2000/svg">
<path d="M0.399902 37V1.69995H8.2499V37H0.399902ZM6.4499 37V30.1H23.8999V37H6.4499Z" fill="#2CCBBB"/>
<path d="M27.7272 37V12.7H35.3772V37H27.7272ZM31.5772 9.34995C30.3772 9.34995 29.3772 8.94995 28.5772 8.14995C27.8106 7.31662 27.4272 6.31662 27.4272 5.14995C27.4272 3.94995 27.8106 2.94995 28.5772 2.14995C29.3772 1.34995 30.3772 0.949951 31.5772 0.949951C32.7772 0.949951 33.7606 1.34995 34.5272 2.14995C35.2939 2.94995 35.6772 3.94995 35.6772 5.14995C35.6772 6.31662 35.2939 7.31662 34.5272 8.14995C33.7606 8.94995 32.7772 9.34995 31.5772 9.34995Z" fill="#2CCBBB"/>
<path d="M49.6144 37.6C48.181 37.6 46.7644 37.4166 45.3644 37.05C43.9977 36.6833 42.7144 36.1666 41.5144 35.5C40.3477 34.7999 39.3477 34 38.5144 33.1L42.8644 28.7C43.6644 29.5666 44.6144 30.25 45.7144 30.75C46.8144 31.2166 48.0144 31.45 49.3144 31.45C50.2144 31.45 50.8977 31.3166 51.3644 31.05C51.8644 30.7833 52.1144 30.4166 52.1144 29.95C52.1144 29.35 51.8144 28.9 51.2144 28.6C50.6477 28.2666 49.9144 27.9833 49.0144 27.75C48.1144 27.4833 47.1644 27.2 46.1644 26.9C45.1644 26.6 44.2144 26.1833 43.3144 25.65C42.4144 25.1166 41.681 24.3833 41.1144 23.45C40.5477 22.4833 40.2644 21.2666 40.2644 19.8C40.2644 18.2333 40.6644 16.8833 41.4644 15.75C42.2644 14.5833 43.3977 13.6666 44.8644 13C46.331 12.3333 48.0477 12 50.0144 12C52.081 12 53.981 12.3666 55.7144 13.1C57.481 13.8 58.9144 14.85 60.0144 16.25L55.6644 20.65C54.8977 19.75 54.031 19.1166 53.0644 18.75C52.131 18.3833 51.2144 18.2 50.3144 18.2C49.4477 18.2 48.7977 18.3333 48.3644 18.6C47.931 18.8333 47.7144 19.1833 47.7144 19.65C47.7144 20.15 47.9977 20.55 48.5644 20.85C49.131 21.15 49.8644 21.4166 50.7644 21.65C51.6644 21.8833 52.6144 22.1666 53.6144 22.5C54.6144 22.8333 55.5644 23.2833 56.4644 23.85C57.3644 24.4166 58.0977 25.1833 58.6644 26.15C59.231 27.0833 59.5144 28.3166 59.5144 29.85C59.5144 32.2166 58.6144 34.0999 56.8144 35.5C55.0477 36.9 52.6477 37.6 49.6144 37.6Z" fill="#2CCBBB"/>
<path d="M67.1147 37V2.64995H74.7647V37H67.1147ZM61.6147 19.2V12.7H80.2647V19.2H61.6147Z" fill="#2CCBBB"/>
<path d="M83.6355 37V12.7H91.2854V37H83.6355ZM87.4855 9.34995C86.2855 9.34995 85.2855 8.94995 84.4855 8.14995C83.7188 7.31662 83.3354 6.31662 83.3354 5.14995C83.3354 3.94995 83.7188 2.94995 84.4855 2.14995C85.2855 1.34995 86.2855 0.949951 87.4855 0.949951C88.6854 0.949951 89.6688 1.34995 90.4354 2.14995C91.2021 2.94995 91.5854 3.94995 91.5854 5.14995C91.5854 6.31662 91.2021 7.31662 90.4354 8.14995C89.6688 8.94995 88.6854 9.34995 87.4855 9.34995Z" fill="#2CCBBB"/>
<path d="M112.723 37V23.15C112.723 21.8833 112.323 20.8666 111.523 20.1C110.756 19.3 109.773 18.9 108.573 18.9C107.739 18.9 107.006 19.0833 106.373 19.45C105.739 19.7833 105.239 20.2833 104.873 20.95C104.506 21.5833 104.323 22.3166 104.323 23.15L101.373 21.7C101.373 19.8 101.789 18.1333 102.623 16.7C103.456 15.2666 104.606 14.1666 106.073 13.4C107.573 12.6 109.256 12.2 111.123 12.2C112.923 12.2 114.506 12.6333 115.873 13.5C117.273 14.3333 118.373 15.45 119.173 16.85C119.973 18.25 120.373 19.7833 120.373 21.45V37H112.723ZM96.6726 37V12.7H104.323V37H96.6726Z" fill="#2CCBBB"/>
<path d="M135.586 47.9C132.919 47.9 130.569 47.4333 128.536 46.5C126.536 45.6 124.953 44.3166 123.786 42.65L128.486 37.95C129.353 38.9833 130.319 39.7666 131.386 40.3C132.486 40.8333 133.803 41.1 135.336 41.1C137.236 41.1 138.719 40.6333 139.786 39.7C140.886 38.7666 141.436 37.45 141.436 35.75V29.55L142.736 24.25L141.586 18.95V12.7H149.086V35.55C149.086 38.05 148.503 40.2166 147.336 42.05C146.169 43.8833 144.569 45.3166 142.536 46.35C140.503 47.3833 138.186 47.9 135.586 47.9ZM135.236 36.25C133.003 36.25 131.019 35.7166 129.286 34.65C127.553 33.5833 126.186 32.1333 125.186 30.3C124.186 28.4666 123.686 26.4333 123.686 24.2C123.686 21.9333 124.186 19.9 125.186 18.1C126.186 16.2666 127.553 14.8333 129.286 13.8C131.019 12.7333 133.003 12.2 135.236 12.2C136.903 12.2 138.386 12.5166 139.686 13.15C141.019 13.75 142.086 14.6166 142.886 15.75C143.719 16.85 144.186 18.1333 144.286 19.6V28.85C144.186 30.2833 143.719 31.5666 142.886 32.7C142.086 33.7999 141.019 34.6666 139.686 35.3C138.353 35.9333 136.869 36.25 135.236 36.25ZM136.686 29.45C137.753 29.45 138.669 29.2166 139.436 28.75C140.236 28.2833 140.836 27.6666 141.236 26.9C141.669 26.1 141.886 25.2 141.886 24.2C141.886 23.2 141.669 22.3 141.236 21.5C140.836 20.7 140.236 20.0666 139.436 19.6C138.669 19.1333 137.753 18.9 136.686 18.9C135.652 18.9 134.736 19.1333 133.936 19.6C133.136 20.0666 132.519 20.7 132.086 21.5C131.653 22.3 131.436 23.2 131.436 24.2C131.436 25.1333 131.653 26.0166 132.086 26.85C132.519 27.65 133.119 28.2833 133.886 28.75C134.686 29.2166 135.619 29.45 136.686 29.45Z" fill="#2CCBBB"/>
<path d="M164.707 37V1.69995H172.557V37H164.707Z" fill="#2CCBBB"/>
<path d="M182.105 37V2.64995H189.755V37H182.105ZM176.605 19.2V12.7H195.255V19.2H176.605Z" fill="#2CCBBB"/>
<path d="M210.137 37.55C207.504 37.55 205.154 37.0166 203.087 35.95C201.054 34.85 199.454 33.3333 198.287 31.4C197.121 29.4666 196.537 27.2833 196.537 24.85C196.537 22.4166 197.104 20.25 198.237 18.35C199.404 16.4166 200.971 14.9 202.937 13.8C204.904 12.7 207.121 12.15 209.587 12.15C211.987 12.15 214.104 12.6666 215.937 13.7C217.771 14.7333 219.204 16.1666 220.237 18C221.304 19.8333 221.837 21.9333 221.837 24.3C221.837 24.7333 221.804 25.2 221.737 25.7C221.704 26.1666 221.621 26.7166 221.487 27.35L200.537 27.4V22.15L218.237 22.1L214.937 24.3C214.904 22.9 214.687 21.75 214.287 20.85C213.887 19.9166 213.287 19.2166 212.487 18.75C211.721 18.25 210.771 18 209.637 18C208.437 18 207.387 18.2833 206.487 18.85C205.621 19.3833 204.937 20.15 204.437 21.15C203.971 22.15 203.737 23.3666 203.737 24.8C203.737 26.2333 203.987 27.4666 204.487 28.5C205.021 29.5 205.754 30.2833 206.687 30.85C207.654 31.3833 208.787 31.65 210.087 31.65C211.287 31.65 212.371 31.45 213.337 31.05C214.304 30.6166 215.154 29.9833 215.887 29.15L220.087 33.35C218.887 34.75 217.437 35.7999 215.737 36.5C214.037 37.2 212.171 37.55 210.137 37.55Z" fill="#2CCBBB"/>
<path d="M225.53 37V12.7H233.18V37H225.53ZM241.08 37V22.8C241.08 21.5666 240.697 20.6166 239.93 19.95C239.197 19.25 238.28 18.9 237.18 18.9C236.413 18.9 235.73 19.0666 235.13 19.4C234.53 19.6999 234.047 20.1333 233.68 20.7C233.347 21.2666 233.18 21.9666 233.18 22.8L230.23 21.5C230.23 19.5666 230.647 17.9166 231.48 16.55C232.313 15.15 233.447 14.0833 234.88 13.35C236.313 12.5833 237.93 12.2 239.73 12.2C241.43 12.2 242.947 12.5833 244.28 13.35C245.647 14.1166 246.73 15.1833 247.53 16.55C248.33 17.9166 248.73 19.55 248.73 21.45V37H241.08ZM256.63 37V22.8C256.63 21.5666 256.247 20.6166 255.48 19.95C254.747 19.25 253.83 18.9 252.73 18.9C251.963 18.9 251.28 19.0666 250.68 19.4C250.08 19.6999 249.597 20.1333 249.23 20.7C248.897 21.2666 248.73 21.9666 248.73 22.8L244.33 22.2C244.397 20.1333 244.88 18.3666 245.78 16.9C246.713 15.4 247.93 14.25 249.43 13.45C250.963 12.6166 252.68 12.2 254.58 12.2C256.447 12.2 258.097 12.6 259.53 13.4C260.997 14.1666 262.147 15.2833 262.98 16.75C263.847 18.1833 264.28 19.9166 264.28 21.95V37H256.63Z" fill="#2CCBBB"/>
<path d="M278.032 37.6C276.599 37.6 275.182 37.4166 273.782 37.05C272.416 36.6833 271.132 36.1666 269.932 35.5C268.766 34.7999 267.766 34 266.932 33.1L271.282 28.7C272.082 29.5666 273.032 30.25 274.132 30.75C275.232 31.2166 276.432 31.45 277.732 31.45C278.632 31.45 279.316 31.3166 279.782 31.05C280.282 30.7833 280.532 30.4166 280.532 29.95C280.532 29.35 280.232 28.9 279.632 28.6C279.066 28.2666 278.332 27.9833 277.432 27.75C276.532 27.4833 275.582 27.2 274.582 26.9C273.582 26.6 272.632 26.1833 271.732 25.65C270.832 25.1166 270.099 24.3833 269.532 23.45C268.966 22.4833 268.682 21.2666 268.682 19.8C268.682 18.2333 269.082 16.8833 269.882 15.75C270.682 14.5833 271.816 13.6666 273.282 13C274.749 12.3333 276.466 12 278.432 12C280.499 12 282.399 12.3666 284.132 13.1C285.899 13.8 287.332 14.85 288.432 16.25L284.082 20.65C283.316 19.75 282.449 19.1166 281.482 18.75C280.549 18.3833 279.632 18.2 278.732 18.2C277.866 18.2 277.216 18.3333 276.782 18.6C276.349 18.8333 276.132 19.1833 276.132 19.65C276.132 20.15 276.416 20.55 276.982 20.85C277.549 21.15 278.282 21.4166 279.182 21.65C280.082 21.8833 281.032 22.1666 282.032 22.5C283.032 22.8333 283.982 23.2833 284.882 23.85C285.782 24.4166 286.516 25.1833 287.082 26.15C287.649 27.0833 287.932 28.3166 287.932 29.85C287.932 32.2166 287.032 34.0999 285.232 35.5C283.466 36.9 281.066 37.6 278.032 37.6Z" fill="#2CCBBB"/>
<path d="M308.304 24.15V18.05H315.904C316.871 18.05 317.754 17.85 318.554 17.45C319.354 17.05 319.988 16.4666 320.454 15.7C320.921 14.9333 321.154 14 321.154 12.9C321.154 11.8333 320.921 10.9166 320.454 10.15C319.988 9.38329 319.354 8.79995 318.554 8.39995C317.754 7.99995 316.871 7.79995 315.904 7.79995H308.304V1.69995H317.054C319.288 1.69995 321.304 2.14995 323.104 3.04995C324.904 3.94995 326.321 5.24995 327.354 6.94995C328.421 8.61662 328.954 10.6 328.954 12.9C328.954 15.2 328.421 17.2 327.354 18.9C326.321 20.5666 324.904 21.8666 323.104 22.8C321.304 23.7 319.288 24.15 317.054 24.15H308.304ZM302.304 37V1.69995H310.154V37H302.304Z" fill="#2CCBBB"/>
<path d="M342.125 37.5C339.892 37.5 337.892 36.95 336.125 35.85C334.392 34.75 333.009 33.25 331.975 31.35C330.975 29.45 330.475 27.2833 330.475 24.85C330.475 22.4166 330.975 20.25 331.975 18.35C333.009 16.45 334.392 14.95 336.125 13.85C337.892 12.75 339.892 12.2 342.125 12.2C343.759 12.2 345.225 12.5166 346.525 13.15C347.859 13.7833 348.942 14.6666 349.775 15.8C350.609 16.9 351.075 18.1666 351.175 19.6V30.1C351.075 31.5333 350.609 32.8166 349.775 33.95C348.975 35.0499 347.909 35.9166 346.575 36.55C345.242 37.1833 343.759 37.5 342.125 37.5ZM343.675 30.6C345.309 30.6 346.625 30.0666 347.625 29C348.625 27.9 349.125 26.5166 349.125 24.85C349.125 23.7166 348.892 22.7166 348.425 21.85C347.992 20.9833 347.359 20.3166 346.525 19.85C345.725 19.35 344.792 19.1 343.725 19.1C342.659 19.1 341.709 19.35 340.875 19.85C340.075 20.3166 339.425 20.9833 338.925 21.85C338.459 22.7166 338.225 23.7166 338.225 24.85C338.225 25.95 338.459 26.9333 338.925 27.8C339.392 28.6666 340.042 29.35 340.875 29.85C341.709 30.35 342.642 30.6 343.675 30.6ZM348.825 37V30.45L349.975 24.55L348.825 18.65V12.7H356.325V37H348.825Z" fill="#2CCBBB"/>
<path d="M372.012 47.9C369.345 47.9 366.995 47.4333 364.962 46.5C362.962 45.6 361.378 44.3166 360.212 42.65L364.912 37.95C365.778 38.9833 366.745 39.7666 367.812 40.3C368.912 40.8333 370.228 41.1 371.762 41.1C373.662 41.1 375.145 40.6333 376.212 39.7C377.312 38.7666 377.862 37.45 377.862 35.75V29.55L379.162 24.25L378.012 18.95V12.7H385.512V35.55C385.512 38.05 384.928 40.2166 383.762 42.05C382.595 43.8833 380.995 45.3166 378.962 46.35C376.928 47.3833 374.612 47.9 372.012 47.9ZM371.662 36.25C369.428 36.25 367.445 35.7166 365.712 34.65C363.978 33.5833 362.612 32.1333 361.612 30.3C360.612 28.4666 360.112 26.4333 360.112 24.2C360.112 21.9333 360.612 19.9 361.612 18.1C362.612 16.2666 363.978 14.8333 365.712 13.8C367.445 12.7333 369.428 12.2 371.662 12.2C373.328 12.2 374.812 12.5166 376.112 13.15C377.445 13.75 378.512 14.6166 379.312 15.75C380.145 16.85 380.612 18.1333 380.712 19.6V28.85C380.612 30.2833 380.145 31.5666 379.312 32.7C378.512 33.7999 377.445 34.6666 376.112 35.3C374.778 35.9333 373.295 36.25 371.662 36.25ZM373.112 29.45C374.178 29.45 375.095 29.2166 375.862 28.75C376.662 28.2833 377.262 27.6666 377.662 26.9C378.095 26.1 378.312 25.2 378.312 24.2C378.312 23.2 378.095 22.3 377.662 21.5C377.262 20.7 376.662 20.0666 375.862 19.6C375.095 19.1333 374.178 18.9 373.112 18.9C372.078 18.9 371.162 19.1333 370.362 19.6C369.562 20.0666 368.945 20.7 368.512 21.5C368.078 22.3 367.862 23.2 367.862 24.2C367.862 25.1333 368.078 26.0166 368.512 26.85C368.945 27.65 369.545 28.2833 370.312 28.75C371.112 29.2166 372.045 29.45 373.112 29.45Z" fill="#2CCBBB"/>
<path d="M402.911 37.55C400.277 37.55 397.928 37.0166 395.861 35.95C393.828 34.85 392.228 33.3333 391.061 31.4C389.894 29.4666 389.311 27.2833 389.311 24.85C389.311 22.4166 389.878 20.25 391.011 18.35C392.177 16.4166 393.744 14.9 395.711 13.8C397.678 12.7 399.894 12.15 402.361 12.15C404.761 12.15 406.878 12.6666 408.711 13.7C410.544 14.7333 411.978 16.1666 413.011 18C414.078 19.8333 414.611 21.9333 414.611 24.3C414.611 24.7333 414.578 25.2 414.511 25.7C414.478 26.1666 414.394 26.7166 414.261 27.35L393.311 27.4V22.15L411.011 22.1L407.711 24.3C407.678 22.9 407.461 21.75 407.061 20.85C406.661 19.9166 406.061 19.2166 405.261 18.75C404.494 18.25 403.544 18 402.411 18C401.211 18 400.161 18.2833 399.261 18.85C398.394 19.3833 397.711 20.15 397.211 21.15C396.744 22.15 396.511 23.3666 396.511 24.8C396.511 26.2333 396.761 27.4666 397.261 28.5C397.794 29.5 398.528 30.2833 399.461 30.85C400.428 31.3833 401.561 31.65 402.861 31.65C404.061 31.65 405.144 31.45 406.111 31.05C407.078 30.6166 407.927 29.9833 408.661 29.15L412.861 33.35C411.661 34.75 410.211 35.7999 408.511 36.5C406.811 37.2 404.944 37.55 402.911 37.55Z" fill="#2CCBBB"/>
</svg>
