<svg width="473" height="358" viewBox="0 0 473 358" fill="none" xmlns="http://www.w3.org/2000/svg">
<g clip-path="url(#clip0_378_70)">
<path d="M283.21 243.5C320.568 243.664 350.863 241.36 350.876 238.354C350.889 235.348 320.615 232.779 283.258 232.615C245.9 232.452 215.606 234.756 215.592 237.762C215.579 240.767 245.853 243.337 283.21 243.5Z" fill="#F0F0F0"/>
<path d="M73.7791 355.32C86.2316 355.374 96.3371 352.982 96.3502 349.976C96.3634 346.97 86.2793 344.489 73.8268 344.435C61.3743 344.38 51.2689 346.773 51.2557 349.779C51.2426 352.784 61.3266 355.265 73.7791 355.32Z" fill="#F0F0F0"/>
<path d="M294.466 9.1305L294.188 13.0998L343.501 21.1143L343.779 17.145L294.466 9.1305Z" fill="#E6E6E6"/>
<path d="M280.799 16.0469C283.437 16.0584 285.59 12.7494 285.608 8.65599C285.626 4.56258 283.501 1.23485 280.863 1.2233C278.225 1.21175 276.072 4.52076 276.054 8.61417C276.037 12.7076 278.161 16.0353 280.799 16.0469Z" fill="#E6E6E6"/>
<path d="M294.37 30.8998L294.092 34.8691L343.406 42.8837L343.684 38.9144L294.37 30.8998Z" fill="#E4E4E4"/>
<path d="M280.703 37.8162C283.341 37.8277 285.494 34.5187 285.512 30.4253C285.53 26.3319 283.406 23.0042 280.768 22.9927C278.13 22.9811 275.977 26.2901 275.959 30.3835C275.941 34.4769 278.065 37.8046 280.703 37.8162Z" fill="#E4E4E4"/>
<path d="M294.275 52.6692L293.997 56.6385L343.31 64.653L343.588 60.6837L294.275 52.6692Z" fill="#731E0B"/>
<path d="M280.608 59.5855C283.246 59.5971 285.399 56.2881 285.417 52.1947C285.435 48.1013 283.311 44.7735 280.673 44.762C278.035 44.7505 275.882 48.0595 275.864 52.1529C275.846 56.2463 277.97 59.574 280.608 59.5855Z" fill="#731E0B"/>
<path d="M10.9691 129.749L38.3289 97.8148L37.8337 160.224L12.0277 192.961L10.9691 129.749Z" fill="#E4E4E4"/>
<path d="M130.228 13.5824L183.259 2.20269L183.741 73.8079L130.371 87.2729L130.228 13.5824Z" fill="#731E0B"/>
<path d="M437.001 136.794L436.724 200.083L462.894 239.482L464.405 175.331L437.001 136.794Z" fill="#731E0B"/>
<path d="M437.407 79.9504L437.366 89.2879L455.618 112.506L456.515 104.502L437.407 79.9504Z" fill="#731E0B"/>
<path d="M437.628 95.9678L437.296 105.312L471.772 156.178L471.247 145.501L437.628 95.9678Z" fill="#E6E6E6"/>
<path d="M437.261 113.32L437.222 122.214L471.694 173.983L471.744 162.414L437.261 113.32Z" fill="#E6E6E6"/>
<path d="M75.1341 343.375L72.3849 343.363L71.1487 326.9L75.2067 326.918L75.1341 343.375Z" fill="#9E616A"/>
<path d="M75.8172 347.514L66.9514 347.474L66.9521 347.3C66.9584 345.88 67.328 344.52 67.9795 343.518C68.6311 342.517 69.5112 341.957 70.4264 341.961L75.8416 341.985L75.8172 347.514Z" fill="#2F2E41"/>
<path d="M84.9031 339.187L82.3541 340.803L77.1623 326.344L80.9237 323.958L84.9031 339.187Z" fill="#9E616A"/>
<path d="M86.5531 342.602L78.3348 347.815L78.2927 347.654C77.9494 346.339 77.957 344.865 78.3141 343.555C78.6711 342.246 79.3483 341.208 80.1966 340.669L85.2162 337.486L86.5531 342.602Z" fill="#2F2E41"/>
<path d="M77.4872 219.622C77.4872 219.622 87.6568 227.169 80.7274 261.505L80.0926 288.691L76.4925 338.658L70.9934 338.091L68.7709 289.964L60.8349 250.186L62.5283 230.998L77.4872 219.622Z" fill="#2F2E41"/>
<path d="M61.8443 236.067L62.7831 211.118C57.2055 196.392 63.025 188.018 63.4977 187.376L68.7188 175.684L73.2503 173.777C74.1403 173.403 75.0733 173.353 75.976 173.632C76.8787 173.912 77.7266 174.512 78.4532 175.386C79.1797 176.26 79.7651 177.385 80.1634 178.671C80.5617 179.957 80.762 181.371 80.7486 182.8L80.3668 223.684L61.8443 236.067Z" fill="#731E0B"/>
<path d="M71.8961 297.245L77.4214 333.859L83.9545 329.779L75.2705 296.622L71.8961 297.245Z" fill="#2F2E41"/>
<path d="M63.4384 249.017C63.8246 248.765 64.171 248.386 64.453 247.905C64.7351 247.424 64.946 246.853 65.0708 246.233C65.1957 245.613 65.2316 244.958 65.1758 244.315C65.1201 243.672 64.9741 243.057 64.7482 242.512L70.5682 229.87L65.7675 229.422L60.6069 241.335C60.0407 241.988 59.6477 242.94 59.5025 244.01C59.3572 245.08 59.4697 246.194 59.8188 247.141C60.1678 248.088 60.729 248.802 61.3961 249.147C62.0632 249.493 62.7899 249.447 63.4384 249.017Z" fill="#9E616A"/>
<path d="M65.7063 187.909L68.1059 215.509L60.8959 236.28L66.8275 242.092L77.1936 218.594L73.0421 185.218L65.7063 187.909Z" fill="#731E0B"/>
<path d="M71.0155 169.186C75.2162 169.204 78.6446 163.935 78.6731 157.417C78.7017 150.899 75.3195 145.6 71.1189 145.582C66.9182 145.563 63.4898 150.833 63.4613 157.351C63.4327 163.869 66.8149 169.168 71.0155 169.186Z" fill="#9E616A"/>
<path d="M82.3427 201.443C82.6558 194.842 84.4643 188.666 85.9277 182.441C87.391 176.216 88.5356 169.439 87.4779 163.035C86.8576 159.734 85.8734 156.627 84.5689 153.851C82.2164 148.494 79.2092 143.509 75.2938 141.238C71.3784 138.968 66.4269 140.07 63.8222 145.169C62.867 146.963 62.3471 149.219 62.3533 151.541C62.3661 152.695 62.5597 153.825 62.9172 154.835C63.2748 155.844 63.7855 156.703 64.4055 157.336C65.1197 158.012 65.9709 158.332 66.6201 159.151C67.2692 159.97 67.6192 161.63 67.0214 162.546L67.2576 162.728C69.3818 163.448 70.5522 167.195 70.5193 170.571C70.4864 173.948 69.5875 177.141 69.0255 180.406C68.4634 183.671 68.2867 187.419 69.5395 190.172C70.7849 192.909 73.21 194.121 74.1144 197.165C75.3483 201.319 73.0581 206.059 73.3105 210.621C73.5529 215.002 76.1836 218.32 78.9477 219.276C81.7118 220.233 84.5909 219.352 87.3701 218.472C83.607 215.381 82.0296 208.044 82.3427 201.443Z" fill="#2F2E41"/>
<path d="M258.775 141.644L259.231 122.471L257.659 104.631L255.19 104.88L253.031 123.634L255.263 143.762C254.812 144.712 254.571 145.861 254.576 147.038C254.581 148.215 254.832 149.357 255.292 150.291C255.751 151.225 256.394 151.901 257.124 152.218C257.854 152.535 258.631 152.475 259.34 152.048C260.048 151.621 260.648 150.849 261.051 149.849C261.454 148.849 261.637 147.675 261.574 146.502C261.51 145.33 261.203 144.222 260.699 143.346C260.194 142.47 259.519 141.873 258.775 141.644Z" fill="#9E616A"/>
<path d="M258.266 186.634L251.149 232.053L256.359 232.65L266.543 188.706L258.266 186.634Z" fill="#9E616A"/>
<path d="M270.612 183.701L279.966 228.03L284.609 224.277L277.477 179.721L270.612 183.701Z" fill="#9E616A"/>
<path d="M258.087 145.501C258.087 145.501 254.747 151.175 260.419 162.118L252.738 222.374L258.236 225.508L268.434 185.123L277.3 220.149L284.335 215.515L274.986 162.182L276.11 148.615L273.477 144.805L258.087 145.501Z" fill="#E4E4E4"/>
<path d="M265.24 84.1569C265.24 84.1569 255.181 90.2115 256.142 99.5456L258.449 136.437L255.855 149.215C255.855 149.215 272.764 153.508 275.88 148.735L276.648 108.188L277.827 92.1649L272.48 88.7757L271.156 85.6911L265.24 84.1569Z" fill="#3F3D56"/>
<path d="M257.702 94.9273L253.987 107.694L259.412 110.986L257.702 94.9273Z" fill="#3F3D56"/>
<path d="M284.898 147.067L280.646 110.504L273.632 109.563L275.53 127.917L280.218 148.695C279.819 149.598 279.604 150.665 279.601 151.758C279.597 152.85 279.806 153.917 280.199 154.821C280.592 155.725 281.152 156.423 281.806 156.825C282.459 157.227 283.176 157.314 283.864 157.075C284.552 156.836 285.178 156.281 285.661 155.484C286.144 154.687 286.462 153.683 286.574 152.604C286.686 151.524 286.585 150.419 286.287 149.432C285.988 148.444 285.504 147.621 284.898 147.067Z" fill="#9E616A"/>
<path d="M269.826 96.5965L273.796 114.447L281.638 112.875C281.638 112.875 283.427 96.3762 277.827 92.1649L269.826 96.5965Z" fill="#3F3D56"/>
<path d="M275.437 70.598C275.166 85.863 260.023 83.1898 262.097 68.2006C263.695 56.2722 275.696 58.4461 275.437 70.598Z" fill="#9E616A"/>
<path d="M271.805 56.5406C267.049 57.7765 259.704 54.7886 259.798 66.3314C259.305 67.4596 258.764 68.6955 259.104 70.1145C260.766 73.2931 261.621 78.2082 263.798 80.4453C265.748 80.4314 268.292 80.8649 269.611 78.2311C270.176 76.069 269.205 73.4261 270.052 71.3985C271.153 70.8593 272.216 73.0464 272.659 69.9401C272.602 69.1854 272.677 68.42 272.877 67.7245C273.077 67.029 273.393 66.4292 273.793 65.9881C275.527 62.9386 274.379 57.3002 271.805 56.5406Z" fill="#3F3D56"/>
<path d="M249.804 230.914L257.997 230.95C259.381 230.956 260.706 231.815 261.678 233.339C262.651 234.862 263.192 236.925 263.182 239.074L263.181 239.337L249.768 239.279L249.804 230.914Z" fill="#2F2E41"/>
<path d="M277.97 225.55L285.991 222.906C287.346 222.459 288.759 222.865 289.917 224.035C291.076 225.205 291.885 227.043 292.168 229.145L292.202 229.402L279.071 233.732L277.97 225.55Z" fill="#2F2E41"/>
<path d="M311.968 234.34L314.615 234.351L315.944 218.515L312.037 218.498L311.968 234.34Z" fill="#FFB6B6"/>
<path d="M311.299 232.996L316.511 233.018C317.392 233.022 318.235 233.569 318.854 234.538C319.473 235.508 319.817 236.82 319.811 238.187L319.81 238.355L311.276 238.318L311.299 232.996Z" fill="#2F2E41"/>
<path d="M298.44 234.281L301.087 234.292L302.415 218.456L298.509 218.439L298.44 234.281Z" fill="#FFB6B6"/>
<path d="M297.771 232.937L302.983 232.959C303.864 232.963 304.707 233.51 305.325 234.479C305.944 235.449 306.288 236.761 306.283 238.128L306.282 238.296L297.747 238.259L297.771 232.937Z" fill="#2F2E41"/>
<path d="M330.121 57.8848C330.124 57.1955 330.028 56.5142 329.842 55.8901C329.655 55.2659 329.381 54.7143 329.039 54.275C328.698 53.8357 328.298 53.5195 327.868 53.3493C327.438 53.1791 326.989 53.1591 326.552 53.2906C326.116 53.4222 325.703 53.702 325.344 54.1101C324.985 54.5182 324.688 55.0443 324.476 55.6506C324.263 56.257 324.139 56.9284 324.113 57.6167C324.087 58.3051 324.16 58.9931 324.326 59.6314L318.178 74.5375L314.34 86.362L317.446 90.679L319.867 86.7624L327.839 62.3897C328.487 62.1365 329.062 61.5564 329.476 60.7407C329.889 59.925 330.116 58.9202 330.121 57.8848Z" fill="#FFB6B6"/>
<path d="M298.34 106.728L292.384 105.268L290.89 121.999L283.039 147.804C282.532 148.29 282.129 148.997 281.88 149.837C281.632 150.677 281.549 151.611 281.642 152.522C281.735 153.433 282.001 154.279 282.405 154.954C282.809 155.629 283.333 156.103 283.911 156.314C284.49 156.526 285.096 156.467 285.654 156.144C286.212 155.821 286.696 155.249 287.046 154.5C287.396 153.751 287.595 152.859 287.618 151.937C287.642 151.015 287.488 150.103 287.178 149.318L295.368 126.684L298.34 106.728Z" fill="#FFB6B6"/>
<path d="M301.522 134.625C301.522 134.625 296.246 142.125 296.829 161.044L298.17 190.273L297.621 231.007L303.009 230.374L308.013 162.127L312.4 190.136L310.618 227.414L315.804 227.623L321.439 185.511L320.284 154.271L318.2 134.698L301.522 134.625Z" fill="#2F2E41"/>
<path d="M307.324 90.5949L294.774 95.9824L301.014 125.621L300.012 136.945L319.325 137.224L314.948 115.309C314.948 115.309 317.493 107.311 314.651 101.684L307.324 90.5949Z" fill="#E4E4E4"/>
<path d="M305.801 95.2532L307.324 90.5949C307.324 90.5949 307.281 89.4224 310.815 88.8578L314.987 82.4852L318.754 88.3675L312.28 103.057L305.801 95.2532Z" fill="#E4E4E4"/>
<path d="M299.768 99.8918C299.768 99.8918 295.292 92.0973 292.77 95.9737C290.248 99.8501 291.478 112.217 291.478 112.217L299.273 114.13L299.768 99.8918Z" fill="#E4E4E4"/>
<path d="M302.186 70.0161C309.865 70.1032 309.785 88.2219 302.105 88.2401C294.426 88.153 294.506 70.0343 302.186 70.0161Z" fill="#FFB6B6"/>
<path d="M303.003 78.5296C304.037 79.4827 305.112 80.4577 306.308 80.6663C307.505 80.8749 308.864 80.0988 309.352 78.3867C309.505 77.7934 309.587 77.1625 309.596 76.5245C309.715 73.2693 309.003 70.0772 307.614 67.6406C306.917 66.4461 306.061 65.5001 305.105 64.867C304.149 64.2339 303.116 63.9287 302.075 63.972C300.09 64.0972 298.25 65.5467 296.483 66.9649C294.858 68.2691 293.142 69.7065 292.251 72.1863C290.932 75.8611 291.862 80.3713 292.097 84.5537C292.261 87.6723 292.018 90.8127 291.383 93.7875C290.748 96.7622 289.734 99.5104 288.401 101.868L299.321 103.522C300.643 103.831 301.989 103.816 303.31 103.477C304.437 103.092 305.476 102.241 306.318 101.015C307.159 99.7883 307.772 98.2323 308.091 96.512C308.409 94.7917 308.422 92.9715 308.127 91.2448C307.832 89.5181 307.241 87.9495 306.416 86.7058C304.876 84.3821 302.389 82.7308 302.342 79.3913" fill="#2F2E41"/>
<path d="M1.03632 118.235L41.2597 72.9455L40.926 76.8339L1.14228 122.532L1.03632 118.235Z" fill="#731E0B"/>
<path d="M209.027 329.833C220.063 329.81 220.047 333.59 209.011 333.471C197.974 333.493 197.991 329.713 209.027 329.833Z" fill="#F0F0F0"/>
<path d="M48.1967 327.573C59.2333 327.551 59.2168 331.331 48.1805 331.212C37.1442 331.234 37.1606 327.454 48.1967 327.573Z" fill="#F0F0F0"/>
<path d="M357.133 262.839C368.169 262.817 368.153 266.597 357.117 266.478C346.08 266.5 346.097 262.72 357.133 262.839Z" fill="#F0F0F0"/>
<path d="M356.263 260.073C356.293 258.413 355.534 256.607 354.464 256.591C354.037 256.635 353.632 256.901 353.315 257.347C352.997 257.793 352.786 258.391 352.715 259.046C352.658 259.703 352.689 260.371 352.807 261.008C352.925 261.644 353.126 262.235 353.398 262.744C353.947 263.756 354.584 264.643 355.291 265.38L355.484 264.312C355.352 264.44 355.211 264.546 355.064 264.629C355.646 263.232 356.234 261.732 356.263 260.073Z" fill="#F0F0F0"/>
<path d="M355.484 264.312C355.649 264.149 355.801 263.956 355.936 263.736C355.812 263.774 355.69 263.825 355.566 263.86L355.484 264.312Z" fill="#F0F0F0"/>
<path d="M363.572 251.357C363.081 250.753 362.497 250.355 361.877 250.203C361.256 250.05 360.621 250.148 360.03 250.486C359.445 250.84 358.916 251.391 358.481 252.097C358.047 252.803 357.718 253.649 357.517 254.573C357.122 256.356 357.193 258.295 356.997 260.154C356.884 261.485 356.514 262.734 355.936 263.736C357.858 263.15 359.728 262.204 361.505 260.918C362.79 259.985 364.121 258.697 364.574 256.612C364.757 255.678 364.76 254.682 364.582 253.748C364.404 252.814 364.053 251.983 363.572 251.357Z" fill="#F0F0F0"/>
<path d="M209.16 327.071C209.189 325.411 208.43 323.605 207.36 323.589C206.934 323.633 206.529 323.899 206.211 324.345C205.893 324.79 205.682 325.389 205.611 326.044C205.554 326.701 205.586 327.369 205.703 328.005C205.821 328.642 206.022 329.233 206.295 329.742C206.843 330.753 207.48 331.641 208.187 332.378L208.381 331.31C208.248 331.438 208.107 331.544 207.961 331.626C208.542 330.23 209.13 328.73 209.16 327.071Z" fill="#F0F0F0"/>
<path d="M208.381 331.31C208.546 331.147 208.697 330.953 208.833 330.734C208.709 330.772 208.587 330.823 208.463 330.858L208.381 331.31Z" fill="#F0F0F0"/>
<path d="M216.468 318.355C215.977 317.75 215.393 317.353 214.773 317.201C214.153 317.048 213.517 317.145 212.927 317.484C212.341 317.838 211.812 318.388 211.378 319.095C210.943 319.801 210.614 320.647 210.413 321.571C210.018 323.354 210.09 325.293 209.894 327.152C209.78 328.483 209.41 329.732 208.833 330.734C210.755 330.148 212.625 329.202 214.401 327.916C215.686 326.983 217.017 325.695 217.47 323.61C217.653 322.676 217.656 321.68 217.478 320.746C217.3 319.812 216.949 318.98 216.468 318.355Z" fill="#F0F0F0"/>
<path d="M48.3295 324.812C48.3592 323.152 47.5997 321.346 46.5301 321.33C46.1036 321.374 45.6985 321.64 45.3809 322.086C45.0633 322.531 44.852 323.13 44.7813 323.785C44.7242 324.442 44.7555 325.11 44.8731 325.746C44.9907 326.383 45.192 326.974 45.4645 327.483C46.0129 328.494 46.6499 329.382 47.357 330.119L47.5505 329.051C47.4181 329.179 47.2773 329.285 47.1306 329.367C47.7122 327.971 48.2997 326.471 48.3295 324.812Z" fill="#F0F0F0"/>
<path d="M47.5505 329.051C47.7153 328.888 47.8671 328.694 48.0025 328.475C47.8787 328.513 47.7565 328.564 47.6323 328.599L47.5505 329.051Z" fill="#F0F0F0"/>
<path d="M55.6384 316.096C55.1468 315.491 54.5629 315.094 53.9427 314.942C53.3225 314.789 52.6868 314.886 52.0966 315.224C51.5108 315.579 50.982 316.129 50.5476 316.836C50.1132 317.542 49.784 318.388 49.5831 319.312C49.1884 321.095 49.2596 323.034 49.0636 324.893C48.9501 326.224 48.5803 327.473 48.0026 328.475C49.9247 327.889 51.7946 326.943 53.5713 325.657C54.8559 324.724 56.1868 323.436 56.6401 321.351C56.8232 320.417 56.8258 319.421 56.6477 318.487C56.4697 317.553 56.1187 316.721 55.6384 316.096Z" fill="#F0F0F0"/>
</g>
<defs>
<clipPath id="clip0_378_70">
<rect width="470.897" height="355" fill="white" transform="translate(1.55396) rotate(0.250819)"/>
</clipPath>
</defs>
</svg>
