<svg width="383" height="242" viewBox="0 0 383 242" fill="none" xmlns="http://www.w3.org/2000/svg">
<g clip-path="url(#clip0_185_13)">
<path d="M243.578 75.7115C244.3 67.9279 246.296 60.3158 249.484 53.1791C250.373 51.1931 251.351 49.2508 252.418 47.3522C252.472 47.2529 252.485 47.1367 252.454 47.028C252.424 46.9194 252.352 46.8268 252.255 46.7699C252.158 46.713 252.042 46.6961 251.932 46.7229C251.823 46.7496 251.728 46.8179 251.668 46.9133C247.786 53.8284 245.066 61.335 243.617 69.1327C243.214 71.3102 242.911 73.5032 242.709 75.7115C242.657 76.2685 243.527 76.265 243.578 75.7115Z" fill="#E6E6E6"/>
<path d="M254.524 48.7468C257.564 48.7468 260.029 46.2811 260.029 43.2394C260.029 40.1978 257.564 37.7321 254.524 37.7321C251.483 37.7321 249.019 40.1978 249.019 43.2394C249.019 46.2811 251.483 48.7468 254.524 48.7468Z" fill="#E6E6E6"/>
<path d="M244.141 75.8579C244.61 70.8083 245.904 65.8699 247.973 61.2401C248.549 59.9516 249.184 58.6915 249.876 57.4598C249.911 57.3954 249.919 57.32 249.9 57.2496C249.88 57.1791 249.834 57.1191 249.77 57.0822C249.707 57.0452 249.632 57.0343 249.561 57.0516C249.49 57.069 249.429 57.1132 249.389 57.1751C246.871 61.6613 245.106 66.5311 244.167 71.5899C243.905 73.0026 243.709 74.4252 243.577 75.8579C243.544 76.2192 244.108 76.2169 244.141 75.8579Z" fill="#E6E6E6"/>
<path d="M251.242 58.3645C253.215 58.3645 254.813 56.7649 254.813 54.7916C254.813 52.8184 253.215 51.2188 251.242 51.2188C249.27 51.2188 247.671 52.8184 247.671 54.7916C247.671 56.7649 249.27 58.3645 251.242 58.3645Z" fill="#E6E6E6"/>
<path d="M243.429 75.5205C240.695 71.2506 238.679 66.5604 237.464 61.637C237.126 60.2663 236.852 58.8823 236.641 57.485C236.628 57.4128 236.589 57.3482 236.53 57.3048C236.471 57.2614 236.397 57.2425 236.325 57.2523C236.252 57.262 236.187 57.2996 236.141 57.357C236.096 57.4144 236.074 57.4872 236.082 57.5601C236.854 62.6471 238.457 67.5726 240.826 72.1396C241.488 73.4143 242.208 74.6569 242.985 75.8675C243.181 76.173 243.624 75.8241 243.429 75.5205Z" fill="#E6E6E6"/>
<path d="M236.077 58.1138C238.05 58.1138 239.648 56.5142 239.648 54.5409C239.648 52.5677 238.05 50.968 236.077 50.968C234.105 50.968 232.506 52.5677 232.506 54.5409C232.506 56.5142 234.105 58.1138 236.077 58.1138Z" fill="#E6E6E6"/>
<path d="M232.466 78.6817V71.6618C232.467 70.9638 232.744 70.2947 233.237 69.8012C233.731 69.3077 234.399 69.0301 235.097 69.0293H251.47C252.167 69.0301 252.836 69.3077 253.329 69.8012C253.823 70.2947 254.1 70.9638 254.101 71.6618V78.6817C254.1 79.3796 253.823 80.0487 253.329 80.5423C252.836 81.0358 252.167 81.3134 251.47 81.3142H235.097C234.399 81.3134 233.731 81.0358 233.237 80.5423C232.744 80.0487 232.467 79.3796 232.466 78.6817Z" fill="#F2F2F2"/>
<path d="M250.885 33.9297H243.868C243.17 33.9289 242.502 33.6513 242.008 33.1577C241.515 32.6642 241.238 31.9951 241.237 31.2972V2.63247C241.238 1.93454 241.515 1.26542 242.008 0.771911C242.502 0.278397 243.17 0.000786558 243.868 0H250.885C251.583 0.000786558 252.251 0.278397 252.745 0.771911C253.238 1.26542 253.515 1.93454 253.516 2.63247V31.2972C253.515 31.9951 253.238 32.6642 252.745 33.1577C252.251 33.6513 251.583 33.9289 250.885 33.9297Z" fill="#F2F2F2"/>
<path d="M253.224 5.5575H241.529V7.89747H253.224V5.5575Z" fill="#CCCCCC"/>
<path d="M253.224 23.6923H241.529V26.0322H253.224V23.6923Z" fill="#CCCCCC"/>
<path d="M268.427 33.9297H261.41C260.712 33.9289 260.044 33.6513 259.55 33.1577C259.057 32.6642 258.78 31.9951 258.779 31.2972V2.63247C258.78 1.93454 259.057 1.26542 259.55 0.771911C260.044 0.278397 260.712 0.000786558 261.41 0H268.427C269.125 0.000786558 269.793 0.278397 270.287 0.771911C270.78 1.26542 271.057 1.93454 271.058 2.63247V31.2972C271.057 31.9951 270.78 32.6642 270.287 33.1577C269.793 33.6513 269.125 33.9289 268.427 33.9297Z" fill="#F2F2F2"/>
<path d="M270.766 5.5575H259.071V7.89747H270.766V5.5575Z" fill="#CCCCCC"/>
<path d="M270.766 23.6923H259.071V26.0322H270.766V23.6923Z" fill="#CCCCCC"/>
<path d="M285.969 33.9297H278.952C278.254 33.9289 277.586 33.6513 277.092 33.1577C276.599 32.6642 276.322 31.9951 276.321 31.2972V2.63247C276.322 1.93454 276.599 1.26542 277.092 0.771911C277.586 0.278397 278.254 0.000786558 278.952 0H285.969C286.667 0.000786558 287.335 0.278397 287.829 0.771911C288.322 1.26542 288.599 1.93454 288.6 2.63247V31.2972C288.599 31.9951 288.322 32.6642 287.829 33.1577C287.335 33.6513 286.667 33.9289 285.969 33.9297Z" fill="#F2F2F2"/>
<path d="M288.308 5.5575H276.613V7.89747H288.308V5.5575Z" fill="#CCCCCC"/>
<path d="M288.308 23.6923H276.613V26.0322H288.308V23.6923Z" fill="#CCCCCC"/>
<path d="M295.325 81.3142H288.308C287.61 81.3134 286.941 81.0358 286.448 80.5423C285.955 80.0487 285.677 79.3796 285.677 78.6817V50.017C285.677 49.3191 285.955 48.6499 286.448 48.1564C286.941 47.6629 287.61 47.3853 288.308 47.3845H295.325C296.022 47.3853 296.691 47.6629 297.184 48.1564C297.678 48.6499 297.955 49.3191 297.956 50.017V78.6817C297.955 79.3796 297.678 80.0487 297.184 80.5423C296.691 81.0358 296.022 81.3134 295.325 81.3142Z" fill="#F2F2F2"/>
<path d="M297.663 52.9419H285.969V55.2819H297.663V52.9419Z" fill="#CCCCCC"/>
<path d="M297.663 71.0768H285.969V73.4168H297.663V71.0768Z" fill="#CCCCCC"/>
<path d="M312.867 81.3142H305.85C305.152 81.3134 304.483 81.0358 303.99 80.5423C303.497 80.0487 303.219 79.3796 303.219 78.6817V50.017C303.219 49.3191 303.497 48.6499 303.99 48.1564C304.483 47.6629 305.152 47.3853 305.85 47.3845H312.867C313.564 47.3853 314.233 47.6629 314.726 48.1564C315.22 48.6499 315.497 49.3191 315.498 50.017V78.6817C315.497 79.3796 315.22 80.0487 314.726 80.5423C314.233 81.0358 313.564 81.3134 312.867 81.3142Z" fill="#F2F2F2"/>
<path d="M315.206 52.9419H303.511V55.2819H315.206V52.9419Z" fill="#CCCCCC"/>
<path d="M315.206 71.0768H303.511V73.4168H315.206V71.0768Z" fill="#CCCCCC"/>
<path d="M330.409 81.3142H323.392C322.694 81.3134 322.025 81.0358 321.532 80.5423C321.039 80.0487 320.761 79.3796 320.76 78.6817V50.017C320.761 49.3191 321.039 48.6499 321.532 48.1564C322.025 47.6629 322.694 47.3853 323.392 47.3845H330.409C331.106 47.3853 331.775 47.6629 332.268 48.1564C332.762 48.6499 333.039 49.3191 333.04 50.017V78.6817C333.039 79.3796 332.762 80.0487 332.268 80.5423C331.775 81.0358 331.106 81.3134 330.409 81.3142Z" fill="#F2F2F2"/>
<path d="M332.747 52.9419H321.053V55.2819H332.747V52.9419Z" fill="#CCCCCC"/>
<path d="M332.747 71.0768H321.053V73.4168H332.747V71.0768Z" fill="#CCCCCC"/>
<path d="M249.131 128.699H242.114C241.416 128.698 240.747 128.42 240.254 127.927C239.761 127.433 239.483 126.764 239.483 126.066V97.4015C239.483 96.7036 239.761 96.0344 240.254 95.5409C240.747 95.0474 241.416 94.7698 242.114 94.769H249.131C249.828 94.7698 250.497 95.0474 250.99 95.5409C251.484 96.0344 251.761 96.7036 251.762 97.4015V126.066C251.761 126.764 251.484 127.433 250.99 127.927C250.497 128.42 249.828 128.698 249.131 128.699Z" fill="#F2F2F2"/>
<path d="M251.47 100.326H239.775V102.666H251.47V100.326Z" fill="#CCCCCC"/>
<path d="M251.47 118.461H239.775V120.801H251.47V118.461Z" fill="#CCCCCC"/>
<path d="M266.673 128.699H259.656C258.958 128.698 258.289 128.42 257.796 127.927C257.303 127.433 257.025 126.764 257.025 126.066V97.4015C257.025 96.7036 257.303 96.0344 257.796 95.5409C258.289 95.0474 258.958 94.7698 259.656 94.769H266.673C267.37 94.7698 268.039 95.0474 268.532 95.5409C269.026 96.0344 269.303 96.7036 269.304 97.4015V126.066C269.303 126.764 269.026 127.433 268.532 127.927C268.039 128.42 267.37 128.698 266.673 128.699Z" fill="#F2F2F2"/>
<path d="M269.012 100.326H257.317V102.666H269.012V100.326Z" fill="#CCCCCC"/>
<path d="M269.012 118.461H257.317V120.801H269.012V118.461Z" fill="#CCCCCC"/>
<path d="M284.215 128.699H277.198C276.5 128.698 275.831 128.42 275.338 127.927C274.845 127.433 274.567 126.764 274.567 126.066V97.4015C274.567 96.7036 274.845 96.0344 275.338 95.5409C275.831 95.0474 276.5 94.7698 277.198 94.769H284.215C284.912 94.7698 285.581 95.0474 286.074 95.5409C286.568 96.0344 286.845 96.7036 286.846 97.4015V126.066C286.845 126.764 286.568 127.433 286.074 127.927C285.581 128.42 284.912 128.698 284.215 128.699Z" fill="#F2F2F2"/>
<path d="M286.554 100.326H274.859V102.666H286.554V100.326Z" fill="#CCCCCC"/>
<path d="M286.554 118.461H274.859V120.801H286.554V118.461Z" fill="#CCCCCC"/>
<path d="M303.511 33.9297H296.494C295.796 33.9289 295.128 33.6513 294.634 33.1577C294.141 32.6642 293.864 31.9951 293.863 31.2972V2.63247C293.864 1.93454 294.141 1.26542 294.634 0.771911C295.128 0.278397 295.796 0.000786558 296.494 0H303.511C304.209 0.000786558 304.877 0.278397 305.371 0.771911C305.864 1.26542 306.141 1.93454 306.142 2.63247V31.2972C306.141 31.9951 305.864 32.6642 305.371 33.1577C304.877 33.6513 304.209 33.9289 303.511 33.9297Z" fill="#F2F2F2"/>
<path d="M305.85 5.5575H294.155V7.89747H305.85V5.5575Z" fill="#CCCCCC"/>
<path d="M305.85 23.6923H294.155V26.0322H305.85V23.6923Z" fill="#CCCCCC"/>
<path d="M321.053 33.9297H314.036C313.338 33.9289 312.67 33.6513 312.176 33.1577C311.683 32.6642 311.406 31.9951 311.405 31.2972V2.63247C311.406 1.93454 311.683 1.26542 312.176 0.771911C312.67 0.278397 313.338 0.000786558 314.036 0H321.053C321.75 0.000786558 322.419 0.278397 322.913 0.771911C323.406 1.26542 323.683 1.93454 323.684 2.63247V31.2972C323.683 31.9951 323.406 32.6642 322.913 33.1577C322.419 33.6513 321.75 33.9289 321.053 33.9297Z" fill="#F2F2F2"/>
<path d="M323.392 5.5575H311.697V7.89747H323.392V5.5575Z" fill="#CCCCCC"/>
<path d="M323.392 23.6923H311.697V26.0322H323.392V23.6923Z" fill="#CCCCCC"/>
<path d="M338.595 33.9297H331.578C330.88 33.9289 330.212 33.6513 329.718 33.1577C329.225 32.6642 328.948 31.9951 328.947 31.2972V2.63247C328.948 1.93454 329.225 1.26542 329.718 0.771911C330.212 0.278397 330.88 0.000786558 331.578 0H338.595C339.292 0.000786558 339.961 0.278397 340.455 0.771911C340.948 1.26542 341.225 1.93454 341.226 2.63247V31.2972C341.225 31.9951 340.948 32.6642 340.455 33.1577C339.961 33.6513 339.292 33.9289 338.595 33.9297Z" fill="#F2F2F2"/>
<path d="M340.934 5.5575H329.239V7.89747H340.934V5.5575Z" fill="#CCCCCC"/>
<path d="M340.934 23.6923H329.239V26.0322H340.934V23.6923Z" fill="#CCCCCC"/>
<path d="M356.137 33.9297H349.12C348.422 33.9289 347.754 33.6513 347.26 33.1577C346.767 32.6642 346.49 31.9951 346.489 31.2972V2.63247C346.49 1.93454 346.767 1.26542 347.26 0.771911C347.754 0.278397 348.422 0.000786558 349.12 0H356.137C356.834 0.000786558 357.503 0.278397 357.997 0.771911C358.49 1.26542 358.767 1.93454 358.768 2.63247V31.2972C358.767 31.9951 358.49 32.6642 357.997 33.1577C357.503 33.6513 356.834 33.9289 356.137 33.9297Z" fill="#F2F2F2"/>
<path d="M358.476 5.5575H346.781V7.89747H358.476V5.5575Z" fill="#CCCCCC"/>
<path d="M358.476 23.6923H346.781V26.0322H358.476V23.6923Z" fill="#CCCCCC"/>
<path d="M382.415 34.8072H215.766C215.611 34.8072 215.463 34.7456 215.353 34.6358C215.243 34.5261 215.182 34.3774 215.182 34.2222C215.182 34.0671 215.243 33.9182 215.353 33.8085C215.463 33.6988 215.611 33.6372 215.766 33.6372H382.415C382.57 33.6372 382.719 33.6988 382.829 33.8085C382.938 33.9182 383 34.0671 383 34.2222C383 34.3774 382.938 34.5261 382.829 34.6358C382.719 34.7456 382.57 34.8072 382.415 34.8072Z" fill="#CCCCCC"/>
<path d="M382.415 82.1917H215.766C215.611 82.1917 215.463 82.1301 215.353 82.0204C215.243 81.9107 215.182 81.7619 215.182 81.6067C215.182 81.4516 215.243 81.3028 215.353 81.1931C215.463 81.0834 215.611 81.0217 215.766 81.0217H382.415C382.57 81.0217 382.719 81.0834 382.829 81.1931C382.938 81.3028 383 81.4516 383 81.6067C383 81.7619 382.938 81.9107 382.829 82.0204C382.719 82.1301 382.57 82.1917 382.415 82.1917Z" fill="#CCCCCC"/>
<path d="M382.415 129.576H215.766C215.611 129.576 215.463 129.514 215.353 129.405C215.243 129.295 215.182 129.146 215.182 128.991C215.182 128.836 215.243 128.687 215.353 128.577C215.463 128.468 215.611 128.406 215.766 128.406H382.415C382.57 128.406 382.719 128.468 382.829 128.577C382.938 128.687 383 128.836 383 128.991C383 129.146 382.938 129.295 382.829 129.405C382.719 129.514 382.57 129.576 382.415 129.576Z" fill="#CCCCCC"/>
<path d="M340.059 123.096C340.781 115.312 342.777 107.7 345.965 100.564C346.854 98.5776 347.832 96.6353 348.899 94.7367C348.953 94.6374 348.966 94.5212 348.935 94.4125C348.905 94.3039 348.833 94.2114 348.736 94.1544C348.639 94.0975 348.523 94.0806 348.413 94.1074C348.304 94.1341 348.209 94.2024 348.149 94.2978C344.267 101.213 341.547 108.719 340.098 116.517C339.695 118.695 339.392 120.888 339.19 123.096C339.138 123.653 340.008 123.649 340.059 123.096Z" fill="#E6E6E6"/>
<path d="M351.004 96.1313C354.045 96.1313 356.509 93.6656 356.509 90.6239C356.509 87.5823 354.045 85.1166 351.004 85.1166C347.964 85.1166 345.5 87.5823 345.5 90.6239C345.5 93.6656 347.964 96.1313 351.004 96.1313Z" fill="#E6E6E6"/>
<path d="M340.622 123.242C341.091 118.193 342.385 113.254 344.454 108.625C345.03 107.336 345.665 106.076 346.357 104.844C346.392 104.78 346.4 104.705 346.38 104.634C346.361 104.564 346.314 104.504 346.251 104.467C346.188 104.43 346.113 104.419 346.042 104.436C345.971 104.453 345.909 104.498 345.87 104.56C343.352 109.046 341.587 113.916 340.647 118.974C340.386 120.387 340.19 121.81 340.058 123.242C340.025 123.604 340.589 123.601 340.622 123.242Z" fill="#E6E6E6"/>
<path d="M347.723 105.749C349.695 105.749 351.294 104.149 351.294 102.176C351.294 100.203 349.695 98.6033 347.723 98.6033C345.751 98.6033 344.152 100.203 344.152 102.176C344.152 104.149 345.751 105.749 347.723 105.749Z" fill="#E6E6E6"/>
<path d="M339.91 122.905C337.176 118.635 335.16 113.945 333.945 109.021C333.607 107.651 333.333 106.267 333.122 104.869C333.109 104.797 333.07 104.733 333.011 104.689C332.952 104.646 332.878 104.627 332.806 104.637C332.733 104.647 332.667 104.684 332.622 104.742C332.577 104.799 332.555 104.872 332.563 104.945C333.335 110.032 334.938 114.957 337.307 119.524C337.969 120.799 338.689 122.041 339.466 123.252C339.662 123.557 340.105 123.209 339.91 122.905Z" fill="#E6E6E6"/>
<path d="M332.558 105.498C334.53 105.498 336.129 103.899 336.129 101.925C336.129 99.9522 334.53 98.3525 332.558 98.3525C330.586 98.3525 328.987 99.9522 328.987 101.925C328.987 103.899 330.586 105.498 332.558 105.498Z" fill="#E6E6E6"/>
<path d="M328.947 126.066V119.046C328.948 118.348 329.225 117.679 329.718 117.186C330.212 116.692 330.88 116.415 331.578 116.414H347.951C348.648 116.415 349.317 116.692 349.81 117.186C350.304 117.679 350.581 118.348 350.582 119.046V126.066C350.581 126.764 350.304 127.433 349.81 127.927C349.317 128.42 348.648 128.698 347.951 128.699H331.578C330.88 128.698 330.212 128.42 329.718 127.927C329.225 127.433 328.948 126.764 328.947 126.066Z" fill="#F2F2F2"/>
<path d="M223.368 212.645H0.584733C0.429652 212.645 0.280931 212.584 0.171273 212.474C0.0616141 212.364 0 212.215 0 212.06C0 211.905 0.0616141 211.756 0.171273 211.647C0.280931 211.537 0.429652 211.475 0.584733 211.475H223.368C223.523 211.475 223.672 211.537 223.781 211.647C223.891 211.756 223.953 211.905 223.953 212.06C223.953 212.215 223.891 212.364 223.781 212.474C223.672 212.584 223.523 212.645 223.368 212.645Z" fill="#3F3D56"/>
<path d="M116.396 136.011C125.116 136.011 132.184 128.939 132.184 120.216C132.184 111.493 125.116 104.421 116.396 104.421C107.677 104.421 100.609 111.493 100.609 120.216C100.609 128.939 107.677 136.011 116.396 136.011Z" fill="#2F2E41"/>
<path d="M101.396 221.611L100.978 214.452L128.382 209.43L128.999 219.997L101.396 221.611Z" fill="#FFB8B8"/>
<path d="M102.723 209.218L103.53 223.026L94.8401 223.534L93.5253 201.032C94.6665 200.965 95.8097 201.124 96.8895 201.499C97.9694 201.875 98.9648 202.459 99.8189 203.219C100.673 203.979 101.369 204.9 101.867 205.929C102.366 206.959 102.657 208.076 102.723 209.218Z" fill="#2F2E41"/>
<path d="M113.315 221.545L108.763 227.086L85.2354 212.157L91.9533 203.98L113.315 221.545Z" fill="#FFB8B8"/>
<path d="M103.929 229.742L112.708 219.057L119.432 224.587L105.126 242C104.243 241.274 103.512 240.381 102.974 239.372C102.436 238.363 102.101 237.258 101.99 236.119C101.879 234.981 101.993 233.832 102.326 232.738C102.658 231.644 103.203 230.626 103.929 229.742Z" fill="#2F2E41"/>
<path d="M100.215 195.78L97.1049 210.451C97.0332 210.789 97.0372 211.138 97.1166 211.474C97.1959 211.81 97.3486 212.125 97.5637 212.395C97.7788 212.665 98.051 212.884 98.3607 213.036C98.6704 213.189 99.01 213.271 99.3552 213.276L129.935 213.77C130.28 213.775 130.622 213.704 130.936 213.562C131.25 213.42 131.529 213.211 131.753 212.948C131.977 212.686 132.139 212.377 132.23 212.044C132.321 211.712 132.336 211.363 132.276 211.023L129.602 195.859C129.506 195.317 129.223 194.826 128.802 194.473C128.38 194.119 127.848 193.926 127.298 193.926H102.504C101.967 193.926 101.448 194.11 101.031 194.447C100.615 194.785 100.327 195.255 100.215 195.78Z" fill="#2F2E41"/>
<path d="M105.286 200.945C105.286 200.945 75.465 182.226 69.6177 192.171C66.6941 197.143 68.1559 201.969 70.3486 205.552C72.3835 208.815 75.3045 211.43 78.7702 213.094L102.947 224.93L111.718 215.57L105.871 210.305L105.286 200.945Z" fill="#2F2E41"/>
<path d="M120.489 198.02C120.489 198.02 159.082 186.906 151.48 207.965C143.879 229.025 115.227 220.835 115.227 220.835L112.303 212.06L122.244 205.04L120.489 198.02Z" fill="#2F2E41"/>
<path d="M116.594 138.191C124.526 138.191 130.956 131.758 130.956 123.823C130.956 115.888 124.526 109.455 116.594 109.455C108.663 109.455 102.233 115.888 102.233 123.823C102.233 131.758 108.663 138.191 116.594 138.191Z" fill="#FFB8B8"/>
<path d="M117.347 200.342C111.379 200.252 105.442 199.469 99.6545 198.01L99.4835 197.963L91.4694 161.082C90.7484 157.842 91.2386 154.449 92.8473 151.545C94.4561 148.641 97.072 146.427 100.201 145.321C109.867 141.851 120.401 141.641 130.198 144.721C133.485 145.781 136.252 148.042 137.946 151.052C139.641 154.063 140.139 157.602 139.34 160.964L130.389 197.933L130.263 197.992C126.543 199.755 121.891 200.342 117.347 200.342Z" fill="#CCCCCC"/>
<path d="M106.582 203.207C106.873 202.398 107.338 201.662 107.944 201.052C108.549 200.442 109.282 199.973 110.089 199.676C110.896 199.38 111.758 199.264 112.614 199.338C113.471 199.411 114.301 199.671 115.046 200.1L130.826 186.396L132.254 197.165L117.05 208.527C116.247 209.732 115.03 210.6 113.63 210.967C112.23 211.334 110.744 211.174 109.454 210.519C108.164 209.863 107.158 208.757 106.629 207.409C106.1 206.061 106.083 204.566 106.582 203.207Z" fill="#FFB8B8"/>
<path d="M121.632 206.196C121.375 206.196 121.119 206.158 120.874 206.085C120.474 205.968 120.109 205.758 119.807 205.471C119.506 205.185 119.278 204.83 119.141 204.437L117.237 199.038C117.058 198.539 117.036 197.998 117.172 197.486C117.308 196.974 117.596 196.515 117.998 196.171L139.498 183.257L131.023 145.431L131.238 145.379C131.326 145.357 140.01 143.38 143.568 152.873C146.06 159.522 155.281 173.978 154.63 183.747C154.507 185.701 153.729 187.556 152.421 189.013C151.114 190.47 149.354 191.444 147.425 191.777L123.224 205.649C122.769 206.003 122.208 206.195 121.632 206.196Z" fill="#CCCCCC"/>
<path d="M124.043 201.924C123.752 201.115 123.287 200.379 122.681 199.769C122.075 199.159 121.343 198.69 120.536 198.393C119.729 198.097 118.867 197.981 118.01 198.054C117.154 198.128 116.324 198.388 115.579 198.816L99.7988 185.113L98.3711 195.882L113.575 207.244C114.378 208.448 115.595 209.317 116.994 209.684C118.394 210.051 119.88 209.891 121.171 209.236C122.461 208.58 123.466 207.473 123.995 206.126C124.525 204.778 124.542 203.283 124.043 201.924Z" fill="#FFB8B8"/>
<path d="M110.576 206.196C110 206.195 109.44 206.003 108.984 205.649L83.0285 192.947C81.0999 192.614 79.3399 191.64 78.0326 190.183C76.7253 188.726 75.947 186.871 75.8234 184.917C75.1729 175.148 86.1483 159.522 88.6401 152.873C92.1982 143.38 100.882 145.357 100.97 145.379L101.185 145.431L90.9558 184.427L114.21 196.171C114.612 196.515 114.9 196.974 115.036 197.486C115.172 197.998 115.15 198.539 114.971 199.038L113.067 204.437C112.93 204.83 112.702 205.185 112.401 205.471C112.099 205.758 111.734 205.968 111.334 206.085C111.089 206.158 110.833 206.196 110.576 206.196Z" fill="#CCCCCC"/>
<path d="M141.54 212.06H89.4986C88.4135 212.059 87.3731 211.627 86.6058 210.859C85.8384 210.092 85.4068 209.051 85.4055 207.965V179.301C85.4068 178.215 85.8384 177.174 86.6058 176.406C87.3731 175.639 88.4135 175.207 89.4986 175.206H141.54C142.625 175.207 143.665 175.639 144.433 176.406C145.2 177.174 145.632 178.215 145.633 179.301V207.965C145.632 209.051 145.2 210.092 144.433 210.859C143.665 211.627 142.625 212.059 141.54 212.06Z" fill="#00BFA6"/>
<path d="M115.519 197.143C117.457 197.143 119.028 195.572 119.028 193.633C119.028 191.695 117.457 190.123 115.519 190.123C113.582 190.123 112.011 191.695 112.011 193.633C112.011 195.572 113.582 197.143 115.519 197.143Z" fill="white"/>
<path d="M102.089 123.238C101.238 121.078 102.634 118.504 104.706 117.458C106.778 116.411 109.278 116.61 111.494 117.3C113.356 117.88 115.101 118.778 116.918 119.487C118.709 120.281 120.666 120.63 122.621 120.503C124.559 120.284 126.488 119.197 127.281 117.414C128.103 115.567 127.544 113.312 126.278 111.735C124.931 110.21 123.188 109.089 121.242 108.497C116.969 106.991 112.034 106.947 108.067 109.136C104.1 111.325 101.404 115.986 102.224 120.444" fill="#2F2E41"/>
<path d="M19.0989 205.812C19.8213 198.028 21.8166 190.416 25.005 183.279C25.8937 181.293 26.8718 179.351 27.9393 177.452C27.9929 177.353 28.0058 177.237 27.9753 177.128C27.9448 177.019 27.8734 176.927 27.776 176.87C27.6787 176.813 27.563 176.796 27.4534 176.823C27.3439 176.85 27.249 176.918 27.1888 177.013C23.3066 183.929 20.5868 191.435 19.1383 199.233C18.7354 201.41 18.4325 203.603 18.2297 205.812C18.1782 206.369 19.0477 206.365 19.0989 205.812Z" fill="#E6E6E6"/>
<path d="M30.0445 178.847C33.0847 178.847 35.5494 176.381 35.5494 173.34C35.5494 170.298 33.0847 167.832 30.0445 167.832C27.0042 167.832 24.5396 170.298 24.5396 173.34C24.5396 176.381 27.0042 178.847 30.0445 178.847Z" fill="#00BFA6"/>
<path d="M19.662 205.958C20.1306 200.908 21.4251 195.97 23.4935 191.34C24.07 190.052 24.7046 188.792 25.3971 187.56C25.4319 187.496 25.4402 187.42 25.4205 187.35C25.4007 187.279 25.3543 187.219 25.2912 187.182C25.228 187.145 25.153 187.134 25.0819 187.152C25.0109 187.169 24.9493 187.213 24.9102 187.275C22.3917 191.761 20.6273 196.631 19.6875 201.69C19.4261 203.103 19.2296 204.525 19.0981 205.958C19.0647 206.319 19.6288 206.317 19.662 205.958Z" fill="#E6E6E6"/>
<path d="M26.7629 188.465C28.7353 188.465 30.3342 186.865 30.3342 184.892C30.3342 182.918 28.7353 181.319 26.7629 181.319C24.7906 181.319 23.1917 182.918 23.1917 184.892C23.1917 186.865 24.7906 188.465 26.7629 188.465Z" fill="#00BFA6"/>
<path d="M18.9502 205.621C16.2153 201.351 14.1999 196.661 12.9845 191.737C12.647 190.367 12.3726 188.983 12.1614 187.585C12.1492 187.513 12.1095 187.448 12.0506 187.405C11.9917 187.362 11.9182 187.343 11.8457 187.352C11.7732 187.362 11.7073 187.4 11.6619 187.457C11.6165 187.515 11.5952 187.587 11.6025 187.66C12.3747 192.747 13.9774 197.673 16.3464 202.24C17.0088 203.515 17.7286 204.757 18.5056 205.968C18.7014 206.273 19.1448 205.924 18.9502 205.621Z" fill="#E6E6E6"/>
<path d="M11.5979 188.214C13.5703 188.214 15.1692 186.614 15.1692 184.641C15.1692 182.668 13.5703 181.068 11.5979 181.068C9.62553 181.068 8.02661 182.668 8.02661 184.641C8.02661 186.614 9.62553 188.214 11.5979 188.214Z" fill="#00BFA6"/>
<path d="M7.98657 208.782V201.762C7.98736 201.064 8.26484 200.395 8.75814 199.901C9.25143 199.408 9.92025 199.13 10.6179 199.129H26.9904C27.688 199.13 28.3568 199.408 28.8501 199.901C29.3434 200.395 29.6209 201.064 29.6217 201.762V208.782C29.6209 209.48 29.3434 210.149 28.8501 210.642C28.3568 211.136 27.688 211.413 26.9904 211.414H10.6179C9.92025 211.413 9.25143 211.136 8.75814 210.642C8.26484 210.149 7.98736 209.48 7.98657 208.782Z" fill="#F2F2F2"/>
<path d="M183.845 216.975C183.845 220.822 180.728 222.571 176.882 222.571C173.036 222.571 169.918 220.822 169.918 216.975C169.918 213.127 171.466 208.638 176.882 210.186C182.298 207.864 183.845 213.127 183.845 216.975Z" fill="#FF6584"/>
<path d="M176.543 211.988C176.272 211.989 176.01 211.89 175.807 211.712C175.603 211.533 175.472 211.286 175.437 211.018C175.206 209.098 173.935 205.339 173.4 203.812L173.4 203.811C173.345 203.659 173.329 203.497 173.351 203.337C173.374 203.177 173.434 203.026 173.528 202.895C173.618 202.778 173.732 202.681 173.862 202.611C173.992 202.541 174.135 202.499 174.282 202.489C174.429 202.478 174.577 202.499 174.715 202.549C174.854 202.6 174.98 202.679 175.086 202.782C175.18 202.881 175.253 202.998 175.3 203.127C175.347 203.255 175.368 203.392 175.36 203.529C175.255 205.489 176.683 208.656 177.543 210.37C177.625 210.531 177.666 210.71 177.662 210.891C177.659 211.072 177.612 211.249 177.525 211.408C177.439 211.567 177.314 211.702 177.164 211.802C177.013 211.902 176.84 211.964 176.661 211.982C176.621 211.986 176.582 211.988 176.543 211.988Z" fill="#3F3D56"/>
<path d="M181.695 207.664C184.112 205.685 182.216 201.634 179.19 202.412C178.783 202.509 178.408 202.71 178.101 202.994C176.245 204.748 175.957 209.235 175.957 209.235C175.957 209.235 179.234 209.679 181.695 207.664Z" fill="#3F3D56"/>
</g>
<defs>
<clipPath id="clip0_185_13">
<rect width="383" height="242" fill="white"/>
</clipPath>
</defs>
</svg>
