<svg width="70" height="70" viewBox="0 0 70 70" fill="none" xmlns="http://www.w3.org/2000/svg">
<g clip-path="url(#clip0_202_23)">
<path d="M45.6364 28.7246C45.4834 28.7538 45.3275 28.7383 45.1796 28.6792C45.0317 28.6201 44.8953 28.5188 44.7802 28.3825C44.6651 28.2462 44.5739 28.0782 44.5131 27.8903C44.4524 27.7023 44.4235 27.4991 44.4285 27.2948L40.9221 25.5124L42.5097 24.0103L45.5961 25.9331C45.855 25.9671 46.0956 26.1255 46.2721 26.3785C46.4486 26.6314 46.5488 26.9611 46.5538 27.3053C46.5587 27.6494 46.4681 27.984 46.2989 28.2456C46.1298 28.5072 45.894 28.6776 45.6363 28.7246L45.6364 28.7246Z" fill="#FFB7B7"/>
<path d="M43.6327 27.4459L44.1802 24.8914L44.1532 24.8671L39.0249 20.2592L34.5917 14.3756L32.0093 15.7403L32.1789 16.8214L32.19 16.8347L38.0841 23.8177L38.0895 23.8212L43.6327 27.4459Z" fill="#E6E7E8"/>
<path d="M38.379 33.2806L30.4422 31.8091L31.1408 25.3674H36.9839L38.379 33.2806Z" fill="#FFB6B6"/>
<path d="M24.8932 64.8235L26.5213 65.324L28.7553 57.2559L26.3525 56.5173L24.8932 64.8235Z" fill="#FFB6B6"/>
<path d="M23.3783 68.2906L24.5458 68.6495L25.0104 67.2555L25.288 68.8776L28.3846 69.8294C28.5331 69.8751 28.6886 69.8567 28.8287 69.7771C28.9687 69.6975 29.0858 69.5608 29.1629 69.387C29.24 69.2131 29.273 69.0112 29.2572 68.8107C29.2414 68.6102 29.1776 68.4217 29.0751 68.2726L26.9991 65.2535L27.258 63.7795L24.6209 63.1853L23.3783 68.2906Z" fill="#2F2E41"/>
<path d="M34.9389 66.0236H36.6103L37.4058 57.496H34.9389V66.0236Z" fill="#FFB6B6"/>
<path d="M34.0567 69.8542H35.2554L35.4693 68.3573L36.0173 69.8542H39.1965C39.3488 69.8542 39.4972 69.7898 39.62 69.6704C39.7427 69.5509 39.8334 69.3827 39.8788 69.1903C39.9241 68.9978 39.9218 68.7912 39.8721 68.6007C39.8224 68.4102 39.7279 68.2456 39.6025 68.1311L37.0638 65.8119V64.2986L34.3934 64.5094L34.0567 69.8542Z" fill="#2F2E41"/>
<path d="M30.3419 30.716L38.1037 29.8993C40.3941 36.9763 38.9378 48.2739 37.1776 60.9918L34.681 61.4187L34.4874 40.9826L28.229 59.9943L25.627 59.8184L30.3419 30.716Z" fill="#2F2E41"/>
<path d="M34.8599 12.0802V8.60687C34.8601 7.99547 34.7693 7.39001 34.5926 6.82506C34.4158 6.26012 34.1567 5.74676 33.8299 5.31433C33.5032 4.8819 33.1152 4.53886 32.6882 4.30482C32.2611 4.07078 31.8034 3.95032 31.3412 3.95032C30.879 3.95032 30.4213 4.07078 29.9943 4.30482C29.5672 4.53886 29.1793 4.8819 28.8525 5.31433C28.5257 5.74676 28.2666 6.26012 28.0899 6.82506C27.9131 7.39001 27.8223 7.99547 27.8225 8.60687C27.2023 10.3162 27.5903 11.1289 27.8225 12.0802C27.8227 12.2459 27.8726 12.4047 27.9611 12.5218C28.0497 12.6389 28.1697 12.7049 28.295 12.7051H34.3872C34.5125 12.7049 34.6326 12.639 34.7212 12.5219C34.8098 12.4048 34.8597 12.2459 34.8599 12.0802Z" fill="#2F2E41"/>
<path d="M32.2096 12.6528C33.6344 12.6528 34.7894 11.1251 34.7894 9.24047C34.7894 7.35588 33.6344 5.82812 32.2096 5.82812C30.7848 5.82812 29.6298 7.35588 29.6298 9.24047C29.6298 11.1251 30.7848 12.6528 32.2096 12.6528Z" fill="#FFB7B7"/>
<path d="M35.6923 8.88466C35.6915 7.90856 35.398 6.97275 34.8762 6.28255C34.3544 5.59234 33.6469 5.2041 32.9089 5.203H32.3837C31.6457 5.2041 30.9383 5.59235 30.4164 6.28255C29.8946 6.97276 29.6011 7.90856 29.6003 8.88466V8.95415C29.9936 9.30983 30.367 9.36185 30.7102 8.95415L31.0887 7.55209L31.1644 8.95414H31.7381L31.9294 8.24679L31.9676 8.95415C32.7425 9.82702 34.2077 9.40873 35.6923 8.95415L35.6923 8.88466Z" fill="#2F2E41"/>
<path d="M30.7053 27.2502L37.2737 26.9195L37.6409 21.2358C37.924 20.1954 37.9286 19.3015 37.6545 18.5808C37.4187 17.9883 37.0225 17.5355 36.5452 17.3126L35.1079 15.0165C34.9231 14.7214 34.6909 14.4843 34.4283 14.3223C34.1657 14.1604 33.8791 14.0776 33.5893 14.08L29.8547 14.1138C29.7647 14.0422 29.2187 13.6752 28.1419 14.2924C26.9739 14.9619 27.2451 17.2881 27.248 17.3114L27.2507 17.3333L27.2635 17.3482L29.7475 20.1157L30.7053 27.2502Z" fill="#E6E7E8"/>
<path d="M0.110203 70H66.0622C66.0914 70 66.1195 69.9847 66.1401 69.9573C66.1608 69.93 66.1724 69.8929 66.1724 69.8543C66.1724 69.8156 66.1608 69.7785 66.1401 69.7512C66.1195 69.7239 66.0914 69.7085 66.0622 69.7085H0.110203C0.0809759 69.7085 0.0529457 69.7239 0.0322787 69.7512C0.0116116 69.7785 0 69.8156 0 69.8543C0 69.8929 0.0116116 69.93 0.0322787 69.9573C0.0529457 69.9847 0.0809759 70 0.110203 70Z" fill="#CCCCCC"/>
<path d="M48.1309 35.4999C48.126 38.811 47.1848 42 45.4925 44.4398C43.8001 46.8796 41.4789 48.3938 38.9853 48.6847C36.4916 48.9756 34.0059 48.0222 32.0168 46.0118C30.0277 44.0014 28.6791 41.0796 28.2361 37.8207C27.7932 34.5618 28.2879 31.2016 29.623 28.4007C30.9581 25.5997 33.037 23.5607 35.4511 22.6845C37.8651 21.8083 40.4397 22.1582 42.6686 23.6654C44.8975 25.1727 46.6195 27.7283 47.4961 30.8298C47.518 30.9077 47.5393 30.9856 47.56 31.0642V31.065C47.6526 31.4106 47.7341 31.7627 47.8045 32.1212C48.0219 33.2244 48.1316 34.3599 48.1309 35.4999Z" fill="#3F3D56"/>
<path d="M36.9324 26.4918C36.4788 26.1673 35.9751 25.9841 35.4599 25.9563C34.9446 25.9284 34.4313 26.0565 33.9592 26.3309C33.5435 26.5702 33.1057 26.9995 32.967 27.7747C33.5279 27.3368 34.254 28.0286 34.3983 29.1384L34.3646 29.1507C34.2884 29.9193 34.4586 30.7562 34.788 31.2328C34.8125 31.0177 34.8729 30.8126 34.9649 30.6323C35.0568 30.452 35.1779 30.301 35.3195 30.1903C35.5615 29.9798 35.8293 29.8269 36.0141 29.4651C36.2331 29.0362 36.2887 28.4094 36.3757 27.8376C36.4628 27.2657 36.6278 26.6511 36.9324 26.4918Z" fill="#49AF2B"/>
<path d="M33.7928 33.0328C33.6375 33.3414 33.43 33.535 33.2438 33.7761C33.0289 34.0347 32.8879 34.3833 32.8445 34.7634C32.821 35.0319 32.8574 35.3048 32.8524 35.5763C32.8473 35.8478 32.7789 36.1534 32.6393 36.2209C32.4189 36.3262 32.2506 35.7847 32.0241 35.7469C31.8441 35.7172 31.682 36.0918 31.7342 36.4167C31.7863 36.7416 32.0314 36.8855 32.1721 36.6734C32.2994 36.956 32.2097 37.4685 32.0185 37.5553C31.9983 37.7333 31.9781 37.9106 31.9585 38.0886C31.4751 37.6414 30.9867 37.1867 30.5756 36.5317C30.1184 35.8094 29.8349 34.9229 29.7613 33.986C29.7081 33.2331 29.7871 32.3719 29.5258 31.7926C29.3166 31.329 28.9577 31.2267 28.6347 31.2556C28.5758 31.2608 28.5164 31.2697 28.4575 31.2793C28.648 30.5226 28.89 29.7902 29.1804 29.0912C29.2461 29.0539 29.3072 29.0036 29.3615 28.9421C29.6621 28.6046 29.7955 27.9214 30.0395 27.4489C30.0552 27.4185 30.0714 27.3888 30.0883 27.3599C30.3378 26.929 30.672 26.7072 30.9951 26.501C31.7101 26.0418 32.4458 25.5767 33.2006 25.6405L32.9858 25.668C32.7352 26.5967 32.4843 27.5253 32.2333 28.454C32.1951 28.5964 32.1566 28.7391 32.1177 28.882C31.9753 29.4101 31.8284 29.9724 31.8503 30.5636C31.8632 30.9136 31.9551 31.2875 32.1301 31.4077C32.2933 31.5189 32.4716 31.3824 32.6292 31.2474C32.6959 31.1911 32.7621 31.1347 32.8288 31.0776C33.0683 30.8736 33.3335 30.6644 33.5864 30.8009C33.818 30.9255 33.9891 31.3416 34.0216 31.7904C34.0514 32.2266 33.971 32.6636 33.7928 33.0328Z" fill="#49AF2B"/>
<path d="M35.217 39.3731C34.5176 38.8036 33.8183 38.234 33.1189 37.6645L33.1308 37.624C32.696 37.8431 32.5154 38.8654 32.5873 39.7015C32.6592 40.5376 32.9028 41.285 33.0259 42.0996C33.1919 43.2144 33.1293 44.3677 32.8445 45.4397C33.7641 44.0748 34.5779 42.5915 35.2738 41.0119C35.371 40.8128 35.4451 40.5955 35.4936 40.3674C35.5449 40.1242 35.5266 39.8646 35.4422 39.6381C35.3849 39.5264 35.3075 39.4353 35.217 39.3731Z" fill="#49AF2B"/>
<path d="M32.4569 29.0112C32.3748 29.2444 32.3621 29.51 32.4214 29.755C32.4904 29.9524 32.6156 30.1058 32.7697 30.1817L33.1561 30.435C33.2847 30.5193 33.4233 30.6044 33.5543 30.5351C33.7124 30.4515 33.822 30.1237 33.7936 29.8194C33.7634 29.4956 33.6091 29.2728 33.4664 29.0832C33.2667 28.8177 33.067 28.5523 32.8673 28.2869L32.7547 28.4692C32.633 28.6263 32.5323 28.8095 32.4569 29.0112Z" fill="#49AF2B"/>
<path d="M46.0594 32.4728C46.2332 32.527 46.4071 32.5811 46.5809 32.6353C46.5506 33.4119 46.2596 34.1307 45.8693 34.391C45.7066 34.4993 45.5255 34.5394 45.3909 34.7419C45.2692 34.9258 45.2075 35.2121 45.1509 35.4858C45.0516 35.9635 44.9524 36.4412 44.8531 36.9189C44.7466 37.4337 44.6097 38.0056 44.3327 38.191C44.0949 38.3505 43.823 38.1554 43.6402 37.8283C43.4573 37.5012 43.3457 37.0613 43.2375 36.6326C43.2442 37.0999 43.0799 37.5583 42.8472 37.7207C42.6139 37.8832 42.3302 37.7363 42.1743 37.3736C42.0621 37.1132 42.0156 36.7698 41.9056 36.5057C41.7957 36.2417 41.5653 36.0904 41.4453 36.3381C41.3662 36.5028 41.3763 36.755 41.337 36.9642C41.3172 37.103 41.2653 37.2303 41.1883 37.3283C41.1113 37.4262 41.0131 37.4901 40.9075 37.5108C40.8103 37.5079 40.7146 37.4788 40.6262 37.4254C40.5378 37.3719 40.4585 37.2953 40.3932 37.2C40.0498 36.7354 39.8262 36.139 39.7545 35.4962C39.7058 35.188 39.712 34.8691 39.7724 34.5646C39.8414 34.2761 40.008 34.0535 40.1734 34.1084C40.2822 33.8043 40.0674 33.4008 39.8739 33.4364C39.6799 33.472 39.5279 33.7472 39.3687 33.9586C39.21 34.17 38.9879 34.3235 38.8281 34.1136C38.8317 34.1904 38.812 34.2659 38.7735 34.3235C38.735 34.3812 38.6807 34.4162 38.6227 34.4209C38.6169 34.4214 38.6112 34.4216 38.6055 34.4214C38.4992 34.3811 38.4004 34.3119 38.3155 34.2182C37.9493 33.9163 37.4844 34.1166 37.2242 34.6877C37.3869 33.7724 37.6252 32.7221 38.1249 32.507C38.329 32.4187 38.5516 32.4914 38.7445 32.3386C39.086 32.0679 39.155 31.045 38.86 30.6229C38.8976 31.022 38.8903 31.4878 38.7311 31.7608C38.5718 32.0337 38.2376 31.8557 38.2578 31.4522C38.2532 31.5089 38.2352 31.5623 38.2064 31.6047C38.1775 31.6471 38.1392 31.6764 38.097 31.6882C38.0548 31.7001 38.0108 31.694 37.9714 31.6707C37.932 31.6475 37.8991 31.6084 37.8776 31.559C37.7716 31.3454 37.7806 30.996 37.8557 30.7409C37.9332 30.5097 38.0442 30.3011 38.1826 30.1267C38.449 29.7491 38.7193 29.3671 39.0277 29.1298C39.3367 28.8924 39.6934 28.8123 40.0029 29.0482C40.1661 29.1728 40.3097 29.3805 40.4762 29.4903C40.5154 29.5224 40.5589 29.544 40.6044 29.5539C40.6498 29.5637 40.6963 29.5617 40.7411 29.5478C40.786 29.5339 40.8283 29.5084 40.8657 29.4729C40.9032 29.4374 40.9349 29.3924 40.9592 29.3407C40.9611 29.3367 40.9629 29.3326 40.9647 29.3286C41.0886 29.0408 41.0303 28.6135 41.0763 28.2538C41.1587 27.6181 41.6393 27.3206 41.9057 27.7405C41.7066 27.673 41.5008 27.9845 41.4761 28.3621C41.4509 28.7396 41.595 29.1209 41.7879 29.2351C42.112 29.425 42.4294 28.9473 42.6745 28.5052C42.9302 28.0424 43.1863 27.5798 43.4428 27.1174C43.4837 27.0387 43.5297 26.9647 43.5802 26.8964C43.6605 26.7928 43.7676 26.7335 43.8797 26.7305C43.9918 26.7274 44.1007 26.7809 44.1841 26.88C44.4432 27.1597 44.5649 27.7331 44.7774 28.1277C45.0859 28.701 45.5474 28.8405 45.9769 28.9517C46.2971 29.0341 46.6175 29.1169 46.9381 29.2002C47.1518 29.7261 47.3382 30.2706 47.4961 30.8299C46.9082 31.1844 46.4096 31.7547 46.0594 32.4728Z" fill="#49AF2B"/>
<path d="M47.8045 32.1212C47.7388 32.3774 47.7029 32.6452 47.698 32.9156C47.4232 32.472 47.3794 31.6405 47.56 31.0649C47.6525 31.4106 47.734 31.7627 47.8045 32.1212Z" fill="#49AF2B"/>
<path d="M47.0946 41.3977C46.8543 42.0429 46.5749 42.6613 46.259 43.2468C46.0571 43.1326 45.8401 43.3366 45.6511 43.528C45.4537 43.7282 45.2165 43.9233 45.0141 43.7408C44.8071 43.5539 44.7404 43.031 44.806 42.6163C44.8814 42.2338 45.0133 41.8749 45.1941 41.5601C45.3623 41.2278 45.5423 40.8829 45.7762 40.7538C46.0106 40.6247 46.3117 40.8072 46.3801 41.2478L46.5461 41.2404C46.453 41.0713 46.5018 40.7212 46.6269 40.6596C46.771 40.5876 46.8961 40.8495 46.9813 41.0809C47.0194 41.1855 47.0581 41.2908 47.0946 41.3977Z" fill="#49AF2B"/>
<path d="M40.7372 38.2645C40.3804 38.2942 40.0978 37.7132 39.91 37.1417C39.7222 36.5701 39.5508 35.9165 39.2289 35.6256C39.045 35.4594 38.8353 35.4366 38.6357 35.356C38.5226 35.3182 38.4178 35.2453 38.3302 35.1433C38.2426 35.0412 38.1747 34.9131 38.132 34.7694L37.9057 34.6484C37.5891 34.8578 37.2991 35.1312 37.0464 35.4589C36.7575 35.8647 36.5776 36.385 36.5343 36.9395C36.4911 37.5387 36.6507 38.2069 36.9491 38.432C37.1848 38.6098 37.4592 38.4977 37.698 38.6605C37.9963 38.864 38.1734 39.4549 38.2404 40.0384C38.3074 40.6219 38.2904 41.2283 38.3384 41.8184C38.3864 42.4086 38.5186 43.0226 38.7921 43.325C39.1345 43.7035 39.6368 43.389 39.7904 42.7001C39.8657 42.3622 39.8631 41.9809 39.9195 41.6301C40.0187 41.0124 40.2865 40.5541 40.4989 40.0474C40.7113 39.5407 40.8785 38.8525 40.7372 38.2645Z" fill="#49AF2B"/>
<path d="M37.2116 32.1946C37.2449 32.2352 37.2759 32.2788 37.3045 32.3251C37.3341 32.3926 37.3492 32.4695 37.3482 32.5475C37.3472 32.6255 37.3301 32.7016 37.2988 32.7677C37.3418 32.7645 37.3838 32.7495 37.4222 32.7237C37.4605 32.6979 37.4944 32.6619 37.5217 32.6178C37.5869 32.5197 37.6441 32.413 37.6927 32.2993C37.7155 32.2604 37.7318 32.2155 37.7405 32.1676C37.7492 32.1197 37.7501 32.0699 37.7431 32.0215C37.7262 31.9579 37.6864 31.9307 37.6584 31.8829C37.6197 31.7893 37.5933 31.6878 37.5802 31.5825C37.5648 31.4838 37.5288 31.3928 37.4763 31.3197C37.4239 31.2466 37.3571 31.1943 37.2834 31.1687L37.3013 31.1732C37.2708 31.1971 37.2468 31.233 37.2326 31.2758C37.2183 31.3187 37.2146 31.3664 37.2218 31.4122C37.2327 31.5048 37.2776 31.5816 37.2732 31.676C37.2667 31.8118 37.1641 31.8755 37.1578 32.0112C37.1568 32.0793 37.1761 32.1452 37.2116 32.1946Z" fill="#49AF2B"/>
<path d="M36.6003 29.8878L36.6019 29.8874C36.6129 29.8741 36.6231 29.8598 36.6324 29.8445L36.6003 29.8878Z" fill="#49AF2B"/>
<path d="M36.7073 30.5249C36.7502 30.4752 36.7818 30.4108 36.7989 30.3388C36.816 30.2669 36.8178 30.1901 36.8042 30.1169C36.7782 29.9626 36.6865 29.8588 36.6019 29.8873C36.5773 29.9202 36.5469 29.9443 36.5133 29.9574C36.4798 29.9704 36.4443 29.972 36.4102 29.9619C36.3579 29.9441 36.3005 29.8982 36.2551 29.9504C36.2291 29.9893 36.211 30.0362 36.2022 30.0868C36.1855 30.155 36.1687 30.2232 36.1519 30.2914C36.1439 30.3158 36.1418 30.3429 36.1459 30.3689C36.1491 30.3793 36.1543 30.3885 36.161 30.3955C36.1677 30.4025 36.1756 30.4071 36.184 30.4089C36.2847 30.4482 36.3855 30.4875 36.4863 30.5268C36.521 30.5479 36.5587 30.5587 36.5969 30.5584C36.6351 30.5581 36.6728 30.5466 36.7073 30.5249Z" fill="#49AF2B"/>
<path d="M44.3139 39.3221C44.2673 39.2212 44.2207 39.1204 44.1741 39.0195C44.1284 38.9027 44.0658 38.7988 43.99 38.7137C43.9736 38.6955 43.9546 38.6818 43.9342 38.6733C43.9137 38.6648 43.8922 38.6617 43.8709 38.6642C43.8496 38.6667 43.8288 38.6747 43.8098 38.6878C43.7908 38.7009 43.7739 38.7188 43.7602 38.7406L43.7578 38.7445L43.7634 38.8021C43.8881 38.9789 43.9731 39.1983 44.0088 39.4355C44.0195 39.5385 44.0158 39.6452 44.0251 39.7487C44.0261 39.7967 44.0342 39.844 44.049 39.8879C44.0638 39.9317 44.085 39.9713 44.1114 40.0043C44.1847 40.0691 44.2708 39.9735 44.323 39.8569C44.3697 39.7612 44.3906 39.6474 44.3824 39.534C44.3708 39.4579 44.3475 39.3858 44.3139 39.3221Z" fill="#49AF2B"/>
<path d="M45.0445 39.4533C45.0534 39.3588 45.0476 39.263 45.0275 39.1717C45.0242 39.0481 45.0489 38.926 45.0986 38.8212C45.148 38.7224 45.1853 38.6139 45.2094 38.4998C45.2196 38.4479 45.2177 38.393 45.2041 38.3425C45.1887 38.2967 45.1514 38.2758 45.1299 38.312L45.1758 38.3511C45.1139 38.3365 45.0503 38.3406 44.9898 38.363C44.9552 38.3805 44.9244 38.4087 44.8998 38.4453C44.8753 38.4819 44.8578 38.5258 44.8488 38.5732C44.8412 38.6472 44.8288 38.7202 44.8118 38.7913C44.7845 38.8657 44.7315 38.8904 44.6983 38.9556C44.6756 39.0135 44.6641 39.0779 44.665 39.143C44.6658 39.2082 44.6788 39.272 44.7029 39.3289C44.7447 39.4218 44.8111 39.4909 44.8892 39.5226C44.9452 39.5492 45.0189 39.5506 45.0445 39.4533Z" fill="#49AF2B"/>
<path d="M46.3457 39.9726C46.3659 40.0422 46.393 40.1081 46.4263 40.1683C46.4886 40.2513 46.5732 40.2003 46.6488 40.1801C46.7174 40.1658 46.7876 40.1763 46.852 40.2105C46.9165 40.2447 46.9727 40.3013 47.0148 40.3743C46.9855 40.181 46.9215 39.9998 46.8283 39.8459C46.7351 39.6921 46.6153 39.5701 46.479 39.4901C46.3019 39.4091 46.1153 39.3705 45.928 39.3762L45.896 39.387C45.9775 39.701 46.2336 39.6939 46.3457 39.9726Z" fill="#49AF2B"/>
<path d="M40.8348 40.6148L40.8353 40.6161L40.8446 40.5924L40.8348 40.6148Z" fill="#49AF2B"/>
<path d="M40.6374 41.1201C40.5944 41.2235 40.5574 41.331 40.5267 41.4418C40.4861 41.6214 40.4592 41.8058 40.4464 41.9924C40.4364 42.0985 40.4333 42.234 40.4836 42.2857C40.498 42.2984 40.5154 42.3037 40.5326 42.3006C40.5498 42.2975 40.5655 42.2863 40.5768 42.269C40.6047 42.2299 40.6276 42.185 40.6444 42.1361C40.7432 41.911 40.8199 41.6703 40.8727 41.4196C40.9277 41.1537 40.9146 40.8711 40.8353 40.6161C40.7693 40.7841 40.7034 40.9521 40.6374 41.1201Z" fill="#49AF2B"/>
<path d="M38.7332 27.6561C38.7645 27.6966 38.8042 27.7242 38.8472 27.7353C38.8903 27.7464 38.9348 27.7406 38.9754 27.7186C39.0594 27.67 39.1365 27.6027 39.2033 27.5195C39.2585 27.4654 39.3054 27.3978 39.3414 27.3202C39.3612 27.2739 39.3739 27.2228 39.3787 27.17C39.3836 27.1171 39.3805 27.0635 39.3697 27.0123C39.3542 26.9631 39.3296 26.92 39.298 26.887C39.2665 26.854 39.2291 26.8322 39.1894 26.8237C39.0776 26.7798 38.9657 26.7359 38.8539 26.6921L38.9348 26.5956C38.8516 26.5365 38.7595 26.6462 38.7075 26.7819C38.6741 26.8706 38.6508 26.9653 38.6384 27.063C38.6207 27.165 38.6201 27.2709 38.6364 27.3733C38.6528 27.4758 38.6858 27.5723 38.7332 27.6561Z" fill="#49AF2B"/>
<path d="M40.7077 26.7794C40.7392 26.8253 40.7828 26.8537 40.8296 26.8588C40.8763 26.8638 40.9228 26.8451 40.9595 26.8065C40.9911 26.7751 41.0174 26.7352 41.0366 26.6895C41.0558 26.6438 41.0675 26.5932 41.0709 26.5411C41.0788 26.4248 41.0353 26.2955 40.9732 26.2854L40.9874 26.1765C40.8677 26.1479 40.7205 26.1421 40.6563 26.3344C40.6347 26.408 40.6281 26.4879 40.6371 26.566C40.6461 26.644 40.6705 26.7176 40.7077 26.7794Z" fill="#49AF2B"/>
<path d="M28.9202 38.4388C28.8052 38.3023 28.7143 38.134 28.6538 37.946C28.5933 37.7579 28.5647 37.5546 28.57 37.3504C28.5754 37.1461 28.6144 36.9459 28.6846 36.7638C28.7547 36.5817 28.8541 36.4221 28.9759 36.2963L27.7629 31.5938L29.6527 32.2431L30.5139 36.6089C30.6602 36.8935 30.7225 37.2394 30.6889 37.5807C30.6553 37.9221 30.5282 38.2353 30.3317 38.461C30.1351 38.6866 29.8828 38.809 29.6225 38.8049C29.3623 38.8009 29.1122 38.6707 28.9197 38.439L28.9202 38.4388Z" fill="#FFB7B7"/>
<path d="M28.3783 35.585L30.2119 34.5042L29.5959 26.301L30.1696 18.0292L27.7215 16.2816L27.2028 17.1467V17.1663L26.928 27.6262L26.9294 27.6341L28.3783 35.585Z" fill="#E6E7E8"/>
<path d="M56.467 60.0301C55.4303 59.3995 54.312 58.6565 53.1122 57.8011C46.9066 53.376 39.2756 46.473 31.6249 38.3636C23.9742 30.2543 17.2179 21.9073 12.6005 14.8607C10.3513 11.428 8.7311 8.4882 7.7851 6.12297C6.78348 3.61894 6.58148 1.84446 7.18459 0.848936C8.3596 -1.09049 12.1862 0.656377 15.1893 2.46335L15.0796 2.78258C10.9554 0.301108 8.22508 -0.307684 7.3915 1.06827C6.32975 2.82071 8.30142 7.76409 12.8008 14.631C17.4081 21.6622 24.1521 29.9935 31.7906 38.09C39.4292 46.1865 47.0461 53.0771 53.238 57.4924C59.285 61.8046 63.3623 63.2727 64.424 61.5201C65.3055 60.0651 64.1031 56.4004 61.0383 51.201L61.2474 50.9854C63.4743 54.7634 65.869 59.6958 64.631 61.7395C64.0278 62.735 62.6745 62.8608 60.6086 62.1135C59.431 61.6874 58.0451 60.99 56.467 60.0301Z" fill="#49AF2B"/>
<path d="M16.7668 36.3847C13.9085 34.6462 11.2963 32.9002 9.00847 31.1915C6.01804 28.9579 3.74534 26.909 2.25352 25.1018C0.67408 23.1883 0.0330636 21.6068 0.348272 20.4011C0.962239 18.0523 5.01011 17.9971 8.29775 18.3643L8.2754 18.7138C3.76067 18.2094 1.03442 18.8494 0.598787 20.5158C0.043954 22.6382 3.15668 26.418 9.13883 30.886C15.2643 35.4611 23.7324 40.311 32.9836 44.5419C42.2347 48.7732 51.1591 51.8782 58.1127 53.285C64.9037 54.659 69.1167 54.2298 69.6716 52.1073C70.1322 50.3452 68.0688 47.4279 63.8615 43.8928L64.0036 43.5968C67.0607 46.1654 70.5692 49.7469 69.9221 52.2219C69.607 53.4277 68.3642 54.1476 66.2286 54.3619C64.2114 54.5642 61.4674 54.3186 58.0726 53.6317C51.1036 52.2217 42.1628 49.1112 32.897 44.8734C27.0843 42.2149 21.5781 39.3112 16.7668 36.3847Z" fill="#49AF2B"/>
<path d="M21.1034 18.5375C21.9567 18.5375 22.6485 17.6225 22.6485 16.4938C22.6485 15.3652 21.9567 14.4502 21.1034 14.4502C20.2501 14.4502 19.5583 15.3652 19.5583 16.4938C19.5583 17.6225 20.2501 18.5375 21.1034 18.5375Z" fill="#E6E6E6"/>
<path d="M51.5576 43.4814C52.08 43.4814 52.5034 42.9213 52.5034 42.2304C52.5034 41.5395 52.08 40.9794 51.5576 40.9794C51.0353 40.9794 50.6118 41.5395 50.6118 42.2304C50.6118 42.9213 51.0353 43.4814 51.5576 43.4814Z" fill="#FF6584"/>
<path d="M5.30042 54.4629C6.15373 54.4629 6.84547 53.5479 6.84547 52.4193C6.84547 51.2906 6.15373 50.3756 5.30042 50.3756C4.44711 50.3756 3.75537 51.2906 3.75537 52.4193C3.75537 53.5479 4.44711 54.4629 5.30042 54.4629Z" fill="#E6E6E6"/>
</g>
<defs>
<clipPath id="clip0_202_23">
<rect width="70" height="70" fill="white"/>
</clipPath>
</defs>
</svg>
